<?xml version="1.0" encoding="UTF-8"?>
<svg xmlns="http://www.w3.org/2000/svg" xmlns:xlink="http://www.w3.org/1999/xlink" width="320px" height="312px" viewBox="0 0 320 312" version="1.1">
<g id="surface1">
<path style=" stroke:none;fill-rule:nonzero;fill:rgb(57.254902%,10.588235%,12.156863%);fill-opacity:1;" d="M 107.351562 238.6875 L 91.058594 238.6875 L 91.058594 85.191406 L 67.886719 85.191406 L 67.886719 69.277344 L 90.714844 69.277344 C 90.914062 40.175781 98.019531 20.199219 112.972656 7.121094 C 108.4375 8.347656 103.984375 9.738281 100.617188 11.128906 C 31.117188 38.367188 -9.699219 108.972656 2.386719 181.046875 C 14.476562 253.121094 76.230469 307.375 151.011719 311.609375 L 151.011719 162.203125 C 131.976562 149.515625 117.28125 135.828125 107.292969 121.472656 Z M 107.351562 238.6875 "/>
<path style=" stroke:none;fill-rule:nonzero;fill:rgb(57.254902%,10.588235%,12.156863%);fill-opacity:1;" d="M 209.765625 85.191406 L 167.363281 85.191406 L 167.363281 153.71875 C 186.253906 165.933594 200.148438 178.285156 209.765625 191.390625 Z M 209.765625 85.191406 "/>
<path style=" stroke:none;fill-rule:nonzero;fill:rgb(57.254902%,10.588235%,12.156863%);fill-opacity:1;" d="M 151.066406 142.5625 L 151.066406 85.191406 L 108.691406 85.191406 C 112.746094 105.726562 126.640625 124.449219 151.066406 142.5625 Z M 151.066406 142.5625 "/>
<path style=" stroke:none;fill-rule:nonzero;fill:rgb(57.254902%,10.588235%,12.156863%);fill-opacity:1;" d="M 273.542969 45.710938 C 243.566406 16.238281 202.6875 -0.234375 160.113281 0 C 105.382812 0 107.410156 69.554688 107.410156 69.554688 L 252.113281 69.554688 L 252.113281 85.46875 L 226.089844 85.46875 C 226.089844 99.9375 226.089844 236.683594 226.089844 243.75 C 226.375 278.472656 211.164062 299.757812 196.324219 311.609375 C 266.238281 298.785156 319.941406 229.007812 319.941406 156.027344 C 320.132812 114.703125 303.4375 75.007812 273.542969 45.710938 Z M 273.542969 45.710938 "/>
<path style=" stroke:none;fill-rule:nonzero;fill:rgb(57.254902%,10.588235%,12.156863%);fill-opacity:1;" d="M 166.449219 172.5 L 166.449219 311.609375 C 184.570312 304.070312 209.507812 276.914062 209.679688 237.242188 C 208.539062 213.816406 194.785156 192.449219 166.476562 172.332031 Z M 166.449219 172.5 "/>
<path style=" stroke:none;fill-rule:nonzero;fill:rgb(100%,77.254902%,26.27451%);fill-opacity:1;" d="M 176.980469 46.269531 C 176.980469 55.582031 169.238281 63.128906 159.6875 63.128906 C 150.136719 63.128906 142.394531 55.582031 142.394531 46.269531 C 142.394531 36.957031 150.136719 29.410156 159.6875 29.410156 C 169.238281 29.410156 176.980469 36.957031 176.980469 46.269531 Z M 176.980469 46.269531 "/>
</g>
</svg>
