<?xml version="1.0" encoding="UTF-8"?>
<svg xmlns="http://www.w3.org/2000/svg" xmlns:xlink="http://www.w3.org/1999/xlink" width="320px" height="312px" viewBox="0 0 320 312" version="1.1">
<g id="surface1">
<path style=" stroke:none;fill-rule:evenodd;fill:rgb(16.862745%,16.078431%,16.078431%);fill-opacity:1;" d="M 78.441406 42.609375 L 77.199219 43.519531 L 79.027344 45.839844 C 79.195312 46.054688 79.324219 46.324219 79.414062 46.652344 C 79.503906 46.980469 79.488281 47.324219 79.367188 47.691406 C 79.246094 48.054688 78.988281 48.429688 78.597656 48.816406 C 78.46875 48.929688 78.277344 49.089844 78.03125 49.292969 C 78.390625 49.421875 78.667969 49.519531 78.867188 49.59375 C 79.449219 49.796875 79.964844 49.945312 80.410156 50.039062 C 80.859375 50.132812 81.5 50.25 82.335938 50.386719 C 82.605469 50.421875 82.980469 50.476562 83.453125 50.539062 L 82.992188 52.414062 C 82.28125 52.285156 81.707031 52.167969 81.261719 52.058594 C 79.867188 51.746094 78.609375 51.417969 77.496094 51.074219 C 76.46875 50.742188 75.535156 50.425781 74.691406 50.117188 C 74.328125 49.988281 73.847656 49.8125 73.246094 49.582031 L 73.914062 47.820312 C 74.378906 48.050781 74.75 48.203125 75.027344 48.273438 C 75.894531 48.503906 76.570312 48.441406 77.058594 48.082031 C 77.355469 47.863281 77.472656 47.59375 77.402344 47.269531 C 77.371094 47.175781 77.296875 47.03125 77.1875 46.835938 L 75.554688 44.726562 L 70.117188 48.714844 L 69.140625 47.453125 L 77.460938 41.347656 Z M 70.210938 48.625 L 69.277344 49.414062 L 76.289062 57.234375 L 74.71875 58.566406 L 67.707031 50.746094 L 65.472656 52.636719 L 69.402344 57 C 69.550781 57.164062 69.652344 57.300781 69.699219 57.40625 C 69.835938 57.726562 69.765625 58.003906 69.484375 58.242188 C 69.253906 58.441406 68.472656 58.519531 67.148438 58.488281 C 65.820312 58.453125 65.078125 58.339844 64.90625 58.148438 C 64.738281 57.957031 64.699219 57.738281 64.800781 57.492188 C 64.835938 57.414062 64.902344 57.304688 64.992188 57.167969 L 65.980469 56.332031 L 63.863281 53.996094 L 60.59375 56.769531 L 59.527344 55.574219 L 69.144531 47.433594 Z M 60.597656 57.097656 L 59.753906 57.945312 L 67.441406 65.136719 L 65.972656 66.613281 L 61.445312 62.351562 L 58.871094 64.949219 L 60.035156 66.046875 C 60.105469 66.132812 60.160156 66.195312 60.195312 66.230469 C 60.394531 66.523438 60.382812 66.785156 60.15625 67.011719 C 59.910156 67.261719 59.1875 67.332031 57.992188 67.226562 C 56.796875 67.117188 56.082031 66.957031 55.851562 66.734375 C 55.582031 66.484375 55.53125 66.183594 55.695312 65.835938 C 55.730469 65.78125 55.777344 65.695312 55.847656 65.585938 L 60.207031 61.191406 L 58.304688 59.402344 L 51.828125 65.9375 L 50.660156 64.839844 L 59.425781 55.996094 Z M 52.207031 65.726562 L 51.425781 66.601562 L 59.472656 73.410156 L 58.089844 74.960938 L 50.042969 68.152344 L 48.265625 70.140625 L 47.039062 69.105469 L 48.261719 67.734375 C 47.339844 67.328125 46.621094 67.054688 46.109375 66.910156 C 44.542969 66.503906 43.457031 66.644531 42.839844 67.335938 C 42.480469 67.738281 42.28125 68.183594 42.242188 68.671875 C 42.203125 69.160156 42.375 69.5625 42.75 69.882812 C 43.140625 70.210938 43.660156 70.445312 44.3125 70.578125 C 44.820312 70.679688 45.136719 70.707031 45.265625 70.664062 L 43.878906 72.214844 C 43.5 72.183594 43.210938 72.148438 43.011719 72.105469 C 42.371094 71.960938 41.8125 71.683594 41.339844 71.28125 C 40.644531 70.695312 40.320312 69.957031 40.375 69.074219 C 40.425781 68.191406 40.835938 67.3125 41.609375 66.449219 C 42.339844 65.628906 43.390625 65.207031 44.765625 65.179688 C 45.734375 65.171875 46.820312 65.359375 48.015625 65.746094 C 48.523438 65.945312 49.023438 66.140625 49.515625 66.328125 L 50.980469 64.691406 Z M 48.472656 69.839844 L 47.441406 71.269531 L 56.191406 77.207031 L 54.980469 78.886719 L 52.339844 77.089844 C 52.316406 77.648438 52.269531 78.09375 52.203125 78.433594 C 52.011719 79.492188 51.699219 80.328125 51.265625 80.933594 C 50.71875 81.691406 50.03125 82.175781 49.210938 82.386719 C 48.394531 82.59375 47.617188 82.453125 46.886719 81.953125 C 46.558594 81.730469 46.320312 81.449219 46.164062 81.113281 C 46.011719 80.777344 45.9375 80.402344 45.945312 79.980469 C 45.347656 80.152344 44.875 80.257812 44.535156 80.292969 C 43.460938 80.417969 42.601562 80.269531 41.964844 79.835938 C 41.410156 79.457031 41.09375 78.929688 41.019531 78.253906 C 40.941406 77.578125 41.105469 76.960938 41.5 76.410156 C 41.972656 75.75 42.53125 75.382812 43.171875 75.300781 C 43.8125 75.21875 44.433594 75.382812 45.042969 75.800781 C 45.1875 75.898438 45.296875 75.972656 45.359375 76.015625 L 44.527344 77.175781 C 44.492188 77.113281 44.425781 77.046875 44.320312 76.976562 C 44.082031 76.8125 43.824219 76.730469 43.558594 76.71875 C 43.195312 76.699219 42.921875 76.820312 42.734375 77.078125 C 42.558594 77.320312 42.527344 77.5625 42.632812 77.800781 C 42.738281 78.035156 42.925781 78.242188 43.1875 78.421875 C 43.613281 78.710938 44.230469 78.8125 45.035156 78.730469 C 45.296875 78.695312 45.664062 78.625 46.144531 78.507812 C 46.195312 78.351562 46.246094 78.230469 46.285156 78.144531 C 46.421875 77.792969 46.515625 77.558594 46.574219 77.433594 C 46.636719 77.3125 46.761719 77.113281 46.957031 76.84375 C 47.105469 76.636719 47.222656 76.46875 47.316406 76.339844 L 48.800781 76.578125 C 48.765625 76.628906 48.722656 76.691406 48.667969 76.761719 C 48.621094 76.832031 48.558594 76.917969 48.484375 77.019531 C 48.058594 77.613281 47.777344 78.15625 47.644531 78.640625 C 47.445312 79.386719 47.613281 79.945312 48.15625 80.3125 C 48.554688 80.585938 48.960938 80.632812 49.382812 80.457031 C 49.695312 80.324219 49.953125 80.121094 50.160156 79.835938 C 50.519531 79.332031 50.699219 78.546875 50.703125 77.472656 C 50.710938 76.554688 50.664062 76.023438 50.550781 75.871094 L 46.246094 72.9375 L 45.179688 74.425781 L 43.847656 73.515625 L 47.140625 68.9375 Z M 37.34375 79.203125 L 36.050781 81.140625 L 34.148438 79.964844 L 35.453125 78.007812 Z M 40.964844 80.324219 L 40.277344 81.355469 L 49.21875 87.007812 L 48.070312 88.730469 L 39.117188 83.09375 L 37.652344 85.289062 L 36.292969 84.429688 L 39.605469 79.460938 Z M 37.632812 85.53125 L 37.050781 86.59375 L 46.476562 91.445312 L 45.496094 93.238281 L 36.074219 88.386719 L 34.683594 90.925781 L 39.960938 93.628906 C 40.160156 93.734375 40.300781 93.824219 40.382812 93.90625 C 40.632812 94.15625 40.667969 94.441406 40.496094 94.761719 C 40.347656 95.027344 39.652344 95.375 38.402344 95.804688 C 37.152344 96.234375 36.414062 96.390625 36.1875 96.273438 C 35.957031 96.152344 35.839844 95.960938 35.84375 95.695312 C 35.851562 95.609375 35.875 95.488281 35.90625 95.328125 L 36.519531 94.203125 L 33.683594 92.757812 L 31.648438 96.488281 L 30.214844 95.746094 L 36.199219 84.789062 Z M 29.0625 102.15625 L 28.605469 103.25 L 38.5 107.117188 L 37.710938 109.019531 L 31.871094 106.722656 L 30.480469 110.066406 L 31.988281 110.660156 C 32.085938 110.71875 32.15625 110.753906 32.203125 110.773438 C 32.503906 110.972656 32.589844 111.222656 32.46875 111.511719 C 32.335938 111.832031 31.695312 112.164062 30.546875 112.496094 C 29.394531 112.835938 28.671875 112.945312 28.371094 112.824219 C 28.027344 112.691406 27.863281 112.429688 27.882812 112.050781 C 27.894531 111.984375 27.90625 111.886719 27.925781 111.761719 L 30.273438 106.09375 L 27.828125 105.132812 L 24.335938 113.550781 L 22.828125 112.960938 L 27.558594 101.5625 Z M 24.585938 113.722656 L 24.21875 114.894531 L 34.414062 117.933594 L 33.796875 119.894531 L 23.597656 116.882812 L 22.808594 119.382812 L 21.257812 118.921875 L 23.035156 113.261719 Z M 22.789062 118.886719 L 22.433594 120.382812 L 32.824219 122.695312 L 32.351562 124.695312 L 28.761719 123.890625 C 29.136719 124.550781 29.355469 125.257812 29.429688 126 C 29.503906 126.742188 29.460938 127.453125 29.300781 128.128906 C 28.953125 129.597656 28.167969 130.699219 26.953125 131.421875 C 25.96875 132.011719 24.859375 132.277344 23.628906 132.226562 C 23.703125 132.117188 23.816406 131.894531 23.972656 131.566406 C 24.125 131.234375 24.25 130.867188 24.347656 130.449219 C 24.523438 129.714844 24.488281 129.050781 24.246094 128.464844 C 23.960938 127.773438 23.417969 127.335938 22.617188 127.15625 C 22.050781 127.027344 21.578125 127.035156 21.195312 127.175781 C 20.722656 127.359375 20.417969 127.726562 20.289062 128.28125 C 20.125 128.96875 20.351562 129.382812 20.964844 129.519531 C 21.199219 129.574219 21.425781 129.519531 21.636719 129.351562 C 21.851562 129.1875 21.984375 128.996094 22.039062 128.769531 L 23.375 129.097656 C 23.324219 129.800781 22.964844 130.402344 22.304688 130.894531 C 21.777344 131.289062 21.15625 131.402344 20.429688 131.242188 C 19.738281 131.085938 19.242188 130.6875 18.9375 130.042969 C 18.632812 129.40625 18.570312 128.707031 18.75 127.957031 C 18.980469 126.976562 19.535156 126.214844 20.410156 125.667969 C 21.285156 125.121094 22.234375 124.964844 23.257812 125.195312 C 24.265625 125.421875 25.042969 125.988281 25.585938 126.90625 C 26.132812 127.816406 26.296875 128.742188 26.074219 129.679688 C 26.253906 129.621094 26.390625 129.566406 26.488281 129.503906 C 27.160156 129.117188 27.59375 128.515625 27.789062 127.679688 C 28.003906 126.777344 27.824219 125.785156 27.25 124.714844 C 26.789062 123.863281 26.425781 123.398438 26.167969 123.308594 L 21.964844 122.359375 L 21.542969 124.128906 L 19.960938 123.773438 L 21.207031 118.535156 Z M 19.882812 132.894531 L 19.65625 134.457031 L 22.636719 134.84375 C 23.066406 134.902344 23.40625 135 23.65625 135.140625 C 23.90625 135.277344 24.113281 135.515625 24.273438 135.855469 C 24.386719 136.109375 24.460938 136.4375 24.5 136.839844 C 24.511719 136.984375 24.515625 137.183594 24.511719 137.4375 C 24.863281 137.261719 25.136719 137.132812 25.328125 137.046875 C 25.90625 136.761719 26.355469 136.523438 26.679688 136.328125 C 27.179688 136.03125 27.699219 135.703125 28.238281 135.347656 C 28.4375 135.21875 28.699219 135.039062 29.023438 134.816406 L 29.996094 136.566406 C 29.464844 136.859375 29.019531 137.109375 28.664062 137.3125 C 27.425781 138.003906 26.347656 138.578125 25.429688 139.039062 C 24.691406 139.398438 23.832031 139.773438 22.84375 140.160156 C 22.515625 140.292969 22.078125 140.464844 21.527344 140.675781 L 20.738281 139.019531 C 21.195312 138.886719 21.535156 138.785156 21.757812 138.707031 C 22.453125 138.417969 22.824219 138.113281 22.871094 137.785156 C 22.925781 137.394531 22.816406 137.117188 22.527344 136.953125 C 22.4375 136.90625 22.277344 136.859375 22.054688 136.816406 L 19.371094 136.445312 L 18.535156 142.242188 L 16.925781 142.019531 L 18.277344 132.679688 Z M 25.082031 131.796875 L 24.769531 133.96875 L 23.15625 134.792969 L 23.621094 131.59375 Z M 14.9375 142.785156 L 14.730469 145.089844 L 12.484375 144.921875 L 12.691406 142.59375 Z M 18.117188 142.96875 L 18.097656 144.171875 L 28.753906 144.328125 L 28.71875 146.382812 L 23.046875 146.285156 L 23.011719 148.476562 L 21.511719 149.492188 L 21.574219 146.261719 L 18.058594 146.199219 L 17.996094 149.570312 L 21.003906 149.597656 C 21.390625 149.605469 21.730469 149.667969 22.03125 149.78125 C 22.328125 149.894531 22.570312 150.105469 22.753906 150.40625 C 22.898438 150.644531 23.011719 150.960938 23.105469 151.355469 C 23.132812 151.5 23.164062 151.695312 23.191406 151.949219 C 23.519531 151.734375 23.769531 151.574219 23.949219 151.464844 C 24.488281 151.113281 24.90625 150.820312 25.203125 150.59375 C 25.660156 150.234375 26.136719 149.851562 26.628906 149.433594 C 26.808594 149.28125 27.046875 149.074219 27.34375 148.808594 L 28.527344 150.433594 C 28.03125 150.789062 27.625 151.089844 27.296875 151.335938 C 26.152344 152.164062 25.152344 152.863281 24.304688 153.429688 C 23.613281 153.875 22.808594 154.347656 21.878906 154.851562 C 21.566406 155.019531 21.152344 155.242188 20.632812 155.515625 L 19.640625 153.964844 C 20.078125 153.785156 20.40625 153.640625 20.617188 153.535156 C 21.269531 153.164062 21.601562 152.816406 21.605469 152.488281 C 21.613281 152.09375 21.464844 151.832031 21.160156 151.703125 C 21.066406 151.667969 20.902344 151.640625 20.675781 151.621094 L 17.964844 151.578125 L 17.855469 157.425781 L 16.234375 157.398438 L 16.496094 142.9375 Z M 18.195312 163.582031 L 18.277344 164.738281 L 28.914062 164.011719 L 29.058594 166.0625 L 18.425781 166.785156 L 18.613281 169.421875 L 16.996094 169.53125 L 16.863281 167.71875 C 15.917969 168.066406 15.210938 168.367188 14.742188 168.621094 C 13.34375 169.410156 12.675781 170.261719 12.742188 171.171875 C 12.78125 171.703125 12.960938 172.15625 13.289062 172.527344 C 13.613281 172.902344 14.027344 173.066406 14.527344 173.035156 C 15.042969 173 15.582031 172.804688 16.136719 172.453125 C 16.570312 172.171875 16.8125 171.972656 16.871094 171.855469 L 17.019531 173.90625 C 16.730469 174.144531 16.5 174.320312 16.324219 174.425781 C 15.769531 174.765625 15.175781 174.953125 14.546875 174.996094 C 13.628906 175.058594 12.867188 174.761719 12.257812 174.101562 C 11.652344 173.441406 11.308594 172.535156 11.226562 171.394531 C 11.148438 170.3125 11.585938 169.289062 12.539062 168.324219 C 13.21875 167.648438 14.121094 167.035156 15.246094 166.484375 C 15.75 166.277344 16.246094 166.070312 16.734375 165.859375 L 16.578125 163.695312 Z M 18.605469 169.132812 L 19.359375 175.125 L 21.785156 174.8125 C 21.574219 174.644531 21.402344 174.492188 21.289062 174.347656 C 20.925781 173.898438 20.703125 173.394531 20.632812 172.832031 C 20.527344 171.992188 20.746094 171.21875 21.296875 170.519531 C 21.839844 169.820312 22.5625 169.417969 23.460938 169.308594 C 24.457031 169.191406 25.554688 169.453125 26.757812 170.101562 C 27.160156 170.3125 27.660156 170.65625 28.257812 171.136719 L 27.285156 172.75 C 26.851562 172.390625 26.492188 172.125 26.210938 171.953125 C 25.332031 171.421875 24.53125 171.203125 23.808594 171.289062 C 23.34375 171.34375 22.957031 171.515625 22.652344 171.808594 C 22.347656 172.09375 22.222656 172.453125 22.273438 172.875 C 22.328125 173.296875 22.625 173.703125 23.160156 174.101562 C 23.339844 174.21875 23.601562 174.371094 23.953125 174.554688 L 29.9375 173.835938 L 30.191406 175.851562 L 27.308594 176.195312 C 27.570312 176.464844 27.773438 176.757812 27.917969 177.074219 C 28.0625 177.390625 28.160156 177.726562 28.203125 178.085938 C 28.324219 179.039062 28.105469 179.878906 27.546875 180.613281 C 26.988281 181.34375 26.171875 181.777344 25.097656 181.902344 C 23.59375 182.082031 22.472656 181.527344 21.742188 180.234375 C 21.507812 179.804688 21.292969 179.140625 21.097656 178.246094 L 22.675781 177.578125 C 22.648438 177.777344 22.644531 177.941406 22.664062 178.082031 C 22.730469 178.597656 22.90625 179.027344 23.195312 179.375 C 23.59375 179.847656 24.132812 180.042969 24.804688 179.964844 C 25.351562 179.898438 25.785156 179.699219 26.109375 179.367188 C 26.433594 179.03125 26.566406 178.628906 26.503906 178.160156 C 26.445312 177.65625 26.203125 177.222656 25.78125 176.859375 C 25.652344 176.746094 25.441406 176.609375 25.144531 176.453125 L 19.613281 177.117188 L 20.554688 184.582031 L 18.945312 184.777344 L 16.996094 169.320312 Z M 20.875 185.3125 L 21.21875 186.46875 L 31.457031 183.585938 L 32.03125 185.535156 L 21.789062 188.417969 L 22.605469 191.1875 L 28.328125 189.5625 C 28.546875 189.5 28.714844 189.472656 28.832031 189.472656 C 29.1875 189.488281 29.417969 189.667969 29.519531 190.015625 C 29.609375 190.304688 29.351562 191.027344 28.761719 192.179688 C 28.167969 193.335938 27.75 193.945312 27.5 194.015625 C 27.253906 194.085938 27.03125 194.023438 26.839844 193.832031 C 26.789062 193.765625 26.714844 193.664062 26.621094 193.527344 L 26.261719 192.300781 L 23.195312 193.183594 L 24.390625 197.238281 L 22.828125 197.675781 L 19.320312 185.746094 Z M 20.074219 189.945312 L 20.707031 191.953125 C 20.097656 192.707031 19.667969 193.324219 19.410156 193.792969 C 18.621094 195.261719 18.414062 196.582031 18.78125 197.757812 C 19.011719 198.492188 19.394531 198.988281 19.929688 199.238281 C 20.464844 199.492188 21.074219 199.515625 21.753906 199.3125 C 22.074219 199.214844 22.414062 199.066406 22.773438 198.855469 C 22.890625 198.789062 23.03125 198.703125 23.199219 198.585938 L 22.769531 197.234375 L 24.324219 196.769531 L 24.679688 197.898438 L 34.867188 194.839844 L 35.480469 196.800781 L 25.292969 199.859375 L 26.082031 202.363281 L 24.527344 202.828125 L 23.734375 200.300781 C 23.542969 200.441406 23.382812 200.550781 23.257812 200.628906 C 22.855469 200.867188 22.472656 201.046875 22.101562 201.15625 C 21.039062 201.472656 20.058594 201.363281 19.175781 200.820312 C 18.285156 200.277344 17.648438 199.390625 17.261719 198.15625 C 16.90625 197.027344 16.96875 195.757812 17.457031 194.347656 C 17.808594 193.308594 18.34375 192.269531 19.0625 191.230469 C 19.402344 190.800781 19.738281 190.371094 20.074219 189.945312 Z M 26.074219 202.488281 L 26.53125 203.582031 L 36.40625 199.675781 L 37.195312 201.578125 L 27.320312 205.488281 L 28.324219 207.914062 L 26.820312 208.507812 L 25.925781 206.34375 L 23.296875 212.414062 L 21.714844 211.511719 L 25.394531 205.074219 L 24.570312 203.082031 Z M 34.660156 208.105469 L 29.328125 210.417969 L 30.441406 212.851562 L 32.984375 211.75 L 34.613281 215.304688 C 34.703125 215.503906 34.8125 215.644531 34.933594 215.722656 C 35.058594 215.796875 35.242188 215.78125 35.496094 215.671875 C 35.820312 215.53125 35.992188 215.265625 36.007812 214.882812 C 36.015625 214.585938 35.980469 214.394531 35.90625 214.304688 C 35.585938 213.839844 35.335938 213.40625 35.152344 213.007812 C 35.027344 212.730469 34.949219 212.542969 34.921875 212.449219 C 34.894531 212.34375 34.835938 212.125 34.753906 211.785156 L 35.957031 210.820312 C 35.957031 210.90625 35.996094 211.074219 36.0625 211.320312 C 36.132812 211.566406 36.210938 211.785156 36.304688 211.992188 C 36.59375 212.621094 36.890625 213.027344 37.199219 213.203125 C 37.511719 213.378906 37.875 213.375 38.285156 213.195312 C 38.65625 213.035156 38.855469 212.734375 38.882812 212.292969 C 38.894531 211.976562 38.828125 211.652344 38.675781 211.324219 C 38.332031 210.574219 37.566406 209.816406 36.363281 209.046875 C 35.964844 208.789062 35.394531 208.472656 34.660156 208.105469 Z M 27.976562 207.464844 L 28.480469 208.5625 L 38.210938 204.320312 L 39.058594 206.171875 L 36.632812 207.25 C 37.28125 207.707031 37.785156 208.085938 38.132812 208.378906 C 39.199219 209.277344 39.902344 210.101562 40.242188 210.847656 C 40.609375 211.65625 40.730469 212.472656 40.597656 213.304688 C 40.4375 214.234375 40.011719 214.847656 39.320312 215.148438 C 38.785156 215.378906 38.1875 215.382812 37.519531 215.152344 C 37.558594 215.324219 37.449219 215.699219 37.183594 216.28125 C 36.839844 216.996094 36.417969 217.464844 35.917969 217.679688 C 35.472656 217.875 35.03125 217.898438 34.582031 217.753906 C 34.136719 217.613281 33.824219 217.332031 33.632812 216.917969 L 32.339844 214.09375 L 31.230469 214.574219 L 34.050781 220.734375 L 32.570312 221.378906 L 26.5 208.101562 Z M 34.453125 220.644531 L 35.039062 221.679688 L 44.351562 216.625 L 45.371094 218.421875 L 36.0625 223.472656 L 37.367188 225.761719 L 35.945312 226.53125 L 34.46875 223.933594 L 32.308594 230.359375 L 30.890625 229.476562 L 33.996094 223.105469 L 33.035156 221.414062 Z M 35.289062 225.375 L 35.890625 226.425781 L 35.800781 231.386719 L 34.167969 231.238281 Z M 44.769531 224.371094 L 50.367188 227.097656 L 49.542969 228.863281 L 43.5625 225.023438 Z M 42.835938 226.0625 L 39.074219 228.351562 L 41.054688 231.433594 L 44.320312 229.445312 C 44.769531 229.167969 45.070312 228.839844 45.214844 228.453125 C 45.355469 228.070312 45.28125 227.644531 44.980469 227.179688 C 44.714844 226.765625 44.3125 226.453125 43.777344 226.242188 C 43.371094 226.082031 43.058594 226.023438 42.835938 226.0625 Z M 37.332031 225.632812 L 37.984375 226.652344 L 47.015625 221.128906 L 48.101562 222.832031 L 44.644531 224.964844 C 45.3125 225.265625 45.863281 225.746094 46.292969 226.417969 C 46.925781 227.410156 47.039062 228.441406 46.621094 229.515625 C 46.304688 230.324219 45.886719 230.886719 45.363281 231.203125 L 42.15625 233.152344 L 43.453125 235.175781 L 42.078125 236.011719 L 35.953125 226.46875 Z M 53.824219 239.855469 L 49.859375 243.214844 L 51.863281 245.457031 C 51.925781 245.144531 52.054688 244.824219 52.261719 244.5 C 52.464844 244.175781 52.746094 243.871094 53.097656 243.570312 C 53.71875 243.042969 54.351562 242.796875 54.996094 242.820312 C 55.640625 242.847656 56.285156 243.101562 56.925781 243.578125 C 57.554688 242.628906 57.519531 241.691406 56.820312 240.761719 C 56.4375 240.335938 55.945312 240.039062 55.335938 239.875 C 54.730469 239.710938 54.226562 239.707031 53.824219 239.855469 Z M 47.683594 240.773438 L 48.492188 241.679688 L 56.523438 234.851562 L 57.902344 236.402344 L 55.671875 238.292969 C 56.136719 238.425781 56.539062 238.589844 56.882812 238.785156 C 57.226562 238.980469 57.558594 239.25 57.863281 239.597656 C 58.742188 240.582031 59.136719 241.714844 59.042969 243.003906 C 58.953125 244.292969 58.398438 245.363281 57.386719 246.21875 C 57.285156 246.011719 57.152344 245.816406 56.984375 245.625 C 56.621094 245.21875 56.230469 244.960938 55.804688 244.839844 C 55.242188 244.691406 54.710938 244.828125 54.210938 245.25 C 53.929688 245.488281 53.710938 245.816406 53.546875 246.234375 C 53.386719 246.65625 53.320312 246.953125 53.355469 247.132812 L 55.992188 250.085938 L 54.769531 251.125 L 46.453125 241.8125 Z M 55.730469 249.832031 L 56.539062 250.679688 L 64.339844 243.601562 L 65.773438 245.101562 L 57.980469 252.179688 L 59.828125 254.113281 L 58.644531 255.191406 L 57.371094 253.863281 C 56.859375 254.714844 56.503906 255.382812 56.304688 255.863281 C 55.726562 257.332031 55.753906 258.40625 56.394531 259.070312 C 56.769531 259.460938 57.203125 259.703125 57.699219 259.792969 C 58.191406 259.882812 58.621094 259.757812 58.988281 259.425781 C 59.363281 259.085938 59.660156 258.605469 59.863281 257.988281 C 60.015625 257.503906 60.078125 257.199219 60.050781 257.074219 L 61.488281 258.578125 C 61.417969 258.941406 61.351562 259.21875 61.285156 259.402344 C 61.070312 260.007812 60.730469 260.523438 60.269531 260.941406 C 59.597656 261.550781 58.8125 261.785156 57.914062 261.644531 C 57.015625 261.5 56.164062 261.011719 55.363281 260.171875 C 54.601562 259.378906 54.28125 258.316406 54.394531 256.980469 C 54.488281 256.039062 54.792969 255.007812 55.3125 253.890625 C 55.570312 253.421875 55.820312 252.960938 56.066406 252.5 L 54.542969 250.910156 Z M 59.667969 253.683594 L 60.554688 254.519531 L 67.941406 247.035156 L 69.496094 248.496094 L 64.542969 253.414062 L 67.660156 256.347656 C 67.835938 256.488281 67.980469 256.582031 68.09375 256.625 C 68.464844 256.753906 68.792969 256.636719 69.085938 256.277344 C 69.664062 255.554688 70.015625 254.425781 70.128906 252.898438 C 70.226562 251.566406 70.210938 250.839844 70.082031 250.71875 L 71.976562 250.824219 C 72.007812 251.972656 71.996094 252.871094 71.941406 253.519531 C 71.765625 255.496094 71.285156 256.878906 70.5 257.671875 C 69.902344 258.269531 69.253906 258.566406 68.546875 258.554688 C 67.984375 258.554688 67.535156 258.394531 67.199219 258.078125 L 63.433594 254.535156 L 62.054688 255.929688 L 68.78125 262.253906 L 67.652344 263.390625 L 58.539062 254.816406 Z M 69.085938 262.074219 L 70.292969 263.027344 L 72.164062 260.738281 C 72.339844 260.53125 72.574219 260.34375 72.878906 260.179688 C 73.179688 260.011719 73.53125 259.945312 73.925781 259.972656 C 74.316406 259.996094 74.753906 260.148438 75.230469 260.425781 C 75.378906 260.519531 75.582031 260.664062 75.84375 260.847656 C 75.886719 260.476562 75.914062 260.1875 75.941406 259.984375 C 76 259.382812 76.027344 258.859375 76.015625 258.417969 C 76 257.972656 75.960938 257.335938 75.894531 256.515625 C 75.867188 256.25 75.824219 255.886719 75.777344 255.421875 L 77.753906 255.402344 C 77.796875 256.105469 77.820312 256.675781 77.820312 257.125 C 77.84375 258.519531 77.820312 259.785156 77.746094 260.921875 C 77.667969 261.972656 77.574219 262.929688 77.472656 263.804688 C 77.429688 264.175781 77.371094 264.675781 77.289062 265.296875 L 75.375 265.09375 C 75.496094 264.601562 75.554688 264.214844 75.558594 263.933594 C 75.578125 263.054688 75.347656 262.433594 74.875 262.058594 C 74.585938 261.828125 74.285156 261.785156 73.980469 261.929688 C 73.898438 261.984375 73.765625 262.085938 73.601562 262.238281 L 71.894531 264.289062 L 77.183594 268.460938 L 76.164062 269.6875 L 68.070312 263.304688 Z M 77.117188 268.28125 L 78.152344 268.988281 L 84.265625 260.484375 L 85.992188 261.664062 L 79.898438 270.175781 L 82.097656 271.679688 L 81.171875 272.976562 L 76.191406 269.578125 Z M 81.789062 271.65625 L 83.089844 272.386719 L 88.398438 263.382812 L 90.226562 264.410156 L 87.566406 268.9375 L 90.167969 270.398438 L 90.996094 269.011719 C 91.140625 268.855469 91.269531 268.765625 91.378906 268.738281 C 91.597656 268.675781 91.820312 268.710938 92.042969 268.835938 C 92.261719 268.960938 92.554688 269.652344 92.902344 270.902344 C 93.257812 272.152344 93.367188 272.890625 93.238281 273.105469 C 93.085938 273.363281 92.894531 273.511719 92.667969 273.550781 C 92.601562 273.5625 92.5 273.554688 92.355469 273.507812 L 91.054688 272.777344 L 89.464844 275.507812 C 89.417969 275.679688 89.394531 275.8125 89.394531 275.902344 C 89.421875 276.210938 89.597656 276.449219 89.917969 276.628906 C 90.125 276.75 90.351562 276.777344 90.597656 276.714844 C 90.835938 276.652344 91.023438 276.511719 91.152344 276.292969 C 91.21875 276.183594 91.28125 276.011719 91.347656 275.777344 C 91.371094 275.703125 91.402344 275.589844 91.433594 275.441406 L 92.691406 276.152344 C 92.65625 276.496094 92.566406 276.789062 92.421875 277.03125 C 92.058594 277.648438 91.558594 278.023438 90.925781 278.167969 C 90.289062 278.308594 89.648438 278.199219 89.007812 277.835938 C 88.292969 277.4375 87.828125 276.910156 87.613281 276.25 C 87.394531 275.59375 87.46875 274.957031 87.832031 274.347656 L 89.335938 271.808594 L 86.710938 270.335938 L 84.914062 273.414062 L 86.511719 274.308594 L 85.699219 275.679688 L 80.980469 273.023438 Z M 81.789062 271.65625 "/>
<path style=" stroke:none;fill-rule:evenodd;fill:rgb(16.862745%,16.078431%,16.078431%);fill-opacity:1;" d="M 290.0625 191.574219 L 294.003906 191.078125 L 290.945312 188.582031 Z M 289.433594 191.667969 L 290.464844 188.167969 L 289.597656 187.476562 C 289.308594 187.246094 289.054688 187.101562 288.839844 187.042969 C 288.550781 186.960938 288.308594 187.015625 288.109375 187.199219 C 287.992188 187.308594 287.835938 187.617188 287.640625 188.125 L 287.363281 188.042969 L 288.335938 184.75 L 288.613281 184.828125 C 288.5625 185.195312 288.628906 185.53125 288.808594 185.828125 C 288.988281 186.125 289.417969 186.554688 290.09375 187.105469 L 297.171875 192.917969 L 297.128906 193.058594 L 287.730469 194.296875 C 286.839844 194.417969 286.261719 194.558594 285.992188 194.722656 C 285.785156 194.84375 285.625 195.058594 285.511719 195.347656 L 285.238281 195.269531 L 286.648438 190.476562 L 286.925781 190.554688 L 286.867188 190.753906 C 286.753906 191.136719 286.726562 191.425781 286.792969 191.609375 C 286.839844 191.738281 286.941406 191.824219 287.09375 191.867188 C 287.183594 191.894531 287.277344 191.90625 287.382812 191.898438 C 287.429688 191.902344 287.640625 191.882812 288.011719 191.839844 Z M 299.289062 184.90625 L 295.605469 184.335938 L 295.652344 184.054688 C 296.71875 183.875 297.5625 183.492188 298.195312 182.898438 C 298.828125 182.3125 299.210938 181.621094 299.339844 180.824219 C 299.464844 180.0625 299.34375 179.394531 298.988281 178.820312 C 298.632812 178.25 298.078125 177.796875 297.324219 177.464844 C 296.570312 177.132812 295.785156 176.902344 294.957031 176.777344 C 293.953125 176.621094 293.054688 176.601562 292.261719 176.714844 C 291.472656 176.828125 290.855469 177.113281 290.414062 177.574219 C 289.980469 178.03125 289.699219 178.613281 289.585938 179.320312 C 289.546875 179.566406 289.53125 179.816406 289.546875 180.085938 C 289.554688 180.351562 289.589844 180.628906 289.648438 180.917969 L 291.824219 181.25 C 292.234375 181.316406 292.507812 181.324219 292.636719 181.289062 C 292.765625 181.253906 292.894531 181.15625 293.019531 181 C 293.144531 180.84375 293.230469 180.640625 293.269531 180.394531 L 293.3125 180.132812 L 293.597656 180.175781 L 292.792969 185.121094 L 292.507812 185.078125 C 292.542969 184.699219 292.53125 184.433594 292.476562 184.269531 C 292.417969 184.113281 292.304688 183.976562 292.136719 183.867188 C 292.046875 183.808594 291.808594 183.75 291.425781 183.691406 L 289.253906 183.359375 C 289.0625 182.660156 288.945312 181.949219 288.910156 181.222656 C 288.875 180.496094 288.914062 179.753906 289.039062 178.996094 C 289.195312 178.03125 289.460938 177.246094 289.835938 176.652344 C 290.210938 176.054688 290.652344 175.546875 291.171875 175.125 C 291.691406 174.707031 292.25 174.402344 292.84375 174.210938 C 293.609375 173.972656 294.433594 173.914062 295.3125 174.054688 C 296.886719 174.296875 298.125 175.039062 299.035156 176.28125 C 299.945312 177.523438 300.269531 178.960938 300 180.597656 C 299.917969 181.101562 299.804688 181.550781 299.660156 181.941406 C 299.582031 182.15625 299.402344 182.492188 299.128906 182.960938 C 298.859375 183.421875 298.714844 183.699219 298.699219 183.789062 C 298.675781 183.929688 298.707031 184.066406 298.792969 184.203125 C 298.882812 184.339844 299.0625 184.480469 299.339844 184.625 Z M 301.449219 169.925781 L 301.160156 169.90625 C 301.140625 169.566406 301.054688 169.296875 300.910156 169.105469 C 300.710938 168.835938 300.144531 168.398438 299.214844 167.785156 L 295.550781 165.296875 L 292.996094 165.121094 C 292.453125 165.085938 292.109375 165.085938 291.972656 165.132812 C 291.839844 165.179688 291.714844 165.28125 291.601562 165.4375 C 291.488281 165.597656 291.417969 165.8125 291.398438 166.085938 L 291.359375 166.660156 L 291.070312 166.640625 L 291.488281 160.871094 L 291.777344 160.890625 L 291.734375 161.429688 C 291.714844 161.730469 291.753906 161.972656 291.847656 162.160156 C 291.910156 162.296875 292.03125 162.40625 292.203125 162.496094 C 292.316406 162.5625 292.644531 162.609375 293.175781 162.648438 L 295.296875 162.792969 L 299.992188 160.683594 C 300.921875 160.257812 301.46875 159.957031 301.640625 159.769531 C 301.8125 159.585938 301.914062 159.328125 301.945312 159 L 302.234375 159.015625 L 301.878906 163.949219 L 301.589844 163.929688 L 301.605469 163.710938 C 301.625 163.410156 301.597656 163.199219 301.515625 163.074219 C 301.4375 162.949219 301.347656 162.886719 301.25 162.878906 C 301.0625 162.867188 300.582031 163.035156 299.796875 163.386719 L 296.167969 165.007812 L 299.21875 167.078125 C 299.96875 167.589844 300.46875 167.855469 300.722656 167.871094 C 300.863281 167.882812 300.980469 167.824219 301.085938 167.699219 C 301.226562 167.535156 301.324219 167.222656 301.382812 166.765625 L 301.675781 166.785156 Z M 302.253906 156.578125 L 298.523438 156.640625 L 298.519531 156.355469 C 299.535156 156 300.300781 155.480469 300.816406 154.789062 C 301.335938 154.105469 301.585938 153.355469 301.574219 152.546875 C 301.558594 151.78125 301.324219 151.144531 300.871094 150.636719 C 300.417969 150.132812 299.792969 149.78125 298.992188 149.582031 C 298.191406 149.382812 297.371094 149.292969 296.535156 149.304688 C 295.519531 149.324219 294.632812 149.457031 293.871094 149.699219 C 293.113281 149.945312 292.554688 150.332031 292.203125 150.859375 C 291.855469 151.382812 291.691406 152.003906 291.703125 152.71875 C 291.703125 152.964844 291.734375 153.21875 291.796875 153.480469 C 291.855469 153.742188 291.9375 154.007812 292.046875 154.28125 L 294.25 154.242188 C 294.664062 154.234375 294.933594 154.203125 295.054688 154.144531 C 295.171875 154.085938 295.285156 153.96875 295.382812 153.792969 C 295.476562 153.617188 295.523438 153.402344 295.519531 153.15625 L 295.511719 152.886719 L 295.800781 152.886719 L 295.894531 157.890625 L 295.605469 157.894531 C 295.570312 157.519531 295.511719 157.257812 295.429688 157.105469 C 295.34375 156.960938 295.210938 156.847656 295.019531 156.769531 C 294.921875 156.722656 294.679688 156.707031 294.292969 156.710938 L 292.089844 156.75 C 291.777344 156.097656 291.539062 155.417969 291.371094 154.703125 C 291.207031 153.996094 291.117188 153.257812 291.101562 152.492188 C 291.082031 151.515625 291.207031 150.699219 291.46875 150.046875 C 291.730469 149.398438 292.078125 148.820312 292.515625 148.320312 C 292.949219 147.820312 293.441406 147.425781 293.992188 147.132812 C 294.710938 146.769531 295.507812 146.578125 296.402344 146.5625 C 297.992188 146.53125 299.347656 147.054688 300.464844 148.128906 C 301.578125 149.199219 302.152344 150.558594 302.183594 152.210938 C 302.191406 152.722656 302.164062 153.183594 302.085938 153.597656 C 302.046875 153.820312 301.933594 154.183594 301.75 154.6875 C 301.5625 155.1875 301.46875 155.488281 301.472656 155.578125 C 301.476562 155.71875 301.53125 155.847656 301.636719 155.96875 C 301.75 156.085938 301.953125 156.195312 302.246094 156.292969 Z M 300.519531 138.691406 C 300.386719 137.753906 299.792969 137.109375 298.742188 136.753906 C 297.882812 136.472656 296.695312 136.429688 295.195312 136.636719 C 293.40625 136.882812 292.128906 137.367188 291.363281 138.09375 C 290.824219 138.605469 290.609375 139.242188 290.722656 140.011719 C 290.796875 140.527344 290.988281 140.945312 291.296875 141.253906 C 291.6875 141.648438 292.261719 141.921875 293.027344 142.070312 C 293.785156 142.214844 294.746094 142.210938 295.910156 142.050781 C 297.300781 141.859375 298.320312 141.59375 298.96875 141.246094 C 299.621094 140.898438 300.058594 140.515625 300.289062 140.085938 C 300.515625 139.660156 300.59375 139.195312 300.519531 138.691406 Z M 301 138.527344 C 301.300781 140.144531 301 141.535156 300.113281 142.691406 C 299.222656 143.847656 298 144.535156 296.441406 144.746094 C 295.113281 144.929688 293.890625 144.714844 292.773438 144.09375 C 291.285156 143.269531 290.410156 141.945312 290.144531 140.113281 C 289.878906 138.277344 290.3125 136.769531 291.449219 135.589844 C 292.34375 134.660156 293.488281 134.097656 294.871094 133.90625 C 296.429688 133.695312 297.804688 134.035156 298.988281 134.921875 C 300.175781 135.8125 300.847656 137.015625 301 138.527344 Z M 293.371094 132.574219 L 289.667969 133.070312 L 287.394531 124.191406 L 287.675781 124.125 L 287.757812 124.457031 C 287.832031 124.742188 287.945312 124.964844 288.09375 125.117188 C 288.199219 125.226562 288.347656 125.296875 288.539062 125.324219 C 288.667969 125.347656 288.996094 125.300781 289.511719 125.171875 L 296.269531 123.53125 C 296.792969 123.40625 297.113281 123.296875 297.230469 123.210938 C 297.347656 123.125 297.433594 122.992188 297.492188 122.800781 C 297.546875 122.609375 297.539062 122.378906 297.46875 122.09375 L 297.382812 121.761719 L 297.667969 121.695312 L 299.03125 127.03125 L 298.75 127.097656 L 298.640625 126.664062 C 298.5625 126.371094 298.453125 126.152344 298.304688 126 C 298.195312 125.890625 298.054688 125.820312 297.859375 125.785156 C 297.726562 125.761719 297.398438 125.8125 296.886719 125.9375 L 290.339844 127.523438 C 289.816406 127.65625 289.488281 127.765625 289.359375 127.855469 C 289.230469 127.953125 289.152344 128.09375 289.125 128.28125 C 289.109375 128.417969 289.164062 128.71875 289.285156 129.191406 L 289.5 130.023438 C 289.632812 130.558594 289.84375 130.972656 290.125 131.285156 C 290.40625 131.589844 290.789062 131.824219 291.269531 131.980469 C 291.75 132.136719 292.421875 132.234375 293.292969 132.269531 Z M 295.460938 115.160156 C 295.175781 114.253906 294.488281 113.710938 293.394531 113.519531 C 292.5 113.367188 291.324219 113.511719 289.871094 113.941406 C 288.144531 114.457031 286.960938 115.132812 286.320312 115.96875 C 285.871094 116.550781 285.765625 117.21875 285.996094 117.957031 C 286.152344 118.457031 286.410156 118.839844 286.761719 119.097656 C 287.210938 119.429688 287.828125 119.609375 288.605469 119.640625 C 289.375 119.667969 290.328125 119.515625 291.449219 119.179688 C 292.792969 118.78125 293.753906 118.359375 294.339844 117.921875 C 294.929688 117.480469 295.296875 117.03125 295.457031 116.574219 C 295.613281 116.117188 295.613281 115.644531 295.460938 115.160156 Z M 295.914062 114.925781 C 296.46875 116.480469 296.390625 117.894531 295.703125 119.171875 C 295.011719 120.453125 293.910156 121.316406 292.410156 121.765625 C 291.125 122.148438 289.878906 122.121094 288.675781 121.675781 C 287.078125 121.089844 285.996094 119.914062 285.441406 118.144531 C 284.886719 116.375 285.074219 114.816406 286.003906 113.480469 C 286.738281 112.421875 287.773438 111.695312 289.113281 111.296875 C 290.617188 110.847656 292.027344 110.976562 293.34375 111.671875 C 294.660156 112.371094 295.515625 113.453125 295.914062 114.925781 Z M 290.628906 101.339844 L 286.621094 108.519531 L 290.816406 106.789062 C 291.402344 106.546875 291.757812 106.304688 291.894531 106.054688 C 292.074219 105.71875 292.046875 105.285156 291.804688 104.761719 L 292.074219 104.652344 L 293.4375 107.785156 L 293.171875 107.894531 C 292.945312 107.515625 292.757812 107.277344 292.613281 107.171875 C 292.472656 107.070312 292.289062 107.019531 292.0625 107.019531 C 291.84375 107.019531 291.5 107.121094 291.042969 107.308594 L 282.925781 110.660156 L 282.824219 110.421875 L 288.136719 100.652344 L 281.941406 103.214844 C 281.382812 103.445312 281.058594 103.726562 280.972656 104.058594 C 280.882812 104.386719 280.910156 104.714844 281.046875 105.035156 L 281.148438 105.257812 L 280.882812 105.371094 L 279.414062 102.003906 L 279.679688 101.894531 C 279.910156 102.414062 280.183594 102.734375 280.488281 102.847656 C 280.792969 102.964844 281.199219 102.917969 281.722656 102.703125 L 288.597656 99.863281 L 288.769531 99.546875 C 288.941406 99.242188 289.03125 98.996094 289.046875 98.804688 C 289.0625 98.617188 289.007812 98.378906 288.894531 98.085938 L 289.160156 97.976562 Z M 279.992188 92.644531 L 277.101562 94.144531 C 276.621094 94.390625 276.335938 94.570312 276.246094 94.683594 C 276.152344 94.796875 276.105469 94.953125 276.09375 95.148438 C 276.085938 95.347656 276.152344 95.570312 276.292969 95.828125 L 276.457031 96.128906 L 276.203125 96.261719 L 273.605469 91.5 L 273.855469 91.371094 L 274.019531 91.671875 C 274.167969 91.933594 274.332031 92.125 274.515625 92.234375 C 274.644531 92.316406 274.804688 92.351562 274.996094 92.328125 C 275.128906 92.324219 275.429688 92.199219 275.902344 91.953125 L 282.050781 88.773438 C 282.527344 88.527344 282.816406 88.347656 282.90625 88.234375 C 283.003906 88.125 283.046875 87.96875 283.058594 87.773438 C 283.066406 87.578125 283 87.351562 282.859375 87.097656 L 282.695312 86.792969 L 282.949219 86.660156 L 285.550781 91.421875 L 285.292969 91.550781 L 285.128906 91.25 C 284.984375 90.988281 284.820312 90.800781 284.640625 90.6875 C 284.507812 90.605469 284.351562 90.570312 284.15625 90.585938 C 284.019531 90.589844 283.714844 90.71875 283.246094 90.960938 L 280.601562 92.332031 L 282.355469 95.546875 L 285.003906 94.175781 C 285.480469 93.929688 285.765625 93.746094 285.863281 93.640625 C 285.953125 93.527344 286.003906 93.375 286.007812 93.175781 C 286.015625 92.976562 285.949219 92.75 285.808594 92.492188 L 285.644531 92.195312 L 285.902344 92.0625 L 288.5 96.816406 L 288.242188 96.953125 L 288.085938 96.65625 C 287.9375 96.386719 287.773438 96.199219 287.589844 96.09375 C 287.460938 96.011719 287.304688 95.976562 287.105469 95.988281 C 286.96875 95.996094 286.667969 96.121094 286.199219 96.363281 L 280.050781 99.546875 C 279.574219 99.796875 279.289062 99.976562 279.195312 100.085938 C 279.101562 100.199219 279.050781 100.351562 279.046875 100.550781 C 279.039062 100.75 279.105469 100.976562 279.242188 101.234375 L 279.40625 101.527344 L 279.152344 101.660156 L 276.554688 96.902344 L 276.808594 96.773438 L 276.972656 97.070312 C 277.117188 97.335938 277.28125 97.527344 277.464844 97.632812 C 277.589844 97.714844 277.753906 97.746094 277.945312 97.734375 C 278.078125 97.730469 278.382812 97.605469 278.855469 97.359375 L 281.75 95.859375 Z M 282.066406 84.6875 L 278.992188 86.632812 L 278.828125 86.382812 C 279.507812 85.691406 279.886719 84.953125 279.976562 84.171875 C 280.0625 83.390625 279.890625 82.675781 279.460938 82.03125 C 279.101562 81.488281 278.609375 81.097656 277.992188 80.851562 C 277.371094 80.601562 276.734375 80.53125 276.078125 80.652344 C 275.242188 80.800781 274.421875 81.128906 273.613281 81.640625 C 272.820312 82.144531 272.160156 82.695312 271.636719 83.304688 C 271.117188 83.914062 270.824219 84.53125 270.773438 85.160156 C 270.710938 85.785156 270.90625 86.429688 271.351562 87.097656 C 271.710938 87.640625 272.167969 88.0625 272.710938 88.359375 C 273.261719 88.660156 273.996094 88.867188 274.933594 88.992188 L 274.164062 89.476562 C 273.320312 89.320312 272.609375 89.054688 272.023438 88.675781 C 271.4375 88.296875 270.914062 87.761719 270.445312 87.058594 C 269.832031 86.136719 269.476562 85.195312 269.378906 84.238281 C 269.28125 83.285156 269.460938 82.386719 269.910156 81.546875 C 270.363281 80.707031 270.988281 80.03125 271.792969 79.523438 C 272.640625 78.992188 273.585938 78.695312 274.632812 78.652344 C 275.679688 78.601562 276.660156 78.808594 277.566406 79.277344 C 278.476562 79.746094 279.203125 80.394531 279.75 81.21875 C 280.15625 81.828125 280.453125 82.550781 280.632812 83.398438 C 280.738281 83.890625 280.824219 84.1875 280.894531 84.296875 C 280.984375 84.433594 281.113281 84.515625 281.28125 84.554688 C 281.453125 84.585938 281.660156 84.550781 281.898438 84.441406 Z M 271.210938 70.824219 L 267.8125 73.40625 L 267.945312 73.570312 C 268.359375 74.085938 268.824219 74.332031 269.34375 74.3125 C 269.859375 74.289062 270.46875 74.0625 271.167969 73.636719 L 271.351562 73.863281 L 266.980469 77.1875 L 266.796875 76.957031 C 267.238281 76.550781 267.542969 76.148438 267.726562 75.769531 C 267.90625 75.378906 267.96875 75.046875 267.910156 74.761719 C 267.847656 74.480469 267.664062 74.144531 267.351562 73.757812 L 265.007812 75.546875 C 264.546875 75.894531 264.28125 76.125 264.210938 76.242188 C 264.136719 76.359375 264.109375 76.496094 264.128906 76.648438 C 264.144531 76.800781 264.246094 76.996094 264.433594 77.226562 L 264.824219 77.710938 C 265.429688 78.46875 266.097656 78.941406 266.824219 79.125 C 267.550781 79.308594 268.367188 79.214844 269.265625 78.855469 L 269.441406 79.074219 L 266.496094 80.730469 L 260.863281 73.707031 L 261.089844 73.535156 L 261.308594 73.804688 C 261.496094 74.039062 261.691406 74.195312 261.890625 74.273438 C 262.03125 74.335938 262.195312 74.339844 262.382812 74.289062 C 262.515625 74.261719 262.792969 74.085938 263.210938 73.765625 L 268.699219 69.59375 C 269.078125 69.304688 269.300781 69.117188 269.371094 69.03125 C 269.480469 68.882812 269.53125 68.726562 269.523438 68.558594 C 269.515625 68.316406 269.410156 68.066406 269.195312 67.800781 L 268.980469 67.535156 L 269.207031 67.359375 L 274.664062 74.160156 L 272.195312 76.035156 L 272.015625 75.808594 C 272.523438 75.234375 272.828125 74.742188 272.917969 74.332031 C 273.011719 73.925781 272.96875 73.480469 272.78125 73.003906 C 272.679688 72.722656 272.378906 72.277344 271.886719 71.660156 Z M 267.984375 65.890625 L 265.921875 67.832031 L 265.726562 67.636719 C 266.082031 67.070312 266.296875 66.617188 266.363281 66.28125 C 266.433594 65.941406 266.40625 65.59375 266.28125 65.226562 C 266.214844 65.023438 266.003906 64.753906 265.664062 64.40625 L 265.117188 63.855469 L 259.242188 69.378906 C 258.851562 69.746094 258.628906 69.992188 258.570312 70.125 C 258.515625 70.261719 258.511719 70.425781 258.5625 70.613281 C 258.605469 70.804688 258.734375 71.007812 258.945312 71.214844 L 259.1875 71.464844 L 258.980469 71.660156 L 255.132812 67.773438 L 255.339844 67.582031 L 255.582031 67.828125 C 255.792969 68.042969 256.007812 68.179688 256.214844 68.234375 C 256.363281 68.28125 256.527344 68.269531 256.707031 68.203125 C 256.835938 68.164062 257.089844 67.960938 257.476562 67.601562 L 263.351562 62.078125 L 262.820312 61.539062 C 262.320312 61.042969 261.855469 60.78125 261.414062 60.761719 C 260.796875 60.722656 260.164062 60.933594 259.519531 61.378906 L 259.316406 61.171875 L 261.378906 59.230469 Z M 253.617188 52.734375 L 250.820312 55.976562 L 251.058594 56.167969 C 251.414062 56.460938 251.753906 56.648438 252.066406 56.730469 C 252.390625 56.8125 252.730469 56.792969 253.105469 56.671875 C 253.476562 56.550781 253.871094 56.300781 254.285156 55.914062 L 254.492188 56.085938 L 251.070312 60.050781 L 250.867188 59.882812 C 251.4375 59.070312 251.652344 58.40625 251.523438 57.898438 C 251.390625 57.382812 251.113281 56.949219 250.6875 56.601562 L 250.453125 56.410156 L 248.371094 58.824219 C 248.019531 59.230469 247.832031 59.5 247.789062 59.636719 C 247.746094 59.777344 247.761719 59.941406 247.828125 60.121094 C 247.898438 60.308594 248.042969 60.496094 248.269531 60.679688 L 248.539062 60.902344 L 248.351562 61.113281 L 244.113281 57.652344 L 244.300781 57.4375 L 244.570312 57.65625 C 244.804688 57.847656 245.03125 57.960938 245.242188 58 C 245.394531 58.03125 245.554688 58 245.722656 57.914062 C 245.847656 57.859375 246.078125 57.632812 246.421875 57.230469 L 250.894531 52.039062 C 251.242188 51.632812 251.441406 51.363281 251.484375 51.226562 C 251.527344 51.09375 251.511719 50.929688 251.445312 50.746094 C 251.375 50.5625 251.230469 50.375 251.003906 50.191406 L 250.734375 49.972656 L 250.917969 49.753906 L 257.761719 55.34375 L 255.808594 57.609375 L 255.5625 57.410156 C 255.96875 56.832031 256.164062 56.320312 256.15625 55.878906 C 256.144531 55.433594 255.96875 54.984375 255.625 54.523438 C 255.4375 54.273438 255.019531 53.882812 254.375 53.355469 Z M 245.363281 45.855469 C 244.597656 45.277344 243.714844 45.214844 242.703125 45.667969 C 241.882812 46.042969 241 46.816406 240.066406 47.984375 C 238.953125 49.371094 238.382812 50.582031 238.351562 51.625 C 238.328125 52.355469 238.632812 52.960938 239.257812 53.4375 C 239.679688 53.757812 240.117188 53.929688 240.554688 53.941406 C 241.121094 53.960938 241.730469 53.769531 242.386719 53.359375 C 243.035156 52.949219 243.726562 52.292969 244.449219 51.394531 C 245.3125 50.316406 245.851562 49.433594 246.070312 48.75 C 246.292969 48.058594 246.335938 47.480469 246.191406 47.019531 C 246.050781 46.558594 245.773438 46.171875 245.363281 45.855469 Z M 245.59375 45.414062 C 246.964844 46.375 247.738281 47.578125 247.925781 49.011719 C 248.109375 50.449219 247.71875 51.765625 246.753906 52.972656 C 245.925781 54.003906 244.890625 54.675781 243.644531 54.984375 C 241.988281 55.402344 240.414062 55.039062 238.914062 53.898438 C 237.414062 52.757812 236.652344 51.378906 236.625 49.761719 C 236.605469 48.488281 237.023438 47.3125 237.886719 46.238281 C 238.851562 45.03125 240.085938 44.347656 241.574219 44.183594 C 243.066406 44.023438 244.402344 44.429688 245.59375 45.414062 Z M 230.023438 36.347656 L 227.9375 40.019531 L 228.121094 40.117188 C 228.707031 40.433594 229.234375 40.484375 229.703125 40.269531 C 230.171875 40.050781 230.640625 39.613281 231.113281 38.953125 L 231.371094 39.09375 L 228.683594 43.8125 L 228.421875 43.675781 C 228.664062 43.128906 228.789062 42.648438 228.800781 42.222656 C 228.8125 41.800781 228.730469 41.46875 228.5625 41.230469 C 228.394531 40.996094 228.089844 40.753906 227.648438 40.519531 L 226.203125 43.058594 C 225.921875 43.554688 225.773438 43.867188 225.753906 44.003906 C 225.730469 44.136719 225.761719 44.269531 225.835938 44.40625 C 225.917969 44.539062 226.085938 44.675781 226.351562 44.820312 L 226.90625 45.121094 C 227.769531 45.585938 228.570312 45.765625 229.316406 45.65625 C 230.0625 45.550781 230.769531 45.15625 231.457031 44.480469 L 231.707031 44.617188 L 229.660156 47.261719 L 221.65625 42.941406 L 221.796875 42.695312 L 222.101562 42.859375 C 222.371094 43.007812 222.617188 43.074219 222.832031 43.070312 C 222.988281 43.074219 223.136719 43.015625 223.289062 42.894531 C 223.398438 42.820312 223.582031 42.558594 223.839844 42.101562 L 227.21875 36.171875 C 227.449219 35.761719 227.582031 35.507812 227.609375 35.402344 C 227.652344 35.222656 227.632812 35.058594 227.5625 34.90625 C 227.457031 34.6875 227.257812 34.5 226.957031 34.335938 L 226.652344 34.171875 L 226.792969 33.921875 L 234.539062 38.105469 L 233.019531 40.773438 L 232.765625 40.632812 C 233.003906 39.910156 233.082031 39.34375 233.007812 38.933594 C 232.929688 38.519531 232.710938 38.125 232.347656 37.757812 C 232.140625 37.539062 231.683594 37.246094 230.980469 36.867188 Z M 225.351562 32.851562 L 224.1875 35.402344 L 223.929688 35.292969 C 224.046875 34.636719 224.070312 34.140625 224.003906 33.804688 C 223.9375 33.464844 223.773438 33.148438 223.519531 32.859375 C 223.378906 32.695312 223.082031 32.519531 222.628906 32.324219 L 221.910156 32.011719 L 218.589844 39.273438 C 218.367188 39.757812 218.257812 40.066406 218.257812 40.210938 C 218.257812 40.359375 218.316406 40.511719 218.433594 40.664062 C 218.550781 40.832031 218.746094 40.964844 219.023438 41.085938 L 219.34375 41.226562 L 219.226562 41.484375 L 214.164062 39.289062 L 214.28125 39.03125 L 214.601562 39.167969 C 214.882812 39.289062 215.132812 39.339844 215.347656 39.316406 C 215.5 39.308594 215.648438 39.238281 215.789062 39.109375 C 215.894531 39.023438 216.054688 38.746094 216.269531 38.269531 L 219.59375 31.007812 L 218.890625 30.703125 C 218.238281 30.421875 217.707031 30.347656 217.289062 30.492188 C 216.699219 30.683594 216.195312 31.109375 215.765625 31.753906 L 215.5 31.640625 L 216.667969 29.085938 Z M 205.226562 24.574219 L 210.328125 26.480469 L 210.222656 26.746094 L 209.972656 26.652344 C 209.589844 26.507812 209.308594 26.453125 209.136719 26.472656 C 208.960938 26.496094 208.8125 26.566406 208.699219 26.679688 C 208.585938 26.796875 208.417969 27.128906 208.203125 27.675781 L 206.347656 32.386719 C 206.007812 33.25 205.847656 33.847656 205.875 34.175781 C 205.898438 34.503906 206.027344 34.816406 206.257812 35.117188 C 206.492188 35.417969 206.839844 35.652344 207.308594 35.828125 C 207.84375 36.027344 208.34375 36.078125 208.808594 35.988281 C 209.28125 35.894531 209.691406 35.675781 210.039062 35.332031 C 210.386719 34.992188 210.765625 34.308594 211.167969 33.285156 L 212.71875 29.363281 C 212.886719 28.929688 212.960938 28.609375 212.9375 28.386719 C 212.921875 28.167969 212.855469 27.996094 212.742188 27.875 C 212.566406 27.683594 212.277344 27.515625 211.878906 27.363281 L 211.980469 27.097656 L 215.402344 28.378906 L 215.296875 28.640625 L 215.09375 28.566406 C 214.816406 28.460938 214.5625 28.425781 214.335938 28.46875 C 214.109375 28.507812 213.910156 28.621094 213.742188 28.808594 C 213.621094 28.9375 213.484375 29.199219 213.328125 29.589844 L 211.882812 33.246094 C 211.4375 34.378906 211.039062 35.167969 210.691406 35.609375 C 210.339844 36.050781 209.78125 36.375 209.023438 36.574219 C 208.269531 36.777344 207.375 36.683594 206.347656 36.296875 C 205.496094 35.980469 204.878906 35.621094 204.5 35.222656 C 203.984375 34.683594 203.6875 34.125 203.609375 33.554688 C 203.535156 32.984375 203.652344 32.300781 203.96875 31.496094 L 205.824219 26.785156 C 206.042969 26.234375 206.152344 25.878906 206.136719 25.71875 C 206.128906 25.558594 206.0625 25.414062 205.9375 25.273438 C 205.8125 25.136719 205.539062 24.992188 205.125 24.839844 Z M 203.511719 24.066406 L 202.722656 26.75 L 202.453125 26.675781 C 202.476562 26.007812 202.429688 25.515625 202.3125 25.191406 C 202.199219 24.863281 201.992188 24.574219 201.703125 24.320312 C 201.535156 24.175781 201.214844 24.042969 200.742188 23.910156 L 199.984375 23.699219 L 197.734375 31.339844 C 197.585938 31.847656 197.519531 32.171875 197.539062 32.3125 C 197.5625 32.457031 197.640625 32.601562 197.78125 32.742188 C 197.921875 32.886719 198.132812 32.996094 198.421875 33.074219 L 198.761719 33.167969 L 198.679688 33.441406 L 193.355469 31.953125 L 193.433594 31.683594 L 193.773438 31.773438 C 194.066406 31.859375 194.320312 31.875 194.53125 31.820312 C 194.679688 31.792969 194.816406 31.703125 194.9375 31.554688 C 195.03125 31.457031 195.148438 31.15625 195.292969 30.660156 L 197.542969 23.015625 L 196.808594 22.808594 C 196.125 22.617188 195.585938 22.617188 195.191406 22.816406 C 194.636719 23.089844 194.199219 23.578125 193.867188 24.277344 L 193.585938 24.195312 L 194.375 21.511719 Z M 190.464844 30.933594 L 190.402344 31.207031 L 184.992188 30.085938 L 185.050781 29.8125 L 185.394531 29.882812 C 185.691406 29.945312 185.945312 29.941406 186.152344 29.875 C 186.300781 29.835938 186.429688 29.738281 186.535156 29.582031 C 186.617188 29.476562 186.714844 29.171875 186.824219 28.660156 L 188.273438 22.03125 C 188.382812 21.515625 188.425781 21.183594 188.398438 21.042969 C 188.371094 20.902344 188.28125 20.769531 188.132812 20.636719 C 187.980469 20.503906 187.761719 20.410156 187.472656 20.347656 L 187.128906 20.277344 L 187.1875 20 L 192.601562 21.121094 L 192.542969 21.398438 L 192.199219 21.324219 C 191.902344 21.265625 191.644531 21.265625 191.441406 21.332031 C 191.292969 21.375 191.164062 21.46875 191.050781 21.625 C 190.96875 21.730469 190.875 22.039062 190.761719 22.542969 L 189.316406 29.175781 C 189.203125 29.691406 189.160156 30.019531 189.1875 30.160156 C 189.21875 30.304688 189.3125 30.441406 189.460938 30.570312 C 189.609375 30.703125 189.828125 30.800781 190.121094 30.859375 Z M 185.472656 19.582031 L 185.125 22.355469 L 184.847656 22.324219 C 184.761719 21.664062 184.636719 21.183594 184.46875 20.878906 C 184.304688 20.574219 184.054688 20.320312 183.722656 20.113281 C 183.539062 19.996094 183.199219 19.914062 182.710938 19.855469 L 181.929688 19.761719 L 180.9375 27.652344 C 180.871094 28.175781 180.855469 28.503906 180.898438 28.644531 C 180.941406 28.78125 181.046875 28.910156 181.207031 29.027344 C 181.367188 29.148438 181.59375 29.226562 181.894531 29.261719 L 182.242188 29.304688 L 182.210938 29.582031 L 176.707031 28.925781 L 176.742188 28.644531 L 177.09375 28.6875 C 177.398438 28.722656 177.648438 28.699219 177.847656 28.617188 C 177.992188 28.5625 178.109375 28.453125 178.210938 28.289062 C 178.285156 28.179688 178.351562 27.867188 178.414062 27.347656 L 179.414062 19.460938 L 178.652344 19.367188 C 177.945312 19.285156 177.410156 19.367188 177.054688 19.621094 C 176.550781 19.972656 176.191406 20.523438 175.980469 21.265625 L 175.6875 21.230469 L 176.039062 18.457031 Z M 173.523438 17.835938 L 173.367188 21.269531 L 173.042969 21.246094 C 172.957031 20.375 172.640625 19.660156 172.085938 19.09375 C 171.535156 18.53125 170.917969 18.226562 170.234375 18.179688 C 169.703125 18.144531 169.273438 18.253906 168.945312 18.507812 C 168.613281 18.761719 168.4375 19.070312 168.410156 19.429688 C 168.394531 19.65625 168.433594 19.863281 168.53125 20.046875 C 168.664062 20.292969 168.886719 20.546875 169.207031 20.800781 C 169.4375 20.984375 169.980469 21.320312 170.832031 21.804688 C 172.023438 22.480469 172.816406 23.09375 173.210938 23.648438 C 173.597656 24.203125 173.769531 24.820312 173.722656 25.5 C 173.660156 26.359375 173.257812 27.078125 172.53125 27.648438 C 171.796875 28.21875 170.898438 28.46875 169.84375 28.402344 C 169.507812 28.375 169.195312 28.320312 168.90625 28.234375 C 168.613281 28.148438 168.25 28 167.816406 27.785156 C 167.574219 27.671875 167.371094 27.609375 167.210938 27.59375 C 167.078125 27.585938 166.929688 27.625 166.777344 27.714844 C 166.617188 27.808594 166.484375 27.953125 166.375 28.15625 L 166.085938 28.136719 L 166.367188 24.25 L 166.652344 24.273438 C 166.804688 25.378906 167.183594 26.238281 167.792969 26.855469 C 168.402344 27.480469 169.089844 27.8125 169.839844 27.867188 C 170.421875 27.90625 170.894531 27.78125 171.265625 27.496094 C 171.632812 27.210938 171.832031 26.863281 171.859375 26.457031 C 171.875 26.214844 171.828125 25.972656 171.707031 25.734375 C 171.59375 25.5 171.414062 25.269531 171.152344 25.046875 C 170.898438 24.824219 170.441406 24.527344 169.777344 24.148438 C 168.851562 23.625 168.1875 23.183594 167.792969 22.832031 C 167.394531 22.480469 167.097656 22.097656 166.898438 21.683594 C 166.703125 21.269531 166.621094 20.820312 166.652344 20.339844 C 166.714844 19.523438 167.074219 18.84375 167.734375 18.308594 C 168.390625 17.777344 169.191406 17.539062 170.132812 17.605469 C 170.472656 17.628906 170.804688 17.6875 171.121094 17.792969 C 171.359375 17.871094 171.652344 18.003906 171.984375 18.191406 C 172.328125 18.378906 172.566406 18.476562 172.707031 18.488281 C 172.839844 18.496094 172.953125 18.464844 173.035156 18.386719 C 173.121094 18.3125 173.203125 18.125 173.292969 17.820312 Z M 157.710938 17.53125 L 162.933594 23.925781 L 162.933594 19.492188 C 162.933594 18.875 162.84375 18.457031 162.664062 18.238281 C 162.414062 17.945312 161.992188 17.804688 161.402344 17.8125 L 161.402344 17.53125 L 164.898438 17.53125 L 164.898438 17.8125 C 164.453125 17.867188 164.15625 17.941406 163.996094 18.03125 C 163.84375 18.117188 163.726562 18.261719 163.640625 18.464844 C 163.554688 18.660156 163.511719 19.007812 163.511719 19.492188 L 163.511719 28.078125 L 163.246094 28.078125 L 156.085938 19.492188 L 156.085938 26.050781 C 156.085938 26.640625 156.226562 27.039062 156.507812 27.246094 C 156.78125 27.457031 157.105469 27.5625 157.460938 27.5625 L 157.710938 27.5625 L 157.710938 27.839844 L 153.957031 27.839844 L 153.957031 27.5625 C 154.539062 27.558594 154.945312 27.441406 155.175781 27.210938 C 155.402344 26.984375 155.519531 26.597656 155.519531 26.050781 L 155.519531 18.773438 L 155.289062 18.496094 C 155.066406 18.226562 154.871094 18.046875 154.699219 17.957031 C 154.527344 17.871094 154.277344 17.824219 153.957031 17.8125 L 153.957031 17.53125 Z M 153.328125 27.632812 L 153.347656 27.910156 L 147.828125 28.285156 L 147.808594 28.007812 L 148.160156 27.984375 C 148.464844 27.960938 148.710938 27.890625 148.886719 27.769531 C 149.019531 27.695312 149.113281 27.5625 149.171875 27.386719 C 149.222656 27.261719 149.230469 26.941406 149.195312 26.421875 L 148.707031 19.664062 C 148.667969 19.132812 148.617188 18.808594 148.550781 18.679688 C 148.480469 18.550781 148.355469 18.445312 148.179688 18.359375 C 147.996094 18.277344 147.757812 18.238281 147.460938 18.257812 L 147.113281 18.28125 L 147.09375 18 L 152.609375 17.625 L 152.632812 17.90625 L 152.28125 17.929688 C 151.976562 17.953125 151.730469 18.019531 151.550781 18.140625 C 151.421875 18.222656 151.324219 18.347656 151.257812 18.527344 C 151.210938 18.648438 151.207031 18.972656 151.242188 19.488281 L 151.730469 26.25 C 151.765625 26.777344 151.820312 27.101562 151.886719 27.230469 C 151.957031 27.359375 152.082031 27.46875 152.261719 27.554688 C 152.445312 27.640625 152.683594 27.675781 152.976562 27.65625 Z M 134.398438 19.699219 L 140.585938 25.21875 L 139.875 20.839844 C 139.773438 20.230469 139.617188 19.832031 139.40625 19.644531 C 139.109375 19.394531 138.671875 19.316406 138.09375 19.414062 L 138.046875 19.136719 L 141.5 18.605469 L 141.546875 18.882812 C 141.113281 19.003906 140.832031 19.121094 140.691406 19.234375 C 140.550781 19.34375 140.457031 19.503906 140.40625 19.714844 C 140.355469 19.925781 140.367188 20.273438 140.445312 20.753906 L 141.824219 29.230469 L 141.558594 29.269531 L 133.113281 21.886719 L 134.164062 28.359375 C 134.257812 28.941406 134.460938 29.316406 134.769531 29.476562 C 135.078125 29.644531 135.410156 29.699219 135.765625 29.640625 L 136.011719 29.605469 L 136.054688 29.882812 L 132.347656 30.453125 L 132.300781 30.175781 C 132.875 30.085938 133.257812 29.90625 133.449219 29.644531 C 133.636719 29.386719 133.691406 28.988281 133.601562 28.445312 L 132.433594 21.257812 L 132.164062 21.019531 C 131.902344 20.785156 131.675781 20.640625 131.492188 20.578125 C 131.3125 20.519531 131.054688 20.511719 130.738281 20.550781 L 130.691406 20.269531 Z M 126.203125 28.371094 L 123.683594 25.382812 L 123.125 29.230469 Z M 126.617188 28.839844 L 123.023438 29.84375 L 122.878906 30.929688 C 122.835938 31.289062 122.84375 31.574219 122.90625 31.785156 C 122.988281 32.066406 123.164062 32.238281 123.429688 32.300781 C 123.585938 32.34375 123.9375 32.308594 124.480469 32.199219 L 124.558594 32.46875 L 121.175781 33.414062 L 121.09375 33.144531 C 121.441406 32.988281 121.699219 32.757812 121.863281 32.453125 C 122.03125 32.144531 122.171875 31.566406 122.296875 30.710938 L 123.605469 21.789062 L 123.75 21.75 L 129.8125 28.851562 C 130.390625 29.523438 130.816406 29.925781 131.101562 30.0625 C 131.320312 30.164062 131.585938 30.1875 131.902344 30.125 L 131.980469 30.394531 L 127.058594 31.769531 L 126.980469 31.5 L 127.179688 31.441406 C 127.578125 31.332031 127.839844 31.199219 127.964844 31.046875 C 128.054688 30.941406 128.078125 30.8125 128.03125 30.664062 C 128.007812 30.578125 127.964844 30.492188 127.910156 30.410156 C 127.882812 30.367188 127.757812 30.207031 127.519531 29.921875 Z M 120.667969 33.382812 L 120.75 33.652344 L 115.460938 35.226562 L 115.375 34.957031 L 115.710938 34.855469 C 116.003906 34.769531 116.222656 34.648438 116.371094 34.492188 C 116.480469 34.386719 116.546875 34.242188 116.558594 34.054688 C 116.582031 33.921875 116.515625 33.609375 116.359375 33.113281 L 114.320312 26.628906 C 114.164062 26.125 114.035156 25.816406 113.941406 25.707031 C 113.847656 25.597656 113.703125 25.523438 113.503906 25.476562 C 113.308594 25.433594 113.070312 25.453125 112.785156 25.539062 L 112.449219 25.636719 L 112.363281 25.367188 L 117.65625 23.792969 L 117.742188 24.0625 L 117.40625 24.160156 C 117.113281 24.25 116.890625 24.367188 116.746094 24.523438 C 116.636719 24.632812 116.570312 24.777344 116.546875 24.964844 C 116.527344 25.097656 116.601562 25.410156 116.753906 25.90625 L 118.789062 32.386719 C 118.949219 32.894531 119.074219 33.199219 119.171875 33.308594 C 119.269531 33.417969 119.417969 33.492188 119.609375 33.539062 C 119.808594 33.585938 120.050781 33.566406 120.332031 33.480469 Z M 104.601562 28.957031 L 107.695312 36.414062 C 107.859375 36.8125 107.980469 37.042969 108.054688 37.117188 C 108.128906 37.1875 108.222656 37.234375 108.332031 37.246094 C 108.492188 37.265625 108.695312 37.222656 108.941406 37.125 C 109.75 36.808594 110.253906 36.300781 110.453125 35.597656 C 110.730469 34.648438 110.558594 33.410156 109.921875 31.890625 C 109.414062 30.660156 108.8125 29.757812 108.109375 29.183594 C 107.558594 28.734375 106.996094 28.503906 106.417969 28.488281 C 106.011719 28.476562 105.40625 28.632812 104.601562 28.957031 Z M 104.597656 39.441406 L 104.492188 39.183594 L 104.820312 39.054688 C 105.101562 38.941406 105.304688 38.8125 105.417969 38.664062 C 105.535156 38.515625 105.597656 38.355469 105.605469 38.175781 C 105.609375 38.058594 105.507812 37.753906 105.304688 37.257812 L 102.695312 30.976562 C 102.496094 30.484375 102.339844 30.191406 102.234375 30.089844 C 102.132812 29.988281 101.984375 29.925781 101.78125 29.898438 C 101.582031 29.867188 101.339844 29.910156 101.070312 30.015625 L 100.742188 30.144531 L 100.632812 29.882812 L 105.023438 28.15625 C 106.199219 27.691406 107.207031 27.476562 108.050781 27.507812 C 109.082031 27.542969 109.984375 27.855469 110.753906 28.453125 C 111.523438 29.046875 112.109375 29.828125 112.515625 30.800781 C 112.792969 31.472656 112.9375 32.136719 112.953125 32.789062 C 112.964844 33.445312 112.875 34.023438 112.671875 34.53125 C 112.476562 35.039062 112.191406 35.496094 111.824219 35.898438 C 111.453125 36.304688 110.964844 36.699219 110.347656 37.082031 C 110.078125 37.253906 109.625 37.464844 108.992188 37.714844 Z M 92.875 33.867188 L 100.511719 37.253906 L 98.445312 33.308594 C 98.15625 32.753906 97.878906 32.421875 97.617188 32.308594 C 97.257812 32.15625 96.820312 32.214844 96.296875 32.484375 L 96.167969 32.234375 L 99.28125 30.6875 L 99.414062 30.941406 C 99.042969 31.1875 98.808594 31.382812 98.710938 31.53125 C 98.613281 31.679688 98.574219 31.859375 98.59375 32.078125 C 98.609375 32.292969 98.730469 32.621094 98.957031 33.050781 L 102.960938 40.699219 L 102.722656 40.816406 L 92.34375 36.332031 L 95.398438 42.175781 C 95.675781 42.703125 95.984375 42.996094 96.332031 43.054688 C 96.675781 43.121094 97.011719 43.070312 97.328125 42.914062 L 97.550781 42.804688 L 97.683594 43.054688 L 94.339844 44.714844 L 94.207031 44.460938 C 94.726562 44.203125 95.03125 43.917969 95.128906 43.613281 C 95.226562 43.308594 95.152344 42.914062 94.894531 42.425781 L 91.5 35.941406 L 91.171875 35.796875 C 90.84375 35.652344 90.585938 35.582031 90.390625 35.578125 C 90.199219 35.578125 89.957031 35.644531 89.664062 35.777344 L 89.53125 35.527344 Z M 93.84375 44.824219 L 93.996094 45.0625 L 89.304688 47.917969 L 89.148438 47.679688 L 89.449219 47.496094 C 89.707031 47.339844 89.890625 47.164062 89.988281 46.980469 C 90.066406 46.851562 90.085938 46.691406 90.054688 46.507812 C 90.039062 46.378906 89.890625 46.089844 89.609375 45.648438 L 85.917969 39.902344 C 85.632812 39.453125 85.429688 39.191406 85.308594 39.105469 C 85.1875 39.023438 85.027344 38.988281 84.824219 38.992188 C 84.625 39.003906 84.398438 39.078125 84.144531 39.234375 L 83.847656 39.414062 L 83.691406 39.171875 L 88.382812 36.320312 L 88.539062 36.558594 L 88.242188 36.738281 C 87.980469 36.894531 87.796875 37.070312 87.699219 37.253906 C 87.625 37.386719 87.597656 37.542969 87.625 37.730469 C 87.644531 37.863281 87.796875 38.148438 88.074219 38.585938 L 91.765625 44.335938 C 92.054688 44.785156 92.253906 45.046875 92.378906 45.132812 C 92.5 45.210938 92.664062 45.246094 92.863281 45.242188 C 93.066406 45.234375 93.292969 45.160156 93.542969 45.003906 Z M 93.84375 44.824219 "/>
<path style=" stroke:none;fill-rule:evenodd;fill:rgb(16.862745%,16.078431%,16.078431%);fill-opacity:1;" d="M 233.546875 273.464844 L 231.230469 269.554688 L 230.847656 269.769531 C 230.21875 270.125 229.78125 270.441406 229.535156 270.726562 C 229.292969 271.015625 229.164062 271.355469 229.160156 271.742188 C 229.160156 272.140625 229.292969 272.570312 229.570312 273.039062 C 229.972656 273.722656 230.4375 274.128906 230.957031 274.269531 C 231.476562 274.414062 232.097656 274.28125 232.824219 273.871094 Z M 230.953125 269.085938 L 229.46875 266.585938 C 229.183594 266.101562 228.96875 265.816406 228.839844 265.722656 C 228.699219 265.632812 228.535156 265.589844 228.339844 265.605469 C 228.140625 265.617188 227.832031 265.742188 227.410156 265.976562 L 227.269531 265.734375 L 231.960938 263.097656 L 232.101562 263.339844 C 231.683594 263.578125 231.417969 263.773438 231.3125 263.9375 C 231.203125 264.097656 231.160156 264.261719 231.167969 264.417969 C 231.183594 264.574219 231.332031 264.894531 231.617188 265.375 L 235.054688 271.171875 C 235.339844 271.652344 235.550781 271.941406 235.683594 272.035156 C 235.820312 272.125 235.984375 272.160156 236.1875 272.148438 C 236.382812 272.140625 236.6875 272.015625 237.109375 271.777344 L 237.253906 272.023438 L 232.996094 274.417969 C 231.886719 275.042969 231.03125 275.421875 230.425781 275.5625 C 229.828125 275.703125 229.242188 275.660156 228.679688 275.441406 C 228.117188 275.222656 227.671875 274.84375 227.355469 274.304688 C 226.964844 273.644531 226.886719 272.964844 227.117188 272.257812 C 227.269531 271.808594 227.582031 271.363281 228.058594 270.914062 L 224.066406 269.128906 C 223.542969 268.902344 223.195312 268.773438 223.015625 268.746094 C 222.746094 268.714844 222.492188 268.757812 222.242188 268.882812 L 222.09375 268.640625 L 224.980469 267.015625 L 230.347656 269.425781 Z M 238.519531 262.789062 L 241.96875 264.703125 L 241.070312 260.914062 Z M 237.957031 262.496094 L 240.941406 260.304688 L 240.679688 259.242188 C 240.589844 258.890625 240.476562 258.628906 240.339844 258.453125 C 240.160156 258.222656 239.933594 258.121094 239.660156 258.152344 C 239.5 258.171875 239.183594 258.324219 238.71875 258.613281 L 238.542969 258.390625 L 241.355469 256.328125 L 241.527344 256.554688 C 241.265625 256.816406 241.105469 257.125 241.066406 257.46875 C 241.023438 257.8125 241.105469 258.402344 241.300781 259.242188 L 243.367188 268.03125 L 243.246094 268.117188 L 234.972656 263.601562 C 234.1875 263.175781 233.636719 262.949219 233.324219 262.921875 C 233.078125 262.898438 232.824219 262.972656 232.550781 263.140625 L 232.378906 262.914062 L 236.46875 259.914062 L 236.644531 260.136719 L 236.476562 260.265625 C 236.144531 260.503906 235.949219 260.71875 235.882812 260.902344 C 235.84375 261.035156 235.867188 261.164062 235.960938 261.285156 C 236.015625 261.355469 236.089844 261.425781 236.171875 261.480469 C 236.210938 261.511719 236.386719 261.617188 236.714844 261.800781 Z M 249.96875 263.335938 L 247.472656 260.636719 L 247.6875 260.445312 C 248.632812 260.960938 249.539062 261.179688 250.414062 261.105469 C 251.28125 261.039062 252.027344 260.734375 252.644531 260.195312 C 253.234375 259.679688 253.570312 259.089844 253.664062 258.425781 C 253.757812 257.757812 253.625 257.070312 253.25 256.351562 C 252.878906 255.632812 252.414062 254.96875 251.851562 254.363281 C 251.171875 253.628906 250.488281 253.0625 249.796875 252.667969 C 249.109375 252.269531 248.445312 252.113281 247.808594 252.199219 C 247.167969 252.289062 246.582031 252.574219 246.039062 253.050781 C 245.847656 253.21875 245.671875 253.40625 245.511719 253.621094 C 245.34375 253.832031 245.195312 254.070312 245.054688 254.332031 L 246.527344 255.921875 C 246.804688 256.222656 247.007812 256.402344 247.132812 256.453125 C 247.253906 256.503906 247.417969 256.507812 247.617188 256.460938 C 247.816406 256.414062 248.011719 256.3125 248.203125 256.140625 L 248.40625 255.964844 L 248.597656 256.171875 L 244.777344 259.523438 L 244.582031 259.320312 C 244.855469 259.042969 245.019531 258.828125 245.082031 258.671875 C 245.136719 258.511719 245.136719 258.335938 245.078125 258.148438 C 245.046875 258.046875 244.898438 257.855469 244.640625 257.578125 L 243.167969 255.984375 C 243.472656 255.324219 243.839844 254.703125 244.28125 254.113281 C 244.71875 253.527344 245.234375 252.976562 245.816406 252.460938 C 246.5625 251.808594 247.277344 251.363281 247.953125 251.128906 C 248.628906 250.894531 249.304688 250.769531 249.976562 250.761719 C 250.652344 250.753906 251.28125 250.859375 251.867188 251.074219 C 252.617188 251.359375 253.292969 251.820312 253.890625 252.464844 C 254.953125 253.617188 255.4375 254.953125 255.339844 256.476562 C 255.242188 258 254.566406 259.316406 253.300781 260.421875 C 252.914062 260.761719 252.535156 261.042969 252.167969 261.257812 C 251.96875 261.378906 251.613281 261.53125 251.101562 261.726562 C 250.589844 261.917969 250.296875 262.046875 250.226562 262.105469 C 250.121094 262.199219 250.058594 262.324219 250.039062 262.484375 C 250.015625 262.644531 250.0625 262.863281 250.183594 263.144531 Z M 257.15625 247.152344 L 260.898438 248.453125 L 259.335938 244.875 Z M 256.550781 246.957031 L 259.101562 244.292969 L 258.652344 243.292969 C 258.5 242.960938 258.339844 242.71875 258.175781 242.570312 C 257.957031 242.371094 257.71875 242.3125 257.453125 242.394531 C 257.296875 242.433594 257.015625 242.640625 256.605469 243.003906 L 256.398438 242.8125 L 258.796875 240.304688 L 259.007812 240.5 C 258.792969 240.804688 258.691406 241.132812 258.71875 241.476562 C 258.738281 241.820312 258.921875 242.394531 259.265625 243.183594 L 262.863281 251.492188 L 262.761719 251.597656 L 253.808594 248.550781 C 252.957031 248.265625 252.378906 248.132812 252.0625 248.160156 C 251.816406 248.175781 251.578125 248.292969 251.34375 248.503906 L 251.128906 248.3125 L 254.625 244.667969 L 254.835938 244.859375 L 254.6875 245.007812 C 254.40625 245.300781 254.257812 245.546875 254.226562 245.738281 C 254.207031 245.875 254.253906 245.996094 254.371094 246.101562 C 254.4375 246.164062 254.519531 246.214844 254.613281 246.257812 C 254.65625 246.28125 254.851562 246.355469 255.203125 246.480469 Z M 271.9375 240.898438 L 263.542969 240.96875 L 267.132812 243.699219 C 267.632812 244.078125 268.027344 244.265625 268.3125 244.261719 C 268.703125 244.25 269.078125 244.019531 269.433594 243.558594 L 269.660156 243.734375 L 267.507812 246.414062 L 267.277344 246.238281 C 267.511719 245.863281 267.632812 245.589844 267.65625 245.417969 C 267.679688 245.246094 267.640625 245.0625 267.53125 244.875 C 267.417969 244.6875 267.167969 244.441406 266.777344 244.140625 L 259.828125 238.855469 L 259.992188 238.65625 L 271.34375 238.449219 L 266.042969 234.410156 C 265.5625 234.046875 265.15625 233.90625 264.8125 233.992188 C 264.472656 234.074219 264.191406 234.257812 263.972656 234.53125 L 263.820312 234.722656 L 263.59375 234.550781 L 265.902344 231.671875 L 266.128906 231.84375 C 265.773438 232.292969 265.621094 232.675781 265.660156 232.996094 C 265.707031 233.308594 265.949219 233.636719 266.390625 233.972656 L 272.28125 238.453125 L 272.644531 238.449219 C 273.003906 238.449219 273.265625 238.402344 273.445312 238.324219 C 273.617188 238.25 273.808594 238.085938 274.019531 237.84375 L 274.246094 238.019531 Z M 266.539062 231.242188 L 266.300781 231.085938 L 269.394531 226.621094 L 269.632812 226.777344 L 269.4375 227.058594 C 269.265625 227.308594 269.171875 227.539062 269.15625 227.75 C 269.140625 227.894531 269.1875 228.050781 269.296875 228.207031 C 269.363281 228.316406 269.621094 228.519531 270.0625 228.8125 L 275.832031 232.605469 C 276.285156 232.898438 276.578125 233.058594 276.726562 233.085938 C 276.871094 233.113281 277.03125 233.085938 277.214844 233 C 277.394531 232.910156 277.566406 232.75 277.734375 232.511719 L 277.933594 232.226562 L 278.171875 232.386719 L 275.078125 236.851562 L 274.835938 236.695312 L 275.035156 236.410156 C 275.203125 236.164062 275.300781 235.933594 275.3125 235.722656 C 275.328125 235.574219 275.28125 235.421875 275.179688 235.261719 C 275.109375 235.148438 274.851562 234.945312 274.414062 234.65625 L 268.640625 230.863281 C 268.191406 230.570312 267.894531 230.40625 267.75 230.382812 C 267.601562 230.359375 267.4375 230.390625 267.257812 230.472656 C 267.074219 230.558594 266.902344 230.71875 266.734375 230.960938 Z M 278.285156 222.015625 L 275.390625 220.515625 C 274.910156 220.269531 274.601562 220.140625 274.457031 220.128906 C 274.304688 220.117188 274.144531 220.164062 273.976562 220.269531 C 273.800781 220.371094 273.644531 220.550781 273.507812 220.804688 L 273.34375 221.105469 L 273.089844 220.976562 L 275.6875 216.21875 L 275.941406 216.347656 L 275.777344 216.648438 C 275.632812 216.914062 275.566406 217.152344 275.574219 217.363281 C 275.574219 217.515625 275.640625 217.660156 275.761719 217.804688 C 275.839844 217.910156 276.117188 218.082031 276.589844 218.328125 L 282.738281 221.511719 C 283.214844 221.757812 283.527344 221.886719 283.671875 221.902344 C 283.820312 221.914062 283.976562 221.867188 284.148438 221.765625 C 284.316406 221.660156 284.476562 221.480469 284.617188 221.226562 L 284.78125 220.925781 L 285.035156 221.054688 L 282.4375 225.8125 L 282.179688 225.683594 L 282.34375 225.382812 C 282.492188 225.117188 282.558594 224.878906 282.550781 224.667969 C 282.546875 224.515625 282.488281 224.371094 282.367188 224.21875 C 282.285156 224.113281 282.007812 223.941406 281.539062 223.699219 L 278.894531 222.328125 L 277.140625 225.542969 L 279.785156 226.914062 C 280.261719 227.160156 280.574219 227.289062 280.71875 227.304688 C 280.867188 227.316406 281.023438 227.269531 281.199219 227.164062 C 281.371094 227.058594 281.53125 226.878906 281.667969 226.621094 L 281.828125 226.324219 L 282.085938 226.457031 L 279.488281 231.210938 L 279.230469 231.078125 L 279.394531 230.785156 C 279.539062 230.519531 279.609375 230.277344 279.597656 230.074219 C 279.59375 229.921875 279.53125 229.773438 279.417969 229.625 C 279.332031 229.519531 279.054688 229.34375 278.585938 229.101562 L 272.441406 225.917969 C 271.960938 225.671875 271.648438 225.542969 271.503906 225.527344 C 271.351562 225.515625 271.195312 225.5625 271.023438 225.667969 C 270.847656 225.777344 270.691406 225.953125 270.554688 226.210938 L 270.394531 226.503906 L 270.140625 226.371094 L 272.738281 221.617188 L 272.992188 221.75 L 272.828125 222.046875 C 272.683594 222.3125 272.617188 222.550781 272.625 222.761719 C 272.625 222.90625 272.691406 223.058594 272.808594 223.207031 C 272.894531 223.3125 273.164062 223.488281 273.636719 223.730469 L 276.53125 225.230469 Z M 288.320312 213.542969 L 280.773438 210.269531 C 280.375 210.09375 280.121094 210.011719 280.015625 210.003906 C 279.90625 210.003906 279.808594 210.035156 279.722656 210.101562 C 279.589844 210.195312 279.476562 210.363281 279.367188 210.601562 C 279.015625 211.375 279.015625 212.078125 279.371094 212.726562 C 279.851562 213.59375 280.859375 214.363281 282.398438 215.035156 C 283.640625 215.574219 284.71875 215.8125 285.636719 215.757812 C 286.351562 215.707031 286.921875 215.492188 287.347656 215.109375 C 287.648438 214.839844 287.96875 214.320312 288.320312 213.542969 Z M 280.839844 205.996094 L 281.101562 206.109375 L 280.957031 206.421875 C 280.835938 206.695312 280.78125 206.925781 280.804688 207.109375 C 280.828125 207.292969 280.894531 207.449219 281.019531 207.585938 C 281.097656 207.671875 281.390625 207.824219 281.886719 208.042969 L 288.246094 210.796875 C 288.742188 211.011719 289.0625 211.121094 289.210938 211.121094 C 289.359375 211.125 289.507812 211.070312 289.675781 210.953125 C 289.835938 210.84375 289.984375 210.652344 290.097656 210.386719 L 290.246094 210.074219 L 290.507812 210.1875 L 288.582031 214.402344 C 288.066406 215.527344 287.496094 216.363281 286.871094 216.914062 C 286.101562 217.585938 285.230469 217.96875 284.25 218.066406 C 283.269531 218.15625 282.292969 217.992188 281.308594 217.566406 C 280.625 217.273438 280.050781 216.894531 279.574219 216.433594 C 279.097656 215.96875 278.753906 215.488281 278.53125 214.992188 C 278.3125 214.488281 278.191406 213.972656 278.167969 213.429688 C 278.144531 212.890625 278.214844 212.273438 278.386719 211.582031 C 278.457031 211.277344 278.632812 210.816406 278.90625 210.207031 Z M 293.664062 202.6875 L 285.660156 205.144531 L 289.910156 206.734375 C 290.503906 206.957031 290.9375 207.023438 291.210938 206.9375 C 291.582031 206.816406 291.867188 206.484375 292.070312 205.945312 L 292.34375 206.046875 L 291.089844 209.226562 L 290.816406 209.125 C 290.925781 208.699219 290.964844 208.398438 290.929688 208.226562 C 290.902344 208.054688 290.808594 207.890625 290.644531 207.746094 C 290.488281 207.59375 290.167969 207.433594 289.703125 207.257812 L 281.472656 204.179688 L 281.570312 203.9375 L 292.363281 200.507812 L 286.078125 198.15625 C 285.511719 197.949219 285.078125 197.929688 284.777344 198.109375 C 284.480469 198.285156 284.265625 198.542969 284.136719 198.863281 L 284.046875 199.09375 L 283.777344 198.992188 L 285.125 195.578125 L 285.390625 195.679688 C 285.1875 196.207031 285.152344 196.621094 285.289062 196.910156 C 285.429688 197.199219 285.757812 197.445312 286.28125 197.640625 L 293.257812 200.25 L 293.605469 200.140625 C 293.945312 200.03125 294.1875 199.917969 294.332031 199.792969 C 294.480469 199.667969 294.613281 199.460938 294.738281 199.171875 L 295.007812 199.269531 Z M 293.664062 202.6875 "/>
<path style="fill-rule:evenodd;fill:rgb(0%,63.137255%,89.019608%);fill-opacity:1;stroke-width:0.216;stroke-linecap:butt;stroke-linejoin:miter;stroke:rgb(0%,63.137255%,89.019608%);stroke-opacity:1;stroke-miterlimit:2.6131;" d="M 150.893555 269.556102 L 152.091064 273.925406 L 155.965576 273.925406 L 152.830811 276.628981 L 154.02832 281.001978 L 150.893555 278.302096 L 147.755127 281.001978 L 148.952637 276.628981 L 145.817871 273.925406 L 149.692383 273.925406 Z M 150.893555 269.556102 " transform="matrix(1.066667,0,0,1.057627,0,0)"/>
<path style="fill-rule:evenodd;fill:rgb(0%,63.137255%,89.019608%);fill-opacity:1;stroke-width:0.216;stroke-linecap:butt;stroke-linejoin:miter;stroke:rgb(0%,63.137255%,89.019608%);stroke-opacity:1;stroke-miterlimit:2.6131;" d="M 167.680664 268.30773 L 168.874512 272.677033 L 172.752686 272.677033 L 169.614258 275.380609 L 170.811768 279.749912 L 167.680664 277.05003 L 164.542236 279.749912 L 165.739746 275.380609 L 162.60498 272.677033 L 166.479492 272.677033 Z M 167.680664 268.30773 " transform="matrix(1.066667,0,0,1.057627,0,0)"/>
<path style="fill-rule:evenodd;fill:rgb(0%,63.137255%,89.019608%);fill-opacity:1;stroke-width:0.216;stroke-linecap:butt;stroke-linejoin:miter;stroke:rgb(0%,63.137255%,89.019608%);stroke-opacity:1;stroke-miterlimit:2.6131;" d="M 184.042969 265.249587 L 185.240479 269.622584 L 189.118652 269.622584 L 185.980225 272.326159 L 187.181396 276.699156 L 184.042969 273.99558 L 180.904541 276.699156 L 182.102051 272.326159 L 178.967285 269.622584 L 182.841797 269.622584 Z M 184.042969 265.249587 " transform="matrix(1.066667,0,0,1.057627,0,0)"/>
<path style="fill-rule:evenodd;fill:rgb(0%,63.137255%,89.019608%);fill-opacity:1;stroke-width:0.216;stroke-linecap:butt;stroke-linejoin:miter;stroke:rgb(0%,63.137255%,89.019608%);stroke-opacity:1;stroke-miterlimit:2.6131;" d="M 134.388428 268.30773 L 135.5896 272.677033 L 139.464111 272.677033 L 136.329346 275.380609 L 137.523193 279.749912 L 134.388428 277.05003 L 131.25 279.749912 L 132.451172 275.380609 L 129.312744 272.677033 L 133.190918 272.677033 Z M 134.388428 268.30773 " transform="matrix(1.066667,0,0,1.057627,0,0)"/>
<path style="fill-rule:evenodd;fill:rgb(0%,63.137255%,89.019608%);fill-opacity:1;stroke-width:0.216;stroke-linecap:butt;stroke-linejoin:miter;stroke:rgb(0%,63.137255%,89.019608%);stroke-opacity:1;stroke-miterlimit:2.6131;" d="M 117.037354 265.112931 L 118.238525 269.482234 L 122.113037 269.482234 L 118.978271 272.18581 L 120.175781 276.558807 L 117.037354 273.858924 L 113.902588 276.558807 L 115.100098 272.18581 L 111.965332 269.482234 L 115.839844 269.482234 Z M 117.037354 265.112931 " transform="matrix(1.066667,0,0,1.057627,0,0)"/>
<path style=" stroke:none;fill-rule:evenodd;fill:rgb(89.019608%,12.156863%,14.117647%);fill-opacity:1;" d="M 160 146.449219 C 165.300781 146.449219 169.601562 150.632812 169.601562 155.792969 C 169.601562 160.957031 165.300781 165.140625 160 165.140625 C 154.699219 165.140625 150.402344 160.957031 150.402344 155.792969 C 150.402344 150.632812 154.699219 146.449219 160 146.449219 "/>
<path style=" stroke:none;fill-rule:evenodd;fill:rgb(0%,63.137255%,89.019608%);fill-opacity:1;" d="M 138.871094 150.902344 C 93.277344 141.5 87.183594 112.003906 92.863281 80.921875 C 81.171875 114.152344 87.640625 144.300781 132.292969 157.535156 C 103.433594 183.21875 108.617188 206.609375 129.269531 228.964844 C 111.28125 196.429688 115.386719 177.09375 139.402344 162.640625 C 138.488281 158.84375 137.839844 155.039062 138.871094 150.902344 "/>
<path style=" stroke:none;fill-rule:evenodd;fill:rgb(0%,63.137255%,89.019608%);fill-opacity:1;" d="M 181.023438 148.34375 C 217.371094 129.40625 202.507812 100.328125 191.167969 79.609375 C 210.070312 93.789062 222.800781 130.871094 188.398438 152.882812 C 222.355469 160.753906 245.707031 183.457031 227.125 229.066406 C 237.316406 193.46875 214.949219 161.003906 182.886719 158.335938 C 182.917969 154.4375 182.960938 152.15625 181.023438 148.34375 "/>
<path style=" stroke:none;fill-rule:evenodd;fill:rgb(0%,63.137255%,89.019608%);fill-opacity:1;" d="M 152.667969 134.652344 C 137.011719 91.910156 164.648438 71.804688 194.8125 60.234375 C 159.621094 67.9375 131.613281 88.699219 143.421875 132.671875 C 105.839844 122.183594 88.089844 138.738281 79.355469 167.578125 C 98.398438 135.613281 117.460938 128.890625 142.683594 141.238281 C 145.523438 138.496094 148.511719 135.964844 152.667969 134.652344 "/>
<path style=" stroke:none;fill-rule:evenodd;fill:rgb(0%,63.137255%,89.019608%);fill-opacity:1;" d="M 174.34375 139.425781 C 203.976562 104.398438 234.273438 117.582031 259.953125 136.851562 C 235.097656 111.398438 204.03125 98.238281 171.34375 130.679688 C 162.390625 92.820312 140.769531 83.207031 110.25 91.3125 C 148.195312 90.820312 161.347656 107.042969 163.414062 134.460938 C 167.289062 135.425781 171.054688 136.625 174.34375 139.425781 "/>
<path style=" stroke:none;fill-rule:evenodd;fill:rgb(0%,63.137255%,89.019608%);fill-opacity:1;" d="M 155.644531 176.640625 C 161.402344 219.300781 186.199219 213.996094 211.1875 219.175781 C 187.320312 220.722656 160.675781 226.578125 148.710938 180.457031 C 125.898438 208.050781 80.625 206.125 61.328125 175.644531 C 88.972656 206.734375 128.003906 196.035156 146.152344 172.230469 C 149.515625 174.332031 151.296875 176.203125 155.644531 176.640625 "/>
<path style=" stroke:none;fill-rule:evenodd;fill:rgb(0%,63.137255%,89.019608%);fill-opacity:1;" d="M 173.289062 169.707031 C 214.09375 186.214844 222.351562 164.011719 239.464844 145.539062 C 228.890625 166.433594 220.199219 190.472656 173.210938 177.460938 C 186.316406 210.507812 164.820312 247.386719 128.0625 248.390625 C 169.542969 240.65625 176.6875 202.714844 164.617188 175.5 C 168.167969 173.71875 170.722656 173.15625 173.289062 169.707031 "/>
<path style=" stroke:none;fill-rule:evenodd;fill:rgb(89.019608%,12.156863%,14.117647%);fill-opacity:1;" d="M 96.785156 71.765625 C 99.765625 71.765625 102.183594 74.121094 102.183594 77.023438 C 102.183594 79.925781 99.765625 82.277344 96.785156 82.277344 C 93.804688 82.277344 91.390625 79.921875 91.390625 77.023438 C 91.390625 74.121094 93.804688 71.765625 96.785156 71.765625 "/>
<path style=" stroke:none;fill-rule:evenodd;fill:rgb(89.019608%,12.156863%,14.117647%);fill-opacity:1;" d="M 199.851562 56.78125 C 202.832031 56.78125 205.246094 59.132812 205.246094 62.035156 C 205.246094 64.9375 202.832031 67.289062 199.851562 67.289062 C 196.871094 67.289062 194.453125 64.9375 194.453125 62.035156 C 194.453125 59.132812 196.871094 56.78125 199.851562 56.78125 "/>
<path style=" stroke:none;fill-rule:evenodd;fill:rgb(89.019608%,12.156863%,14.117647%);fill-opacity:1;" d="M 261.949219 136.089844 C 264.929688 136.089844 267.347656 138.441406 267.347656 141.34375 C 267.347656 144.246094 264.929688 146.601562 261.949219 146.601562 C 258.96875 146.601562 256.550781 144.246094 256.550781 141.34375 C 256.550781 138.441406 258.96875 136.089844 261.949219 136.089844 "/>
<path style=" stroke:none;fill-rule:evenodd;fill:rgb(89.019608%,12.156863%,14.117647%);fill-opacity:1;" d="M 224.175781 227.890625 C 227.160156 227.890625 229.574219 230.242188 229.574219 233.144531 C 229.574219 236.046875 227.160156 238.402344 224.175781 238.402344 C 221.195312 238.402344 218.78125 236.046875 218.78125 233.144531 C 218.78125 230.242188 221.195312 227.890625 224.175781 227.890625 "/>
<path style=" stroke:none;fill-rule:evenodd;fill:rgb(89.019608%,12.156863%,14.117647%);fill-opacity:1;" d="M 123.03125 242.253906 C 126.011719 242.253906 128.429688 244.605469 128.429688 247.507812 C 128.429688 250.410156 126.011719 252.761719 123.03125 252.761719 C 120.050781 252.761719 117.636719 250.410156 117.636719 247.507812 C 117.636719 244.605469 120.050781 242.253906 123.03125 242.253906 "/>
<path style=" stroke:none;fill-rule:evenodd;fill:rgb(89.019608%,12.156863%,14.117647%);fill-opacity:1;" d="M 59.65625 165.441406 C 62.636719 165.441406 65.054688 167.792969 65.054688 170.695312 C 65.054688 173.597656 62.636719 175.949219 59.65625 175.949219 C 56.675781 175.949219 54.261719 173.597656 54.261719 170.695312 C 54.261719 167.792969 56.675781 165.441406 59.65625 165.441406 "/>
<path style=" stroke:none;fill-rule:evenodd;fill:rgb(0%,63.137255%,89.019608%);fill-opacity:1;" d="M 160 0 C 248.351562 0 320 69.765625 320 155.792969 C 320 241.828125 248.351562 311.589844 160 311.589844 C 71.648438 311.585938 0 241.824219 0 155.792969 C 0 69.765625 71.648438 0 160 0 M 160 5.734375 C 245.101562 5.734375 314.109375 72.933594 314.109375 155.792969 C 314.109375 238.660156 245.101562 305.855469 160 305.855469 C 74.902344 305.855469 5.890625 238.660156 5.890625 155.792969 C 5.890625 72.933594 74.902344 5.734375 160 5.734375 Z M 160 5.734375 "/>
<path style=" stroke:none;fill-rule:evenodd;fill:rgb(0%,63.137255%,89.019608%);fill-opacity:1;" d="M 160 40.617188 C 225.320312 40.617188 278.285156 92.191406 278.285156 155.792969 C 278.285156 219.398438 225.316406 270.976562 160 270.976562 C 94.679688 270.976562 41.714844 219.394531 41.714844 155.792969 C 41.714844 92.191406 94.679688 40.617188 160 40.617188 M 160 44.855469 C 222.914062 44.855469 273.933594 94.535156 273.933594 155.792969 C 273.933594 217.058594 222.914062 266.734375 160 266.734375 C 97.085938 266.734375 46.066406 217.058594 46.066406 155.792969 C 46.066406 94.535156 97.085938 44.855469 160 44.855469 Z M 160 44.855469 "/>
</g>
</svg>
