<?xml version="1.0" encoding="UTF-8"?>
<svg xmlns="http://www.w3.org/2000/svg" xmlns:xlink="http://www.w3.org/1999/xlink" width="320px" height="312px" viewBox="0 0 320 312" version="1.1">
<g id="surface1">
<path style=" stroke:none;fill-rule:nonzero;fill:rgb(47.058824%,12.156863%,9.803922%);fill-opacity:1;" d="M 319.921875 155.960938 C 319.921875 242.09375 248.304688 311.925781 159.960938 311.925781 C 71.617188 311.925781 0 242.09375 0 155.960938 C 0 69.824219 71.617188 0 159.960938 0 C 248.304688 0 319.921875 69.824219 319.921875 155.960938 "/>
<path style=" stroke:none;fill-rule:nonzero;fill:rgb(83.921569%,65.098039%,30.980392%);fill-opacity:1;" d="M 283.40625 155.960938 C 283.40625 222.433594 228.136719 276.320312 159.960938 276.320312 C 91.785156 276.320312 36.515625 222.433594 36.515625 155.960938 C 36.515625 89.492188 91.785156 35.605469 159.960938 35.605469 C 228.136719 35.605469 283.40625 89.492188 283.40625 155.960938 "/>
<path style="fill:none;stroke-width:0.75;stroke-linecap:butt;stroke-linejoin:miter;stroke:rgb(100%,100%,100%);stroke-opacity:1;stroke-miterlimit:10;" d="M 252.535735 225.591962 C 252.535735 210.248431 240.097101 197.810045 224.753863 197.810045 C 209.410625 197.810045 196.971991 210.248431 196.971991 225.591962 C 196.971991 240.934592 209.410625 253.372978 224.753863 253.372978 C 240.097101 253.372978 252.535735 240.934592 252.535735 225.591962 Z M 252.535735 225.591962 " transform="matrix(4.443376,0,0,-4.332292,-838.705056,1133.291172)"/>
<path style=" stroke:none;fill-rule:nonzero;fill:rgb(100%,100%,100%);fill-opacity:1;" d="M 53.054688 259.5625 C 53.054688 259.5625 66.328125 246.328125 66.328125 246.328125 C 66.328125 246.328125 69.386719 249.246094 69.386719 249.246094 C 69.386719 249.246094 56.113281 262.480469 56.113281 262.480469 C 56.113281 262.480469 53.054688 259.5625 53.054688 259.5625 "/>
<path style=" stroke:none;fill-rule:nonzero;fill:rgb(100%,100%,100%);fill-opacity:1;" d="M 62.441406 242.644531 C 62.441406 242.644531 47.683594 254.292969 47.683594 254.292969 C 47.683594 254.292969 44.527344 250.488281 44.527344 250.488281 C 44.527344 250.488281 47.457031 243.234375 47.457031 243.234375 C 48.304688 241.152344 49.449219 238.867188 50.5625 236.894531 C 50.5625 236.894531 50.527344 236.851562 50.527344 236.851562 C 48.738281 238.582031 46.800781 240.21875 44.566406 241.980469 C 44.566406 241.980469 40.277344 245.367188 40.277344 245.367188 C 40.277344 245.367188 37.792969 242.378906 37.792969 242.378906 C 37.792969 242.378906 52.554688 230.734375 52.554688 230.734375 C 52.554688 230.734375 55.386719 234.148438 55.386719 234.148438 C 55.386719 234.148438 52.246094 241.714844 52.246094 241.714844 C 51.355469 243.832031 50.269531 246.277344 49.109375 248.324219 C 49.109375 248.324219 49.175781 248.410156 49.175781 248.410156 C 51.0625 246.75 53.105469 245.066406 55.511719 243.164062 C 55.511719 243.164062 59.957031 239.65625 59.957031 239.65625 C 59.957031 239.65625 62.441406 242.644531 62.441406 242.644531 "/>
<path style=" stroke:none;fill-rule:nonzero;fill:rgb(100%,100%,100%);fill-opacity:1;" d="M 44.539062 224.308594 C 44.429688 223.957031 44.125 223.433594 43.875 223.003906 C 41.953125 219.675781 38.824219 218.542969 34.886719 220.738281 C 31.339844 222.714844 30.800781 225.609375 32.644531 228.761719 C 33.109375 229.542969 33.503906 230.054688 33.757812 230.324219 C 33.757812 230.324219 44.539062 224.308594 44.539062 224.308594 Z M 33.242188 235.417969 C 32.214844 234.21875 31.074219 232.546875 30.007812 230.734375 C 28.203125 227.660156 27.542969 225.371094 27.847656 223.179688 C 28.140625 220.796875 29.578125 218.605469 32.511719 216.96875 C 35.667969 215.210938 38.5 215.117188 40.742188 215.890625 C 43.175781 216.777344 45.382812 218.996094 47.230469 222.144531 C 48.335938 224.027344 49.011719 225.453125 49.40625 226.40625 C 49.40625 226.40625 33.242188 235.417969 33.242188 235.417969 "/>
<path style=" stroke:none;fill-rule:nonzero;fill:rgb(100%,100%,100%);fill-opacity:1;" d="M 20.324219 211.386719 C 20.324219 211.386719 37.800781 204.15625 37.800781 204.15625 C 37.800781 204.15625 39.472656 208 39.472656 208 C 39.472656 208 21.996094 215.230469 21.996094 215.230469 C 21.996094 215.230469 20.324219 211.386719 20.324219 211.386719 "/>
<path style=" stroke:none;fill-rule:nonzero;fill:rgb(100%,100%,100%);fill-opacity:1;" d="M 25.320312 192.875 C 25.320312 192.875 21.792969 195.09375 21.792969 195.09375 C 20.800781 195.695312 19.515625 196.40625 18.542969 196.972656 C 18.542969 196.972656 18.570312 197.050781 18.570312 197.050781 C 19.722656 196.976562 21.1875 196.871094 22.324219 196.835938 C 22.324219 196.835938 26.511719 196.804688 26.511719 196.804688 C 26.511719 196.804688 25.320312 192.878906 25.320312 192.878906 Z M 29.765625 196.496094 C 29.765625 196.496094 34.816406 196.390625 34.816406 196.390625 C 34.816406 196.390625 36.074219 200.550781 36.074219 200.550781 C 36.074219 200.550781 16.222656 200.363281 16.222656 200.363281 C 16.222656 200.363281 14.636719 195.121094 14.636719 195.121094 C 14.636719 195.121094 31.171875 184.351562 31.171875 184.351562 C 31.171875 184.351562 32.480469 188.671875 32.480469 188.671875 C 32.480469 188.671875 28.222656 191.382812 28.222656 191.382812 C 28.222656 191.382812 29.765625 196.496094 29.765625 196.496094 "/>
<path style=" stroke:none;fill-rule:nonzero;fill:rgb(100%,100%,100%);fill-opacity:1;" d="M 30.355469 180.320312 C 30.355469 180.320312 11.53125 182.710938 11.53125 182.710938 C 11.53125 182.710938 10.882812 177.863281 10.882812 177.863281 C 10.882812 177.863281 17.273438 173.175781 17.273438 173.175781 C 19.109375 171.832031 21.3125 170.472656 23.324219 169.359375 C 23.324219 169.359375 23.320312 169.304688 23.320312 169.304688 C 20.867188 169.863281 18.335938 170.269531 15.488281 170.632812 C 15.488281 170.632812 10.011719 171.328125 10.011719 171.328125 C 10.011719 171.328125 9.5 167.515625 9.5 167.515625 C 9.5 167.515625 28.328125 165.125 28.328125 165.125 C 28.328125 165.125 28.910156 169.480469 28.910156 169.480469 C 28.910156 169.480469 22.171875 174.324219 22.171875 174.324219 C 20.28125 175.675781 18.039062 177.203125 15.949219 178.355469 C 15.949219 178.355469 15.96875 178.464844 15.96875 178.464844 C 18.460938 178.007812 21.109375 177.617188 24.183594 177.226562 C 24.183594 177.226562 29.851562 176.507812 29.851562 176.507812 C 29.851562 176.507812 30.359375 180.320312 30.359375 180.320312 "/>
<path style=" stroke:none;fill-rule:nonzero;fill:rgb(100%,100%,100%);fill-opacity:1;" d="M 9.46875 147.664062 C 9.46875 147.664062 28.4375 148.4375 28.4375 148.4375 C 28.4375 148.4375 28.257812 152.609375 28.257812 152.609375 C 28.257812 152.609375 9.289062 151.835938 9.289062 151.835938 C 9.289062 151.835938 9.46875 147.664062 9.46875 147.664062 "/>
<path style=" stroke:none;fill-rule:nonzero;fill:rgb(100%,100%,100%);fill-opacity:1;" d="M 28.648438 143.121094 C 28.648438 143.121094 9.898438 140.203125 9.898438 140.203125 C 9.898438 140.203125 10.6875 135.375 10.6875 135.375 C 10.6875 135.375 18.179688 132.648438 18.179688 132.648438 C 20.332031 131.871094 22.84375 131.175781 25.09375 130.664062 C 25.09375 130.664062 25.105469 130.609375 25.105469 130.609375 C 22.589844 130.46875 20.046875 130.15625 17.210938 129.714844 C 17.210938 129.714844 11.753906 128.867188 11.753906 128.867188 C 11.753906 128.867188 12.378906 125.070312 12.378906 125.070312 C 12.378906 125.070312 31.125 127.988281 31.125 127.988281 C 31.125 127.988281 30.414062 132.328125 30.414062 132.328125 C 30.414062 132.328125 22.546875 135.105469 22.546875 135.105469 C 20.335938 135.875 17.742188 136.722656 15.402344 137.25 C 15.402344 137.25 15.386719 137.359375 15.386719 137.359375 C 17.914062 137.613281 20.5625 137.96875 23.621094 138.445312 C 23.621094 138.445312 29.269531 139.324219 29.269531 139.324219 C 29.269531 139.324219 28.648438 143.121094 28.648438 143.121094 "/>
<path style=" stroke:none;fill-rule:nonzero;fill:rgb(100%,100%,100%);fill-opacity:1;" d="M 28.359375 121.46875 C 29.261719 120.59375 30.363281 119.089844 30.914062 117.382812 C 31.503906 115.550781 31.035156 114.34375 29.824219 113.972656 C 28.722656 113.636719 27.78125 114.269531 26.34375 116.164062 C 24.328125 118.769531 22.039062 120.203125 19.378906 119.390625 C 16.285156 118.445312 14.761719 115.1875 16.09375 111.046875 C 16.742188 109.027344 17.609375 107.710938 18.457031 106.816406 C 18.457031 106.816406 21.449219 108.710938 21.449219 108.710938 C 20.878906 109.285156 19.957031 110.414062 19.410156 112.117188 C 18.855469 113.847656 19.417969 114.941406 20.332031 115.21875 C 21.488281 115.570312 22.3125 114.757812 23.964844 112.730469 C 26.148438 109.972656 28.28125 109.039062 30.859375 109.828125 C 33.898438 110.757812 35.753906 113.796875 34.199219 118.648438 C 33.546875 120.664062 32.34375 122.484375 31.460938 123.308594 C 31.460938 123.308594 28.359375 121.46875 28.359375 121.46875 "/>
<path style=" stroke:none;fill-rule:nonzero;fill:rgb(100%,100%,100%);fill-opacity:1;" d="M 25.480469 97.707031 C 25.480469 97.707031 23.324219 102.242188 23.324219 102.242188 C 23.324219 102.242188 20.054688 100.769531 20.054688 100.769531 C 20.054688 100.769531 26.183594 87.855469 26.183594 87.855469 C 26.183594 87.855469 29.453125 89.332031 29.453125 89.332031 C 29.453125 89.332031 27.277344 93.917969 27.277344 93.917969 C 27.277344 93.917969 41.234375 100.214844 41.234375 100.214844 C 41.234375 100.214844 39.441406 104.003906 39.441406 104.003906 C 39.441406 104.003906 25.480469 97.707031 25.480469 97.707031 "/>
<path style=" stroke:none;fill-rule:nonzero;fill:rgb(100%,100%,100%);fill-opacity:1;" d="M 31.386719 79.226562 C 31.386719 79.226562 47.710938 88.675781 47.710938 88.675781 C 47.710938 88.675781 45.527344 92.265625 45.527344 92.265625 C 45.527344 92.265625 29.199219 82.816406 29.199219 82.816406 C 29.199219 82.816406 31.386719 79.226562 31.386719 79.226562 "/>
<path style=" stroke:none;fill-rule:nonzero;fill:rgb(100%,100%,100%);fill-opacity:1;" d="M 40.398438 72.355469 C 40.398438 72.355469 37.347656 76.371094 37.347656 76.371094 C 37.347656 76.371094 34.449219 74.277344 34.449219 74.277344 C 34.449219 74.277344 43.136719 62.847656 43.136719 62.847656 C 43.136719 62.847656 46.03125 64.9375 46.03125 64.9375 C 46.03125 64.9375 42.949219 69 42.949219 69 C 42.949219 69 55.308594 77.925781 55.308594 77.925781 C 55.308594 77.925781 52.757812 81.28125 52.757812 81.28125 C 52.757812 81.28125 40.398438 72.355469 40.398438 72.355469 "/>
<path style=" stroke:none;fill-rule:nonzero;fill:rgb(100%,100%,100%);fill-opacity:1;" d="M 50.472656 54.921875 C 50.472656 54.921875 58.214844 62.40625 58.214844 62.40625 C 60.554688 64.664062 62.628906 64.929688 64.15625 63.425781 C 65.742188 61.867188 65.492188 59.925781 63.09375 57.605469 C 63.09375 57.605469 55.351562 50.121094 55.351562 50.121094 C 55.351562 50.121094 58.367188 47.160156 58.367188 47.160156 C 58.367188 47.160156 65.925781 54.464844 65.925781 54.464844 C 70.089844 58.488281 69.988281 62.449219 66.496094 65.882812 C 63.125 69.199219 59.261719 69.292969 54.980469 65.15625 C 54.980469 65.15625 47.457031 57.886719 47.457031 57.886719 C 47.457031 57.886719 50.472656 54.921875 50.472656 54.921875 "/>
<path style=" stroke:none;fill-rule:nonzero;fill:rgb(100%,100%,100%);fill-opacity:1;" d="M 69.714844 42.664062 C 69.714844 42.664062 65.625 45.671875 65.625 45.671875 C 65.625 45.671875 63.453125 42.867188 63.453125 42.867188 C 63.453125 42.867188 75.101562 34.300781 75.101562 34.300781 C 75.101562 34.300781 77.273438 37.105469 77.273438 37.105469 C 77.273438 37.105469 73.136719 40.148438 73.136719 40.148438 C 73.136719 40.148438 82.394531 52.121094 82.394531 52.121094 C 82.394531 52.121094 78.980469 54.632812 78.980469 54.632812 C 78.980469 54.632812 69.714844 42.664062 69.714844 42.664062 "/>
<path style=" stroke:none;fill-rule:nonzero;fill:rgb(100%,100%,100%);fill-opacity:1;" d="M 95.746094 34.78125 C 95.746094 34.78125 89.675781 38.15625 89.675781 38.15625 C 89.675781 38.15625 91.90625 41.972656 91.90625 41.972656 C 91.90625 41.972656 98.6875 38.207031 98.6875 38.207031 C 98.6875 38.207031 100.429688 41.1875 100.429688 41.1875 C 100.429688 41.1875 89.929688 47.023438 89.929688 47.023438 C 89.929688 47.023438 80.527344 30.941406 80.527344 30.941406 C 80.527344 30.941406 90.683594 25.296875 90.683594 25.296875 C 90.683594 25.296875 92.425781 28.277344 92.425781 28.277344 C 92.425781 28.277344 85.992188 31.855469 85.992188 31.855469 C 85.992188 31.855469 87.945312 35.195312 87.945312 35.195312 C 87.945312 35.195312 94.015625 31.824219 94.015625 31.824219 C 94.015625 31.824219 95.746094 34.78125 95.746094 34.78125 "/>
<path style=" stroke:none;fill-rule:nonzero;fill:rgb(100%,100%,100%);fill-opacity:1;" d="M 118.25 30.917969 C 121.011719 30.042969 121.75 27.007812 120.597656 23.5625 C 119.542969 20.398438 117.113281 18.167969 114.300781 19.058594 C 111.484375 19.949219 110.796875 23.117188 111.890625 26.40625 C 113 29.726562 115.492188 31.792969 118.226562 30.925781 C 118.226562 30.925781 118.25 30.917969 118.25 30.917969 Z M 119.121094 34.136719 C 113.789062 35.828125 109.3125 32.882812 107.640625 27.871094 C 105.882812 22.59375 108.046875 17.546875 113.351562 15.863281 C 118.898438 14.109375 123.273438 17.195312 124.894531 22.054688 C 126.828125 27.855469 124.421875 32.457031 119.148438 34.128906 C 119.148438 34.128906 119.121094 34.136719 119.121094 34.136719 "/>
<path style=" stroke:none;fill-rule:nonzero;fill:rgb(100%,100%,100%);fill-opacity:1;" d="M 129.242188 11.972656 C 129.242188 11.972656 140.65625 10.09375 140.65625 10.09375 C 140.65625 10.09375 141.242188 13.480469 141.242188 13.480469 C 141.242188 13.480469 134.046875 14.664062 134.046875 14.664062 C 134.046875 14.664062 134.769531 18.832031 134.769531 18.832031 C 134.769531 18.832031 141.492188 17.726562 141.492188 17.726562 C 141.492188 17.726562 142.074219 21.085938 142.074219 21.085938 C 142.074219 21.085938 135.351562 22.191406 135.351562 22.191406 C 135.351562 22.191406 136.625 29.53125 136.625 29.53125 C 136.625 29.53125 132.402344 30.226562 132.402344 30.226562 C 132.402344 30.226562 129.242188 11.972656 129.242188 11.972656 "/>
<path style=" stroke:none;fill-rule:nonzero;fill:rgb(100%,100%,100%);fill-opacity:1;" d="M 160.0625 12.515625 C 160.0625 12.515625 154.9375 12.433594 154.9375 12.433594 C 154.9375 12.433594 154.996094 8.917969 154.996094 8.917969 C 154.996094 8.917969 169.585938 9.148438 169.585938 9.148438 C 169.585938 9.148438 169.527344 12.664062 169.527344 12.664062 C 169.527344 12.664062 164.34375 12.582031 164.34375 12.582031 C 164.34375 12.582031 164.09375 27.574219 164.09375 27.574219 C 164.09375 27.574219 159.8125 27.507812 159.8125 27.507812 C 159.8125 27.507812 160.0625 12.515625 160.0625 12.515625 "/>
<path style=" stroke:none;fill-rule:nonzero;fill:rgb(100%,100%,100%);fill-opacity:1;" d="M 185.5625 21.871094 C 185.5625 21.871094 178.648438 20.902344 178.648438 20.902344 C 178.648438 20.902344 178.007812 25.25 178.007812 25.25 C 178.007812 25.25 185.730469 26.332031 185.730469 26.332031 C 185.730469 26.332031 185.230469 29.730469 185.230469 29.730469 C 185.230469 29.730469 173.269531 28.054688 173.269531 28.054688 C 173.269531 28.054688 175.964844 9.734375 175.964844 9.734375 C 175.964844 9.734375 187.539062 11.351562 187.539062 11.351562 C 187.539062 11.351562 187.035156 14.75 187.035156 14.75 C 187.035156 14.75 179.707031 13.726562 179.707031 13.726562 C 179.707031 13.726562 179.144531 17.53125 179.144531 17.53125 C 179.144531 17.53125 186.058594 18.496094 186.058594 18.496094 C 186.058594 18.496094 185.5625 21.871094 185.5625 21.871094 "/>
<path style=" stroke:none;fill-rule:nonzero;fill:rgb(100%,100%,100%);fill-opacity:1;" d="M 203.273438 33.894531 C 202.441406 34.035156 200.585938 33.976562 198.390625 33.367188 C 192.074219 31.621094 189.949219 26.863281 191.433594 21.765625 C 193.207031 15.6875 198.628906 13.5625 204.152344 15.089844 C 206.292969 15.683594 207.796875 16.558594 208.421875 17.132812 C 208.421875 17.132812 206.628906 20.0625 206.628906 20.0625 C 205.917969 19.492188 204.84375 18.851562 203.355469 18.4375 C 200.105469 17.539062 196.996094 18.761719 195.832031 22.753906 C 194.792969 26.320312 196.304688 29.164062 199.964844 30.179688 C 201.238281 30.53125 202.664062 30.667969 203.601562 30.558594 C 203.601562 30.558594 203.273438 33.894531 203.273438 33.894531 "/>
<path style=" stroke:none;fill-rule:nonzero;fill:rgb(100%,100%,100%);fill-opacity:1;" d="M 219.246094 20.78125 C 219.246094 20.78125 216.207031 27.277344 216.207031 27.277344 C 216.207031 27.277344 222.636719 30.140625 222.636719 30.140625 C 222.636719 30.140625 225.679688 23.644531 225.679688 23.644531 C 225.679688 23.644531 229.574219 25.375 229.574219 25.375 C 229.574219 25.375 221.695312 42.21875 221.695312 42.21875 C 221.695312 42.21875 217.800781 40.484375 217.800781 40.484375 C 217.800781 40.484375 221.082031 33.460938 221.082031 33.460938 C 221.082031 33.460938 214.652344 30.601562 214.652344 30.601562 C 214.652344 30.601562 211.367188 37.621094 211.367188 37.621094 C 211.367188 37.621094 207.46875 35.890625 207.46875 35.890625 C 207.46875 35.890625 215.351562 19.046875 215.351562 19.046875 C 215.351562 19.046875 219.246094 20.78125 219.246094 20.78125 "/>
<path style=" stroke:none;fill-rule:nonzero;fill:rgb(100%,100%,100%);fill-opacity:1;" d="M 226.457031 44.804688 C 226.457031 44.804688 237 29.40625 237 29.40625 C 237 29.40625 241.167969 32.121094 241.167969 32.121094 C 241.167969 32.121094 240.589844 39.898438 240.589844 39.898438 C 240.414062 42.128906 240.015625 44.644531 239.550781 46.855469 C 239.550781 46.855469 239.601562 46.882812 239.601562 46.882812 C 240.78125 44.714844 242.132812 42.589844 243.726562 40.257812 C 243.726562 40.257812 246.792969 35.78125 246.792969 35.78125 C 246.792969 35.78125 250.074219 37.914062 250.074219 37.914062 C 250.074219 37.914062 239.53125 53.3125 239.53125 53.3125 C 239.53125 53.3125 235.785156 50.875 235.785156 50.875 C 235.785156 50.875 236.476562 42.738281 236.476562 42.738281 C 236.683594 40.460938 236.972656 37.808594 237.457031 35.519531 C 237.457031 35.519531 237.363281 35.457031 237.363281 35.457031 C 236.074219 37.589844 234.632812 39.789062 232.914062 42.300781 C 232.914062 42.300781 229.742188 46.941406 229.742188 46.941406 C 229.742188 46.941406 226.457031 44.804688 226.457031 44.804688 "/>
<path style=" stroke:none;fill-rule:nonzero;fill:rgb(100%,100%,100%);fill-opacity:1;" d="M 251.96875 59.871094 C 254.085938 61.800781 257.164062 60.957031 259.707031 58.308594 C 262.03125 55.878906 262.855469 52.722656 260.691406 50.753906 C 258.535156 48.785156 255.355469 49.730469 252.9375 52.257812 C 250.492188 54.808594 249.84375 57.9375 251.945312 59.851562 C 251.945312 59.851562 251.964844 59.871094 251.964844 59.871094 Z M 249.496094 62.167969 C 245.398438 58.4375 245.871094 53.195312 249.5625 49.339844 C 253.445312 45.285156 259.023438 44.6875 263.105469 48.398438 C 267.363281 52.28125 266.710938 57.511719 263.136719 61.246094 C 258.867188 65.699219 253.574219 65.878906 249.515625 62.1875 C 249.515625 62.1875 249.496094 62.167969 249.496094 62.167969 "/>
<path style=" stroke:none;fill-rule:nonzero;fill:rgb(100%,100%,100%);fill-opacity:1;" d="M 274.214844 59.984375 C 274.214844 59.984375 276.894531 63.242188 276.894531 63.242188 C 276.894531 63.242188 264.898438 72.628906 264.898438 72.628906 C 264.898438 72.628906 269.625 78.367188 269.625 78.367188 C 269.625 78.367188 266.816406 80.570312 266.816406 80.570312 C 266.816406 80.570312 259.410156 71.574219 259.410156 71.574219 C 259.410156 71.574219 274.214844 59.984375 274.214844 59.984375 "/>
<path style=" stroke:none;fill-rule:nonzero;fill:rgb(100%,100%,100%);fill-opacity:1;" d="M 275.644531 88.402344 C 277.136719 90.828125 280.335938 90.84375 283.523438 88.976562 C 286.445312 87.265625 288.128906 84.453125 286.609375 81.984375 C 285.085938 79.511719 281.765625 79.5625 278.722656 81.34375 C 275.65625 83.140625 274.152344 85.976562 275.628906 88.375 C 275.628906 88.375 275.644531 88.402344 275.644531 88.402344 Z M 272.617188 89.949219 C 269.734375 85.261719 271.667969 80.347656 276.304688 77.632812 C 281.1875 74.777344 286.714844 75.703125 289.589844 80.367188 C 292.589844 85.242188 290.484375 90.09375 285.992188 92.722656 C 280.632812 95.859375 275.492188 94.609375 272.636719 89.972656 C 272.636719 89.972656 272.617188 89.949219 272.617188 89.949219 "/>
<path style=" stroke:none;fill-rule:nonzero;fill:rgb(100%,100%,100%);fill-opacity:1;" d="M 286.25 115.632812 C 285.339844 114.59375 283.84375 112.546875 282.914062 110.273438 C 281.636719 107.136719 281.523438 104.550781 282.421875 102.367188 C 283.335938 100.210938 285.285156 98.453125 287.875 97.449219 C 293.75 95.207031 298.796875 98.070312 301.09375 103.710938 C 302 105.933594 302.25 107.8125 302.199219 108.808594 C 302.199219 108.808594 298.648438 109.238281 298.648438 109.238281 C 298.707031 108.121094 298.554688 106.851562 297.785156 104.960938 C 296.464844 101.722656 293.574219 99.972656 289.75 101.453125 C 286.085938 102.871094 284.878906 105.9375 286.175781 109.132812 C 286.53125 110 286.925781 110.671875 287.179688 110.925781 C 287.179688 110.925781 290.902344 109.488281 290.902344 109.488281 C 290.902344 109.488281 289.820312 106.835938 289.820312 106.835938 C 289.820312 106.835938 292.933594 105.628906 292.933594 105.628906 C 292.933594 105.628906 295.542969 112.035156 295.542969 112.035156 C 295.542969 112.035156 286.25 115.632812 286.25 115.632812 "/>
<path style=" stroke:none;fill-rule:nonzero;fill:rgb(100%,100%,100%);fill-opacity:1;" d="M 287.828125 124.878906 C 287.828125 124.878906 295.402344 123.175781 295.402344 123.175781 C 295.402344 123.175781 304.980469 115.019531 304.980469 115.019531 C 304.980469 115.019531 306.089844 119.703125 306.089844 119.703125 C 306.089844 119.703125 302.070312 122.523438 302.070312 122.523438 C 300.859375 123.386719 299.96875 124.007812 298.859375 124.710938 C 298.859375 124.710938 298.871094 124.765625 298.871094 124.765625 C 300.117188 124.90625 301.289062 125.09375 302.734375 125.332031 C 302.734375 125.332031 307.613281 126.152344 307.613281 126.152344 C 307.613281 126.152344 308.691406 130.730469 308.691406 130.730469 C 308.691406 130.730469 296.5 127.210938 296.5 127.210938 C 296.5 127.210938 288.789062 128.945312 288.789062 128.945312 C 288.789062 128.945312 287.824219 124.878906 287.824219 124.878906 "/>
<path style=" stroke:none;fill-rule:nonzero;fill:rgb(100%,100%,100%);fill-opacity:1;" d="M 299.058594 161.230469 C 301.335938 161.113281 304.066406 160.984375 306.855469 160.941406 C 306.855469 160.941406 306.855469 160.882812 306.855469 160.882812 C 304.421875 160.320312 301.703125 159.59375 299.46875 158.914062 C 299.46875 158.914062 292.023438 156.78125 292.023438 156.78125 C 292.023438 156.78125 291.96875 153.511719 291.96875 153.511719 C 291.96875 153.511719 299.257812 151.421875 299.257812 151.421875 C 301.503906 150.78125 304.167969 150.132812 306.667969 149.628906 C 306.667969 149.628906 306.667969 149.570312 306.667969 149.570312 C 304.101562 149.527344 301.171875 149.46875 298.800781 149.394531 C 298.800781 149.394531 291.589844 149.152344 291.589844 149.152344 C 291.589844 149.152344 291.523438 145.277344 291.523438 145.277344 C 291.523438 145.277344 310.523438 146.160156 310.523438 146.160156 C 310.523438 146.160156 310.617188 151.734375 310.617188 151.734375 C 310.617188 151.734375 304.28125 153.648438 304.28125 153.648438 C 302.121094 154.285156 299.765625 154.875 297.550781 155.320312 C 297.550781 155.320312 297.550781 155.429688 297.550781 155.429688 C 299.753906 155.890625 302.242188 156.480469 304.394531 157.082031 C 304.394531 157.082031 310.738281 158.929688 310.738281 158.929688 C 310.738281 158.929688 310.828125 164.421875 310.828125 164.421875 C 310.828125 164.421875 291.859375 165.710938 291.859375 165.710938 C 291.859375 165.710938 291.796875 161.644531 291.796875 161.644531 C 291.796875 161.644531 299.058594 161.230469 299.058594 161.230469 "/>
<path style=" stroke:none;fill-rule:nonzero;fill:rgb(100%,100%,100%);fill-opacity:1;" d="M 297.480469 180.738281 C 297.480469 180.738281 301.652344 180.261719 301.652344 180.261719 C 302.8125 180.148438 304.285156 180.058594 305.414062 179.964844 C 305.414062 179.964844 305.429688 179.882812 305.429688 179.882812 C 304.359375 179.457031 303 178.921875 301.964844 178.476562 C 301.964844 178.476562 298.183594 176.707031 298.183594 176.707031 C 298.183594 176.707031 297.480469 180.738281 297.480469 180.738281 Z M 295.121094 175.585938 C 295.121094 175.585938 290.542969 173.515625 290.542969 173.515625 C 290.542969 173.515625 291.289062 169.238281 291.289062 169.238281 C 291.289062 169.238281 309.03125 177.921875 309.03125 177.921875 C 309.03125 177.921875 308.09375 183.308594 308.09375 183.308594 C 308.09375 183.308594 288.378906 185.886719 288.378906 185.886719 C 288.378906 185.886719 289.15625 181.449219 289.15625 181.449219 C 289.15625 181.449219 294.207031 180.835938 294.207031 180.835938 C 294.207031 180.835938 295.121094 175.585938 295.121094 175.585938 "/>
<path style=" stroke:none;fill-rule:nonzero;fill:rgb(100%,100%,100%);fill-opacity:1;" d="M 288.980469 194.882812 C 288.785156 195.195312 288.582031 195.765625 288.421875 196.234375 C 287.136719 199.84375 288.339844 202.878906 292.636719 204.300781 C 296.503906 205.578125 299.085938 204.054688 300.277344 200.621094 C 300.578125 199.765625 300.710938 199.136719 300.742188 198.773438 C 300.742188 198.773438 288.980469 194.882812 288.980469 194.882812 Z M 305 195.773438 C 304.761719 197.316406 304.234375 199.261719 303.546875 201.238281 C 302.378906 204.59375 301.058594 206.589844 299.171875 207.824219 C 297.152344 209.1875 294.511719 209.589844 291.308594 208.53125 C 287.871094 207.390625 285.921875 205.382812 285.03125 203.234375 C 284.105469 200.867188 284.34375 197.785156 285.535156 194.351562 C 286.25 192.296875 286.898438 190.859375 287.367188 189.941406 C 287.367188 189.941406 305 195.773438 305 195.773438 "/>
<path style=" stroke:none;fill-rule:nonzero;fill:rgb(100%,100%,100%);fill-opacity:1;" d="M 287.367188 217.84375 C 287.367188 217.84375 286.585938 219.308594 286.585938 219.308594 C 285.601562 221.160156 285.96875 222.738281 287.441406 223.484375 C 288.96875 224.253906 290.316406 223.636719 291.222656 221.929688 C 291.703125 221.027344 291.921875 220.492188 291.992188 220.183594 C 291.992188 220.183594 287.367188 217.84375 287.367188 217.84375 Z M 296.550781 217.824219 C 296.140625 219.128906 295.355469 220.960938 294.292969 222.957031 C 292.996094 225.398438 291.710938 226.914062 290.117188 227.589844 C 288.78125 228.183594 287.320312 228.128906 285.773438 227.34375 C 283.644531 226.269531 282.964844 224.035156 283.191406 222.355469 C 283.191406 222.355469 283.117188 222.316406 283.117188 222.316406 C 282.03125 223.21875 280.589844 223.300781 278.820312 222.925781 C 276.621094 222.464844 274.164062 221.839844 273.347656 221.828125 C 273.347656 221.828125 275.367188 218.027344 275.367188 218.027344 C 275.972656 218.023438 277.570312 218.304688 279.894531 218.890625 C 282.265625 219.503906 283.191406 219.070312 284.03125 217.550781 C 284.03125 217.550781 284.617188 216.453125 284.617188 216.453125 C 284.617188 216.453125 277.992188 213.101562 277.992188 213.101562 C 277.992188 213.101562 279.949219 209.417969 279.949219 209.417969 C 279.949219 209.417969 296.550781 217.820312 296.550781 217.820312 "/>
<path style=" stroke:none;fill-rule:nonzero;fill:rgb(100%,100%,100%);fill-opacity:1;" d="M 272.199219 237.285156 C 272.199219 237.285156 276.15625 238.65625 276.15625 238.65625 C 277.246094 239.054688 278.609375 239.609375 279.664062 240.011719 C 279.664062 240.011719 279.714844 239.945312 279.714844 239.945312 C 278.949219 239.101562 277.972656 238.035156 277.246094 237.1875 C 277.246094 237.1875 274.660156 233.972656 274.660156 233.972656 C 274.660156 233.972656 272.199219 237.285156 272.199219 237.285156 Z M 272.421875 231.644531 C 272.421875 231.644531 269.25 227.8125 269.25 227.8125 C 269.25 227.8125 271.863281 224.296875 271.863281 224.296875 C 271.863281 224.296875 283.835938 239.742188 283.835938 239.742188 C 283.835938 239.742188 280.550781 244.164062 280.550781 244.164062 C 280.550781 244.164062 261.703125 237.976562 261.703125 237.976562 C 261.703125 237.976562 264.410156 234.332031 264.410156 234.332031 C 264.410156 234.332031 269.21875 235.960938 269.21875 235.960938 C 269.21875 235.960938 272.421875 231.644531 272.421875 231.644531 "/>
<path style=" stroke:none;fill-rule:nonzero;fill:rgb(100%,100%,100%);fill-opacity:1;" d="M 261.894531 244.097656 C 260.683594 244.488281 259.007812 245.355469 257.738281 246.640625 C 256.371094 248.027344 256.234375 249.308594 257.148438 250.167969 C 257.980469 250.949219 259.113281 250.792969 261.261719 249.726562 C 264.265625 248.269531 266.964844 247.988281 268.976562 249.875 C 271.308594 252.066406 271.179688 255.640625 268.089844 258.769531 C 266.585938 260.289062 265.207031 261.089844 264.039062 261.519531 C 264.039062 261.519531 262.230469 258.527344 262.230469 258.527344 C 263 258.257812 264.34375 257.652344 265.613281 256.367188 C 266.902344 255.058594 266.902344 253.835938 266.210938 253.1875 C 265.335938 252.367188 264.230469 252.738281 261.820312 253.832031 C 258.601562 255.347656 256.269531 255.25 254.320312 253.421875 C 252.03125 251.269531 251.761719 247.738281 255.378906 244.078125 C 256.882812 242.558594 258.796875 241.457031 259.964844 241.101562 C 259.964844 241.101562 261.894531 244.097656 261.894531 244.097656 "/>
<path style=" stroke:none;fill-rule:nonzero;fill:rgb(100%,100%,100%);fill-opacity:1;" d="M 249.332031 266.199219 C 249.332031 267.710938 248.078125 268.933594 246.527344 268.933594 C 244.972656 268.933594 243.71875 267.710938 243.71875 266.199219 C 243.71875 264.6875 244.972656 263.460938 246.527344 263.460938 C 248.078125 263.460938 249.332031 264.6875 249.332031 266.199219 "/>
<path style=" stroke:none;fill-rule:nonzero;fill:rgb(100%,100%,100%);fill-opacity:1;" d="M 76.203125 266.199219 C 76.203125 267.710938 74.945312 268.933594 73.398438 268.933594 C 71.84375 268.933594 70.589844 267.710938 70.589844 266.199219 C 70.589844 264.6875 71.84375 263.457031 73.398438 263.457031 C 74.945312 263.457031 76.203125 264.6875 76.203125 266.199219 "/>
<path style=" stroke:none;fill-rule:nonzero;fill:rgb(100%,100%,100%);fill-opacity:1;" d="M 92.835938 229.648438 C 92.835938 229.648438 137.671875 237.453125 137.671875 237.453125 C 137.671875 237.453125 132.867188 242.917969 132.867188 242.917969 C 132.867188 242.917969 176.90625 246.660156 176.90625 246.660156 C 176.90625 246.660156 172.496094 250.171875 172.496094 250.171875 C 172.496094 250.171875 215.949219 252.03125 215.949219 252.03125 C 215.949219 252.03125 158.492188 257.589844 158.492188 257.589844 C 158.492188 257.589844 165.695312 251.34375 165.695312 251.34375 C 165.695312 251.34375 120.058594 246.820312 120.058594 246.820312 C 120.058594 246.820312 127.664062 241.359375 127.664062 241.359375 C 127.664062 241.359375 92.835938 229.648438 92.835938 229.648438 "/>
<path style=" stroke:none;fill-rule:nonzero;fill:rgb(100%,100%,100%);fill-opacity:1;" d="M 87.667969 267.660156 C 87.667969 267.660156 91.613281 269.914062 91.613281 269.914062 C 91.625 269.179688 91.722656 268.476562 91.902344 267.800781 C 92.082031 267.128906 92.351562 266.496094 92.703125 265.910156 C 93.253906 264.988281 94.097656 264.421875 95.230469 264.207031 C 96.359375 263.988281 97.453125 264.179688 98.511719 264.785156 C 99.8125 265.527344 100.886719 266.863281 101.738281 268.796875 C 102.589844 270.726562 103.121094 273.027344 103.335938 275.695312 C 103.335938 275.695312 102.527344 275.789062 102.527344 275.789062 C 102.355469 273.835938 101.859375 272.101562 101.035156 270.582031 C 100.214844 269.0625 99.144531 267.925781 97.824219 267.171875 C 97.085938 266.75 96.261719 266.714844 95.347656 267.050781 C 94.429688 267.390625 93.699219 268.023438 93.144531 268.9375 C 92.75 269.597656 92.519531 270.085938 92.457031 270.398438 C 92.457031 270.398438 94.007812 271.285156 94.007812 271.285156 C 94.007812 271.285156 94.292969 273.65625 94.292969 273.65625 C 94.292969 273.65625 92.171875 272.445312 92.171875 272.445312 C 92.171875 272.445312 84.886719 284.550781 84.886719 284.550781 C 84.886719 284.550781 83.460938 281.890625 83.460938 281.890625 C 83.460938 281.890625 89.921875 271.15625 89.921875 271.15625 C 89.921875 271.15625 87.933594 270.019531 87.933594 270.019531 C 87.933594 270.019531 87.667969 267.660156 87.667969 267.660156 "/>
<path style=" stroke:none;fill-rule:nonzero;fill:rgb(100%,100%,100%);fill-opacity:1;" d="M 97.933594 277.710938 C 97.742188 278.464844 97.441406 279.253906 97.03125 280.078125 C 97.300781 280.65625 97.609375 281.152344 97.960938 281.566406 C 98.308594 281.976562 98.6875 282.28125 99.097656 282.476562 C 99.527344 282.679688 100 282.777344 100.507812 282.769531 C 101.015625 282.761719 101.519531 282.648438 102.015625 282.433594 C 102.015625 282.433594 104.019531 278.40625 104.019531 278.40625 C 104.019531 278.40625 98.148438 275.625 98.148438 275.625 C 98.195312 276.265625 98.125 276.960938 97.933594 277.710938 Z M 98.453125 289.601562 C 98.453125 289.601562 100.730469 285.015625 100.730469 285.015625 C 100.566406 285.054688 100.335938 285.039062 100.039062 284.953125 C 99.742188 284.871094 99.386719 284.734375 98.976562 284.539062 C 98.351562 284.242188 97.808594 283.769531 97.347656 283.117188 C 96.886719 282.460938 96.539062 281.691406 96.308594 280.800781 C 95.757812 281.320312 95.160156 281.710938 94.519531 281.976562 C 93.875 282.238281 93.253906 282.335938 92.65625 282.265625 C 93.058594 284.480469 93.941406 286.730469 95.308594 289.003906 C 95.308594 289.003906 93.714844 289.664062 93.714844 289.664062 C 91.378906 283.132812 90.546875 279.199219 91.210938 277.863281 C 91.390625 277.496094 91.644531 277.242188 91.976562 277.089844 C 92.304688 276.9375 92.609375 276.929688 92.882812 277.058594 C 93.195312 277.210938 93.441406 277.460938 93.609375 277.828125 C 93.78125 278.191406 93.863281 278.621094 93.859375 279.113281 C 94.417969 279.117188 94.929688 278.972656 95.402344 278.6875 C 95.871094 278.398438 96.230469 278.007812 96.480469 277.507812 C 96.699219 277.066406 96.847656 276.640625 96.933594 276.230469 C 97.019531 275.816406 97.027344 275.433594 96.964844 275.070312 C 96.964844 275.070312 92.59375 273.007812 92.59375 273.007812 C 92.59375 273.007812 92.125 270.660156 92.125 270.660156 C 92.125 270.660156 108.105469 278.210938 108.105469 278.210938 C 108.105469 278.210938 108.578125 280.558594 108.578125 280.558594 C 108.578125 280.558594 106.367188 279.511719 106.367188 279.511719 C 106.367188 279.511719 100.089844 292.148438 100.089844 292.148438 C 100.089844 292.148438 98.453125 289.605469 98.453125 289.605469 "/>
<path style=" stroke:none;fill-rule:nonzero;fill:rgb(100%,100%,100%);fill-opacity:1;" d="M 106.40625 277.375 C 106.40625 277.375 110.699219 279.007812 110.699219 279.007812 C 110.589844 278.285156 110.570312 277.574219 110.632812 276.882812 C 110.699219 276.195312 110.855469 275.53125 111.109375 274.898438 C 111.503906 273.917969 112.238281 273.226562 113.316406 272.84375 C 114.398438 272.460938 115.507812 272.480469 116.644531 272.917969 C 118.050781 273.449219 119.328125 274.601562 120.480469 276.367188 C 121.636719 278.136719 122.539062 280.316406 123.183594 282.90625 C 123.183594 282.90625 122.402344 283.121094 122.402344 283.121094 C 121.914062 281.230469 121.148438 279.597656 120.09375 278.230469 C 119.035156 276.863281 117.796875 275.910156 116.375 275.367188 C 115.582031 275.066406 114.765625 275.152344 113.921875 275.628906 C 113.074219 276.101562 112.457031 276.832031 112.0625 277.816406 C 111.777344 278.53125 111.628906 279.042969 111.613281 279.355469 C 111.613281 279.355469 113.277344 279.988281 113.277344 279.988281 C 113.277344 279.988281 113.933594 282.304688 113.933594 282.304688 C 113.933594 282.304688 111.644531 281.433594 111.644531 281.433594 C 111.644531 281.433594 106.410156 294.511719 106.410156 294.511719 C 106.410156 294.511719 104.578125 292.101562 104.578125 292.101562 C 104.578125 292.101562 109.21875 280.511719 109.21875 280.511719 C 109.21875 280.511719 107.058594 279.691406 107.058594 279.691406 C 107.058594 279.691406 106.40625 277.375 106.40625 277.375 "/>
<path style=" stroke:none;fill-rule:nonzero;fill:rgb(100%,100%,100%);fill-opacity:1;" d="M 114.914062 296.199219 C 115.085938 296.488281 115.351562 296.679688 115.703125 296.785156 C 116.414062 296.992188 117.167969 296.957031 117.964844 296.683594 C 118.761719 296.410156 119.476562 295.933594 120.09375 295.25 C 118.65625 294.828125 117.710938 294.386719 117.261719 293.921875 C 116.660156 293.902344 116.128906 294.023438 115.671875 294.289062 C 115.21875 294.554688 114.925781 294.90625 114.78125 295.351562 C 114.699219 295.636719 114.738281 295.921875 114.914062 296.199219 Z M 128.453125 284.710938 C 128.453125 284.710938 129.292969 286.964844 129.292969 286.964844 C 129.292969 286.964844 126.480469 286.140625 126.480469 286.140625 C 126.480469 286.140625 125.171875 290.402344 125.171875 290.402344 C 125.171875 290.402344 119.070312 288.617188 119.070312 288.617188 C 118.589844 288.476562 118.128906 288.535156 117.6875 288.792969 C 117.242188 289.050781 116.941406 289.4375 116.785156 289.945312 C 116.617188 290.496094 116.71875 291.035156 117.085938 291.566406 C 117.457031 292.097656 117.988281 292.464844 118.675781 292.664062 C 118.675781 292.664062 120.597656 293.0625 120.597656 293.0625 C 120.570312 292.917969 120.558594 292.78125 120.554688 292.648438 C 120.550781 292.515625 120.5625 292.398438 120.59375 292.296875 C 120.714844 291.90625 121.003906 291.628906 121.464844 291.457031 C 121.933594 291.277344 122.433594 291.269531 122.976562 291.425781 C 123.539062 291.59375 123.957031 291.9375 124.222656 292.472656 C 124.492188 293.011719 124.535156 293.570312 124.351562 294.160156 C 124.234375 294.546875 123.980469 294.871094 123.597656 295.125 C 123.207031 295.378906 122.75 295.515625 122.21875 295.539062 C 122.21875 295.539062 124.683594 300.246094 124.683594 300.246094 C 124.683594 300.246094 123.15625 300.796875 123.15625 300.796875 C 123.15625 300.796875 121.859375 297.257812 121.859375 297.257812 C 121.078125 297.871094 120.226562 298.273438 119.3125 298.472656 C 118.394531 298.671875 117.527344 298.644531 116.710938 298.410156 C 115.710938 298.113281 114.808594 297.496094 114.003906 296.550781 C 113.191406 295.605469 112.882812 294.820312 113.078125 294.191406 C 113.148438 293.964844 113.242188 293.761719 113.355469 293.574219 C 113.46875 293.386719 113.605469 293.214844 113.761719 293.058594 C 112.722656 292.667969 111.929688 292.085938 111.382812 291.3125 C 110.835938 290.542969 110.671875 289.789062 110.902344 289.054688 C 110.980469 288.792969 111.195312 288.492188 111.535156 288.15625 C 111.878906 287.824219 112.316406 287.480469 112.859375 287.128906 C 112.859375 287.128906 114.492188 289.605469 114.492188 289.605469 C 114.121094 289.765625 113.816406 289.941406 113.570312 290.136719 C 113.328125 290.332031 113.179688 290.519531 113.121094 290.707031 C 113.035156 290.988281 113.113281 291.285156 113.351562 291.582031 C 113.582031 291.886719 113.921875 292.101562 114.363281 292.234375 C 114.363281 292.234375 115.910156 291.6875 115.910156 291.6875 C 115.53125 291.132812 115.289062 290.53125 115.1875 289.894531 C 115.085938 289.25 115.128906 288.625 115.316406 288.011719 C 115.539062 287.300781 116.078125 286.789062 116.933594 286.484375 C 117.792969 286.179688 118.722656 286.175781 119.722656 286.46875 C 119.722656 286.46875 123.324219 287.523438 123.324219 287.523438 C 123.324219 287.523438 123.976562 285.40625 123.976562 285.40625 C 123.976562 285.40625 112.164062 281.945312 112.164062 281.945312 C 112.164062 281.945312 111.324219 279.6875 111.324219 279.6875 C 111.324219 279.6875 128.453125 284.707031 128.453125 284.707031 "/>
<path style=" stroke:none;fill-rule:nonzero;fill:rgb(100%,100%,100%);fill-opacity:1;" d="M 129.820312 287.988281 C 130.207031 288.457031 130.734375 288.78125 131.410156 288.964844 C 131.410156 288.964844 131.902344 286.296875 131.902344 286.296875 C 131.957031 286.003906 131.9375 285.734375 131.855469 285.492188 C 131.769531 285.253906 131.640625 285.117188 131.464844 285.085938 C 130.976562 284.996094 130.53125 285.09375 130.125 285.367188 C 129.722656 285.644531 129.472656 286.019531 129.386719 286.5 C 129.289062 287.023438 129.433594 287.519531 129.820312 287.988281 Z M 134.980469 285.859375 C 134.980469 285.859375 142.855469 287.253906 142.855469 287.253906 C 142.855469 287.253906 143.949219 289.402344 143.949219 289.402344 C 143.949219 289.402344 141.539062 288.976562 141.539062 288.976562 C 141.539062 288.976562 138.972656 302.78125 138.972656 302.78125 C 138.972656 302.78125 136.683594 300.753906 136.683594 300.753906 C 136.683594 300.753906 137.445312 296.671875 137.445312 296.671875 C 137.445312 296.671875 132.792969 295.84375 132.792969 295.84375 C 132.792969 295.84375 132.5 297.417969 132.5 297.417969 C 132.433594 297.773438 132.28125 298.050781 132.046875 298.257812 C 131.808594 298.464844 131.5625 298.542969 131.300781 298.5 C 130.53125 298.363281 129.761719 297.707031 128.996094 296.539062 C 128.226562 295.359375 127.917969 294.367188 128.074219 293.554688 C 128.113281 293.34375 128.253906 293.183594 128.507812 293.066406 C 128.765625 292.949219 129.039062 292.917969 129.339844 292.96875 C 129.339844 292.96875 130.621094 293.199219 130.621094 293.199219 C 130.621094 293.199219 131.175781 290.222656 131.175781 290.222656 C 129.957031 289.65625 129.023438 288.898438 128.375 287.941406 C 127.726562 286.984375 127.492188 286.023438 127.675781 285.0625 C 127.785156 284.457031 128.136719 283.984375 128.714844 283.640625 C 129.300781 283.300781 129.945312 283.195312 130.648438 283.320312 C 131.613281 283.488281 132.484375 284.167969 133.253906 285.351562 C 134.027344 286.535156 134.320312 287.628906 134.136719 288.636719 C 134.136719 288.636719 133.199219 293.652344 133.199219 293.652344 C 133.199219 293.652344 137.851562 294.476562 137.851562 294.476562 C 137.851562 294.476562 138.957031 288.523438 138.957031 288.523438 C 138.957031 288.523438 135.914062 287.980469 135.914062 287.980469 C 135.914062 287.980469 134.980469 285.859375 134.980469 285.859375 "/>
<path style=" stroke:none;fill-rule:nonzero;fill:rgb(100%,100%,100%);fill-opacity:1;" d="M 138.972656 279.414062 C 139.648438 278.929688 140.40625 278.734375 141.25 278.839844 C 142.113281 278.945312 142.882812 279.265625 143.558594 279.808594 C 144.234375 280.351562 144.707031 281.039062 144.972656 281.859375 C 144.972656 281.859375 144.429688 282.277344 144.429688 282.277344 C 144.171875 281.878906 143.871094 281.566406 143.527344 281.328125 C 143.1875 281.09375 142.832031 280.953125 142.464844 280.910156 C 141.714844 280.820312 141.03125 281.003906 140.425781 281.46875 C 139.820312 281.933594 139.46875 282.53125 139.375 283.269531 C 139.324219 283.671875 139.394531 284.125 139.582031 284.621094 C 139.769531 285.113281 140.074219 285.625 140.484375 286.144531 C 140.484375 286.144531 139.773438 286.574219 139.773438 286.574219 C 139.035156 285.800781 138.496094 284.949219 138.15625 284.027344 C 137.808594 283.109375 137.695312 282.203125 137.808594 281.316406 C 137.90625 280.535156 138.296875 279.902344 138.972656 279.414062 "/>
<path style=" stroke:none;fill-rule:nonzero;fill:rgb(100%,100%,100%);fill-opacity:1;" d="M 145.140625 297.773438 C 145.527344 298.140625 146.011719 298.34375 146.601562 298.386719 C 147.402344 298.445312 148.269531 298.316406 149.203125 298 C 150.136719 297.683594 151.058594 297.199219 151.984375 296.542969 C 151.46875 295.847656 150.898438 295.292969 150.277344 294.886719 C 149.652344 294.480469 149.023438 294.253906 148.394531 294.207031 C 147.394531 294.136719 146.53125 294.324219 145.796875 294.769531 C 145.0625 295.214844 144.667969 295.789062 144.613281 296.488281 C 144.578125 296.976562 144.753906 297.402344 145.140625 297.773438 Z M 156.230469 288.214844 C 156.230469 288.214844 157.550781 290.238281 157.550781 290.238281 C 157.550781 290.238281 155.101562 290.0625 155.101562 290.0625 C 155.101562 290.0625 154.03125 304.0625 154.03125 304.0625 C 154.03125 304.0625 151.546875 302.277344 151.546875 302.277344 C 151.546875 302.277344 151.792969 299.085938 151.792969 299.085938 C 151.121094 299.550781 150.4375 299.898438 149.742188 300.125 C 149.046875 300.355469 148.386719 300.445312 147.753906 300.398438 C 146.539062 300.3125 145.355469 299.671875 144.199219 298.480469 C 143.042969 297.285156 142.507812 296.148438 142.59375 295.066406 C 142.660156 294.15625 143.117188 293.398438 143.957031 292.800781 C 144.804688 292.199219 145.792969 291.941406 146.921875 292.023438 C 147.921875 292.09375 148.878906 292.433594 149.792969 293.03125 C 150.707031 293.628906 151.46875 294.429688 152.070312 295.433594 C 152.070312 295.433594 152.496094 289.871094 152.496094 289.871094 C 152.496094 289.871094 142.03125 289.109375 142.03125 289.109375 C 142.03125 289.109375 140.710938 287.089844 140.710938 287.089844 C 140.710938 287.089844 156.230469 288.214844 156.230469 288.214844 "/>
<path style=" stroke:none;fill-rule:nonzero;fill:rgb(100%,100%,100%);fill-opacity:1;" d="M 154.648438 288.0625 C 154.648438 288.0625 159.25 288.136719 159.25 288.136719 C 158.886719 287.492188 158.613281 286.832031 158.425781 286.164062 C 158.242188 285.492188 158.15625 284.816406 158.167969 284.136719 C 158.183594 283.074219 158.628906 282.183594 159.503906 281.453125 C 160.378906 280.726562 161.425781 280.371094 162.648438 280.386719 C 164.160156 280.414062 165.765625 281.054688 167.480469 282.324219 C 169.195312 283.59375 170.816406 285.335938 172.355469 287.546875 C 172.355469 287.546875 171.691406 288.011719 171.691406 288.011719 C 170.5625 286.40625 169.253906 285.136719 167.777344 284.210938 C 166.296875 283.285156 164.796875 282.8125 163.265625 282.785156 C 162.414062 282.777344 161.679688 283.136719 161.054688 283.867188 C 160.429688 284.601562 160.109375 285.496094 160.09375 286.558594 C 160.078125 287.320312 160.125 287.851562 160.230469 288.148438 C 160.230469 288.148438 162.019531 288.179688 162.019531 288.179688 C 162.019531 288.179688 163.464844 290.125 163.464844 290.125 C 163.464844 290.125 161.007812 290.078125 161.007812 290.078125 C 161.007812 290.078125 160.773438 304.109375 160.773438 304.109375 C 160.773438 304.109375 158.191406 302.472656 158.191406 302.472656 C 158.191406 302.472656 158.402344 290.039062 158.402344 290.039062 C 158.402344 290.039062 156.082031 290.003906 156.082031 290.003906 C 156.082031 290.003906 154.648438 288.0625 154.648438 288.0625 "/>
<path style=" stroke:none;fill-rule:nonzero;fill:rgb(100%,100%,100%);fill-opacity:1;" d="M 175.378906 287.433594 C 175.378906 287.433594 176.980469 289.257812 176.980469 289.257812 C 176.980469 289.257812 174.535156 289.417969 174.535156 289.417969 C 174.535156 289.417969 175.492188 303.421875 175.492188 303.421875 C 175.492188 303.421875 172.777344 301.996094 172.777344 301.996094 C 172.777344 301.996094 172.296875 294.992188 172.296875 294.992188 C 172.296875 294.992188 167.234375 295.320312 167.234375 295.320312 C 166.777344 295.351562 166.40625 295.578125 166.117188 296.003906 C 165.832031 296.429688 165.703125 296.925781 165.746094 297.496094 C 165.800781 298.367188 166.152344 299.257812 166.78125 300.164062 C 167.410156 301.070312 168.277344 301.917969 169.378906 302.699219 C 169.378906 302.699219 168.453125 303.558594 168.453125 303.558594 C 166.832031 302.171875 165.5625 300.859375 164.65625 299.617188 C 163.753906 298.375 163.265625 297.296875 163.203125 296.386719 C 163.144531 295.472656 163.378906 294.671875 163.910156 293.976562 C 164.441406 293.28125 165.113281 292.90625 165.914062 292.855469 C 165.914062 292.855469 172.128906 292.453125 172.128906 292.453125 C 172.128906 292.453125 171.929688 289.585938 171.929688 289.585938 C 171.929688 289.585938 161.636719 290.253906 161.636719 290.253906 C 161.636719 290.253906 160.039062 288.433594 160.039062 288.433594 C 160.039062 288.433594 175.378906 287.433594 175.378906 287.433594 "/>
<path style=" stroke:none;fill-rule:nonzero;fill:rgb(100%,100%,100%);fill-opacity:1;" d="M 185.585938 295.558594 C 185.957031 295.800781 186.371094 295.875 186.820312 295.785156 C 187.484375 295.652344 188.109375 295.347656 188.707031 294.855469 C 189.304688 294.367188 189.816406 293.746094 190.238281 292.992188 C 189.859375 292.566406 189.425781 292.261719 188.925781 292.070312 C 188.433594 291.875 187.960938 291.824219 187.511719 291.914062 C 186.675781 292.078125 186.003906 292.414062 185.492188 292.933594 C 184.976562 293.445312 184.777344 293.980469 184.890625 294.539062 C 184.980469 294.980469 185.214844 295.316406 185.585938 295.558594 Z M 197.40625 283.433594 C 197.40625 283.433594 199.242188 285.019531 199.242188 285.019531 C 199.242188 285.019531 191.554688 286.546875 191.554688 286.546875 C 191.554688 286.546875 192.433594 290.769531 192.433594 290.769531 C 192.660156 290.351562 192.960938 290.003906 193.34375 289.730469 C 193.71875 289.457031 194.144531 289.273438 194.617188 289.179688 C 195.496094 289.007812 196.519531 289.460938 197.6875 290.542969 C 198.851562 291.625 199.5625 292.78125 199.816406 294.011719 C 199.933594 294.578125 199.933594 295.203125 199.820312 295.898438 C 199.710938 296.597656 199.488281 297.316406 199.148438 298.054688 C 199.148438 298.054688 196.664062 296.59375 196.664062 296.59375 C 197.164062 295.863281 197.507812 295.160156 197.710938 294.46875 C 197.914062 293.777344 197.960938 293.160156 197.847656 292.617188 C 197.738281 292.097656 197.472656 291.691406 197.050781 291.390625 C 196.632812 291.097656 196.175781 290.996094 195.679688 291.09375 C 195.230469 291.183594 194.769531 291.445312 194.300781 291.875 C 193.835938 292.304688 193.410156 292.871094 193.019531 293.578125 C 193.019531 293.578125 194.421875 300.296875 194.421875 300.296875 C 194.421875 300.296875 191.535156 299.238281 191.535156 299.238281 C 191.535156 299.238281 190.820312 295.800781 190.820312 295.800781 C 190.53125 296.226562 190.167969 296.578125 189.738281 296.859375 C 189.304688 297.140625 188.835938 297.332031 188.324219 297.433594 C 187.363281 297.625 186.285156 297.277344 185.097656 296.378906 C 183.910156 295.488281 183.207031 294.511719 182.984375 293.449219 C 182.832031 292.71875 183.019531 292.035156 183.539062 291.386719 C 184.0625 290.738281 184.757812 290.332031 185.636719 290.15625 C 186.324219 290.019531 187.042969 290.09375 187.800781 290.378906 C 188.566406 290.664062 189.285156 291.121094 189.976562 291.746094 C 189.976562 291.746094 188.992188 287.054688 188.992188 287.054688 C 188.992188 287.054688 180.949219 288.648438 180.949219 288.648438 C 180.949219 288.648438 179.117188 287.066406 179.117188 287.066406 C 179.117188 287.066406 197.40625 283.433594 197.40625 283.433594 "/>
<path style=" stroke:none;fill-rule:nonzero;fill:rgb(100%,100%,100%);fill-opacity:1;" d="M 196.453125 299.777344 C 196.453125 299.777344 196.480469 299.773438 196.480469 299.773438 C 196.480469 299.773438 196.492188 299.804688 196.492188 299.804688 C 196.492188 299.804688 196.464844 299.808594 196.464844 299.808594 C 196.464844 299.808594 196.453125 299.777344 196.453125 299.777344 "/>
<path style=" stroke:none;fill-rule:nonzero;fill:rgb(100%,100%,100%);fill-opacity:1;" d="M 204.484375 289.261719 C 204.484375 289.261719 209.144531 287.707031 209.144531 287.707031 C 209.144531 287.707031 207.128906 281.976562 207.128906 281.976562 C 207.128906 281.976562 202.472656 283.53125 202.472656 283.53125 C 202.472656 283.53125 204.484375 289.261719 204.484375 289.261719 Z M 209.886719 279.027344 C 209.886719 279.027344 211.917969 280.378906 211.917969 280.378906 C 211.917969 280.378906 209.601562 281.152344 209.601562 281.152344 C 209.601562 281.152344 214.265625 294.429688 214.265625 294.429688 C 214.265625 294.429688 211.257812 293.746094 211.257812 293.746094 C 211.257812 293.746094 209.988281 290.125 209.988281 290.125 C 209.988281 290.125 205.335938 291.675781 205.335938 291.675781 C 205.335938 291.675781 205.863281 293.1875 205.863281 293.1875 C 205.984375 293.527344 205.992188 293.84375 205.886719 294.140625 C 205.78125 294.433594 205.605469 294.621094 205.359375 294.703125 C 204.574219 294.964844 203.527344 294.75 202.226562 294.0625 C 200.921875 293.371094 200.132812 292.625 199.847656 291.820312 C 199.765625 291.582031 199.796875 291.332031 199.953125 291.078125 C 200.105469 290.824219 200.328125 290.648438 200.613281 290.554688 C 200.613281 290.554688 202.003906 290.089844 202.003906 290.089844 C 202.003906 290.089844 199.996094 284.359375 199.996094 284.359375 C 199.996094 284.359375 196.746094 285.445312 196.746094 285.445312 C 196.746094 285.445312 194.710938 284.089844 194.710938 284.089844 C 194.710938 284.089844 209.886719 279.027344 209.886719 279.027344 "/>
<path style=" stroke:none;fill-rule:nonzero;fill:rgb(100%,100%,100%);fill-opacity:1;" d="M 202.625 274.03125 C 202.976562 273.289062 203.546875 272.761719 204.339844 272.453125 C 205.144531 272.136719 205.984375 272.054688 206.847656 272.207031 C 207.707031 272.359375 208.460938 272.734375 209.101562 273.328125 C 209.101562 273.328125 208.832031 273.953125 208.832031 273.953125 C 208.410156 273.726562 207.992188 273.589844 207.574219 273.550781 C 207.15625 273.503906 206.769531 273.550781 206.429688 273.6875 C 205.71875 273.964844 205.210938 274.449219 204.90625 275.140625 C 204.605469 275.835938 204.59375 276.527344 204.878906 277.21875 C 205.035156 277.59375 205.316406 277.957031 205.730469 278.296875 C 206.140625 278.640625 206.660156 278.945312 207.285156 279.203125 C 207.285156 279.203125 206.871094 279.914062 206.871094 279.914062 C 205.84375 279.582031 204.953125 279.097656 204.191406 278.453125 C 203.441406 277.808594 202.890625 277.074219 202.546875 276.246094 C 202.25 275.515625 202.273438 274.777344 202.625 274.03125 "/>
<path style=" stroke:none;fill-rule:nonzero;fill:rgb(100%,100%,100%);fill-opacity:1;" d="M 224.527344 272.425781 C 224.527344 272.425781 226.691406 273.53125 226.691406 273.53125 C 226.691406 273.53125 224.484375 274.550781 224.484375 274.550781 C 224.484375 274.550781 230.628906 287.230469 230.628906 287.230469 C 230.628906 287.230469 227.558594 286.890625 227.558594 286.890625 C 227.558594 286.890625 224.621094 280.820312 224.621094 280.820312 C 224.621094 280.820312 220.472656 282.734375 220.472656 282.734375 C 221.390625 282.976562 222.1875 283.335938 222.871094 283.824219 C 223.554688 284.3125 224.054688 284.886719 224.375 285.539062 C 224.714844 286.25 224.738281 286.984375 224.429688 287.753906 C 224.121094 288.511719 223.585938 289.074219 222.816406 289.429688 C 221.53125 290.019531 219.929688 289.867188 218.011719 288.972656 C 216.089844 288.078125 214.257812 286.632812 212.519531 284.628906 C 212.519531 284.628906 213.265625 283.933594 213.265625 283.933594 C 214.496094 285.34375 215.808594 286.359375 217.179688 286.976562 C 218.554688 287.59375 219.71875 287.6875 220.667969 287.25 C 221.082031 287.054688 221.359375 286.742188 221.496094 286.300781 C 221.632812 285.855469 221.59375 285.417969 221.378906 284.972656 C 221.050781 284.300781 220.394531 283.703125 219.40625 283.1875 C 218.421875 282.671875 217.21875 282.296875 215.796875 282.050781 C 215.796875 282.050781 223.496094 278.503906 223.496094 278.503906 C 223.496094 278.503906 222.109375 275.640625 222.109375 275.640625 C 222.109375 275.640625 209.996094 281.222656 209.996094 281.222656 C 209.996094 281.222656 207.828125 280.117188 207.828125 280.117188 C 207.828125 280.117188 224.527344 272.425781 224.527344 272.425781 "/>
<path style=" stroke:none;fill-rule:nonzero;fill:rgb(100%,100%,100%);fill-opacity:1;" d="M 229.128906 269.589844 C 229.128906 269.589844 231.390625 270.542969 231.390625 270.542969 C 231.390625 270.542969 229.269531 271.734375 229.269531 271.734375 C 229.269531 271.734375 236.460938 283.894531 236.460938 283.894531 C 236.460938 283.894531 233.367188 283.789062 233.367188 283.789062 C 233.367188 283.789062 226.996094 273.015625 226.996094 273.015625 C 226.996094 273.015625 224.976562 274.148438 224.976562 274.148438 C 224.976562 274.148438 222.710938 273.199219 222.710938 273.199219 C 222.710938 273.199219 229.128906 269.589844 229.128906 269.589844 "/>
<path style=" stroke:none;fill-rule:nonzero;fill:rgb(100%,100%,100%);fill-opacity:1;" d="M 72.300781 174.777344 C 72.300781 178.816406 81.953125 180.871094 84.476562 181.5 C 95.269531 184.195312 106.507812 185.492188 117.597656 186.238281 C 127.875 186.9375 140.375 185.304688 150.242188 182.792969 C 144.445312 175.265625 138.835938 167.710938 134.816406 159.15625 C 98.207031 161.507812 72.300781 168.683594 72.300781 174.777344 Z M 185.105469 159.078125 C 181.085938 167.632812 175.476562 175.1875 169.679688 182.714844 C 179.546875 185.222656 192.050781 186.859375 202.324219 186.160156 C 213.414062 185.410156 224.65625 184.117188 235.445312 181.421875 C 237.96875 180.792969 247.621094 178.734375 247.621094 174.695312 C 247.621094 168.605469 221.714844 161.429688 185.105469 159.078125 "/>
<path style="fill:none;stroke-width:0.75;stroke-linecap:butt;stroke-linejoin:miter;stroke:rgb(12.156863%,9.803922%,9.019608%);stroke-opacity:1;stroke-miterlimit:10;" d="M 205.025587 221.248671 C 205.025587 220.316356 207.197886 219.842083 207.765796 219.696916 C 210.194798 219.074771 212.724019 218.77542 215.219834 218.603204 C 217.532792 218.441807 220.345968 218.8187 222.566619 219.398467 C 221.262008 221.135964 219.999596 222.879772 219.094984 224.854405 C 210.855894 224.311607 205.025587 222.655259 205.025587 221.248671 Z M 230.412743 224.872439 C 229.508131 222.897805 228.245718 221.153997 226.941108 219.4165 C 229.161758 218.837635 231.975814 218.45984 234.287893 218.621237 C 236.783707 218.794355 239.313808 219.092804 241.74193 219.714949 C 242.30984 219.860116 244.48214 220.335291 244.48214 221.267606 C 244.48214 222.673292 238.651832 224.32964 230.412743 224.872439 Z M 230.412743 224.872439 " transform="matrix(4.443376,0,0,-4.332292,-838.705056,1133.291172)"/>
<path style=" stroke:none;fill-rule:nonzero;fill:rgb(100%,100%,100%);fill-opacity:1;" d="M 150.253906 182.753906 C 144.5 175.269531 138.929688 167.613281 134.933594 159.089844 C 134.625 158.4375 134.308594 157.785156 134.019531 157.121094 C 132.007812 152.460938 130.394531 147.691406 129.460938 143.070312 C 125.242188 122.316406 131.960938 101.25 143.738281 84.003906 C 150.617188 73.921875 157.945312 63.664062 159.816406 51.410156 C 159.816406 51.410156 160.21875 51.410156 160.21875 51.410156 C 162.089844 63.664062 169.421875 73.921875 176.296875 84.003906 C 188.070312 101.25 194.792969 122.316406 190.578125 143.070312 C 189.636719 147.691406 188.027344 152.460938 186.015625 157.121094 C 185.726562 157.78125 185.410156 158.425781 185.105469 159.078125 C 181.085938 167.632812 175.476562 175.1875 169.679688 182.714844 C 166.0625 181.792969 162.785156 180.753906 160.121094 179.667969 C 157.449219 180.757812 154.171875 181.792969 150.542969 182.71875 C 150.542969 182.71875 150.285156 182.777344 150.253906 182.75 "/>
<path style="fill:none;stroke-width:0.75;stroke-linecap:butt;stroke-linejoin:miter;stroke:rgb(12.156863%,9.803922%,9.019608%);stroke-opacity:1;stroke-miterlimit:10;" d="M 222.569256 219.407483 C 221.274316 221.135062 220.020694 222.902314 219.121357 224.869734 C 219.051907 225.020311 218.980698 225.170888 218.915644 225.32417 C 218.462898 226.399849 218.099823 227.500775 217.889714 228.567437 C 216.940267 233.357951 218.452349 238.220598 221.102888 242.201423 C 222.651014 244.528605 224.300239 246.896361 224.721336 249.724866 C 224.721336 249.724866 224.811885 249.724866 224.811885 249.724866 C 225.232982 246.896361 226.883086 244.528605 228.430333 242.201423 C 231.079993 238.220598 232.592954 233.357951 231.644386 228.567437 C 231.432519 227.500775 231.070323 226.399849 230.617577 225.32417 C 230.552522 225.171789 230.481314 225.023016 230.412743 224.872439 C 229.508131 222.897805 228.245718 221.153997 226.941108 219.4165 C 226.127045 219.629292 225.389465 219.869133 224.789907 220.119794 C 224.188591 219.868231 223.451011 219.629292 222.634311 219.415598 C 222.634311 219.415598 222.576289 219.402073 222.569256 219.408385 Z M 222.569256 219.407483 " transform="matrix(4.443376,0,0,-4.332292,-838.705056,1133.291172)"/>
<path style=" stroke:none;fill-rule:nonzero;fill:rgb(47.058824%,12.156863%,9.803922%);fill-opacity:1;" d="M 150.242188 182.792969 C 140.375 185.304688 127.875 186.9375 117.597656 186.238281 C 106.507812 185.492188 95.269531 184.195312 84.476562 181.5 C 82.195312 180.933594 74.074219 179.195312 72.550781 175.875 C 80.921875 205.808594 116.878906 228.316406 159.984375 228.316406 C 203.078125 228.316406 239.039062 205.808594 247.40625 175.878906 C 247.40625 175.878906 247.328125 175.878906 247.328125 175.878906 C 245.707031 179.140625 237.710938 180.859375 235.445312 181.421875 C 224.65625 184.117188 213.414062 185.410156 202.324219 186.160156 C 192.050781 186.859375 179.546875 185.222656 169.679688 182.714844 C 166.0625 181.792969 162.785156 180.753906 160.121094 179.667969 C 157.449219 180.757812 154.171875 181.792969 150.542969 182.71875 C 150.542969 182.71875 150.285156 182.777344 150.253906 182.75 L 150.242188 182.789062 Z M 150.242188 182.792969 "/>
<path style="fill:none;stroke-width:0.75;stroke-linecap:butt;stroke-linejoin:miter;stroke:rgb(12.156863%,9.803922%,9.019608%);stroke-opacity:1;stroke-miterlimit:10;" d="M 222.566619 219.398467 C 220.345968 218.8187 217.532792 218.441807 215.219834 218.603204 C 212.724019 218.77542 210.194798 219.074771 207.765796 219.696916 C 207.252391 219.827656 205.424706 220.228895 205.08185 220.995305 C 206.965799 214.085892 215.058076 208.890533 224.759138 208.890533 C 234.457562 208.890533 242.550718 214.085892 244.433788 220.994403 C 244.433788 220.994403 244.416206 220.994403 244.416206 220.994403 C 244.051372 220.241518 242.251818 219.844788 241.74193 219.714949 C 239.313808 219.092804 236.783707 218.794355 234.287893 218.621237 C 231.975814 218.45984 229.161758 218.837635 226.941108 219.4165 C 226.127045 219.629292 225.389465 219.869133 224.789907 220.119794 C 224.188591 219.868231 223.451011 219.629292 222.634311 219.415598 C 222.634311 219.415598 222.576289 219.402073 222.569256 219.408385 " transform="matrix(4.443376,0,0,-4.332292,-838.705056,1133.291172)"/>
<path style=" stroke:none;fill-rule:nonzero;fill:rgb(74.117647%,63.921569%,27.058824%);fill-opacity:1;" d="M 161.566406 157.660156 C 160.875 158.34375 160.257812 159.101562 160.238281 159.71875 C 160.238281 159.71875 160.148438 159.71875 160.148438 159.71875 C 160.125 159.066406 159.441406 158.261719 158.707031 157.550781 C 158.707031 157.550781 158.707031 179.898438 158.707031 179.898438 C 158.707031 179.898438 159.535156 179.898438 159.535156 179.898438 C 159.730469 179.820312 159.933594 179.746094 160.121094 179.667969 C 160.308594 179.746094 160.511719 179.820312 160.703125 179.898438 C 160.703125 179.898438 161.566406 179.898438 161.566406 179.898438 C 161.566406 179.898438 161.566406 157.660156 161.566406 157.660156 "/>
<path style="fill:none;stroke-width:0.75;stroke-linecap:butt;stroke-linejoin:miter;stroke:rgb(12.156863%,9.803922%,9.019608%);stroke-opacity:1;stroke-miterlimit:10;" d="M 225.11518 225.199741 C 224.959577 225.04195 224.820676 224.867029 224.816281 224.724567 C 224.816281 224.724567 224.796061 224.724567 224.796061 224.724567 C 224.790786 224.875144 224.636941 225.060885 224.471666 225.224987 C 224.471666 225.224987 224.471666 220.066596 224.471666 220.066596 C 224.471666 220.066596 224.658039 220.066596 224.658039 220.066596 C 224.701995 220.084629 224.747709 220.101761 224.789907 220.119794 C 224.832105 220.101761 224.877819 220.084629 224.920896 220.066596 C 224.920896 220.066596 225.11518 220.066596 225.11518 220.066596 C 225.11518 220.066596 225.11518 225.199741 225.11518 225.199741 Z M 225.11518 225.199741 " transform="matrix(4.443376,0,0,-4.332292,-838.705056,1133.291172)"/>
<path style=" stroke:none;fill-rule:nonzero;fill:rgb(85.098039%,14.901961%,10.980392%);fill-opacity:1;" d="M 160.496094 141.652344 C 160.496094 141.652344 159.875 141.652344 159.875 141.652344 C 156.71875 141.652344 154.085938 143.863281 153.382812 146.972656 C 152.46875 150.988281 154.351562 153.558594 157.152344 156.152344 C 157.890625 156.828125 160.105469 158.539062 160.148438 159.71875 C 160.148438 159.71875 160.238281 159.71875 160.238281 159.71875 C 160.28125 158.539062 162.496094 156.828125 163.230469 156.152344 C 166.035156 153.558594 167.921875 150.988281 167.007812 146.972656 C 166.296875 143.863281 163.664062 141.652344 160.511719 141.652344 C 160.511719 141.652344 159.890625 141.652344 159.890625 141.652344 Z M 160.496094 141.652344 "/>
<path style="fill:none;stroke-width:0.75;stroke-linecap:butt;stroke-linejoin:round;stroke:rgb(12.156863%,9.803922%,9.019608%);stroke-opacity:1;stroke-miterlimit:10;" d="M 224.874302 228.894739 C 224.874302 228.894739 224.734523 228.894739 224.734523 228.894739 C 224.024196 228.894739 223.43167 228.3844 223.273429 227.66668 C 223.067716 226.739774 223.49145 226.146483 224.121778 225.547781 C 224.287931 225.391794 224.786391 224.996868 224.796061 224.724567 C 224.796061 224.724567 224.816281 224.724567 224.816281 224.724567 C 224.825951 224.996868 225.32441 225.391794 225.489685 225.547781 C 226.120891 226.146483 226.545505 226.739774 226.339791 227.66668 C 226.179792 228.3844 225.587267 228.894739 224.877819 228.894739 C 224.877819 228.894739 224.738039 228.894739 224.738039 228.894739 " transform="matrix(4.443376,0,0,-4.332292,-838.705056,1133.291172)"/>
<path style=" stroke:none;fill-rule:nonzero;fill:rgb(85.098039%,14.901961%,10.980392%);fill-opacity:1;" d="M 153.382812 146.972656 C 153.855469 144.878906 155.214844 143.21875 157.003906 142.335938 C 157.003906 142.335938 157.246094 141.964844 157.246094 141.964844 C 157.246094 141.964844 149.402344 135.769531 139.59375 143.210938 C 140.0625 143 143.855469 146.195312 144.359375 146.546875 C 146.960938 148.359375 149.707031 149.097656 152.945312 148.523438 C 152.945312 148.523438 153.207031 148.125 153.207031 148.125 C 153.246094 147.75 153.289062 147.371094 153.382812 146.972656 "/>
<path style="fill:none;stroke-width:0.75;stroke-linecap:butt;stroke-linejoin:round;stroke:rgb(12.156863%,9.803922%,9.019608%);stroke-opacity:1;stroke-miterlimit:10;" d="M 223.273429 227.66668 C 223.379802 228.149969 223.685735 228.533174 224.088371 228.736949 C 224.088371 228.736949 224.142877 228.822607 224.142877 228.822607 C 224.142877 228.822607 222.377609 230.252638 220.170144 228.534977 C 220.275639 228.583667 221.129262 227.84611 221.242668 227.764961 C 221.82816 227.346591 222.44618 227.176177 223.174968 227.308721 C 223.174968 227.308721 223.233869 227.40069 223.233869 227.40069 C 223.24266 227.48725 223.25233 227.574711 223.273429 227.66668 Z M 223.273429 227.66668 " transform="matrix(4.443376,0,0,-4.332292,-838.705056,1133.291172)"/>
<path style=" stroke:none;fill-rule:nonzero;fill:rgb(85.098039%,14.901961%,10.980392%);fill-opacity:1;" d="M 162.664062 141.898438 C 162.664062 141.898438 162.761719 142.046875 162.761719 142.046875 C 164.863281 142.816406 166.476562 144.640625 167.007812 146.972656 C 167.132812 147.53125 167.195312 148.058594 167.21875 148.570312 C 170.304688 149.03125 172.953125 148.296875 175.457031 146.546875 C 175.960938 146.195312 179.757812 143 180.226562 143.210938 C 170.414062 135.769531 162.664062 141.898438 162.664062 141.898438 "/>
<path style="fill:none;stroke-width:0.75;stroke-linecap:butt;stroke-linejoin:round;stroke:rgb(12.156863%,9.803922%,9.019608%);stroke-opacity:1;stroke-miterlimit:10;" d="M 225.362213 228.837935 C 225.362213 228.837935 225.38419 228.803672 225.38419 228.803672 C 225.857156 228.626045 226.220231 228.20497 226.339791 227.66668 C 226.367923 227.537743 226.381989 227.416019 226.387264 227.297901 C 227.081766 227.191506 227.677808 227.361017 228.241322 227.764961 C 228.354729 227.84611 229.209231 228.583667 229.314725 228.534977 C 227.106382 230.252638 225.362213 228.837935 225.362213 228.837935 Z M 225.362213 228.837935 " transform="matrix(4.443376,0,0,-4.332292,-838.705056,1133.291172)"/>
<path style=" stroke:none;fill-rule:nonzero;fill:rgb(85.098039%,14.901961%,10.980392%);fill-opacity:1;" d="M 159.785156 98.042969 C 159.785156 98.042969 139.617188 128.0625 157.332031 141.351562 C 157.332031 141.351562 162.234375 141.351562 162.234375 141.351562 C 179.949219 128.0625 159.78125 98.042969 159.78125 98.042969 Z M 159.785156 98.042969 "/>
<path style="fill:none;stroke-width:0.75;stroke-linecap:round;stroke-linejoin:round;stroke:rgb(12.156863%,9.803922%,9.019608%);stroke-opacity:1;stroke-miterlimit:10;" d="M 224.714303 238.960861 C 224.714303 238.960861 220.175419 232.031611 224.162217 228.964167 C 224.162217 228.964167 225.26551 228.964167 225.26551 228.964167 C 229.252308 232.031611 224.713424 238.960861 224.713424 238.960861 " transform="matrix(4.443376,0,0,-4.332292,-838.705056,1133.291172)"/>
<path style=" stroke:none;fill-rule:nonzero;fill:rgb(85.098039%,14.901961%,10.980392%);fill-opacity:1;" d="M 155.40625 105.917969 C 155.40625 105.917969 146.929688 98.640625 146.929688 98.640625 C 147.675781 99.28125 147.363281 103.519531 147.378906 104.480469 C 147.414062 106.785156 147.28125 109.09375 147.046875 111.386719 C 146.734375 114.421875 146.074219 117.367188 145.585938 120.371094 C 144.820312 125.113281 145.402344 130.078125 148.09375 134.1875 C 150.066406 137.207031 153.757812 139.816406 157.140625 141.191406 C 145.429688 132.175781 150.71875 115.699219 155.40625 105.917969 "/>
<path style="fill:none;stroke-width:0.75;stroke-linecap:butt;stroke-linejoin:round;stroke:rgb(12.156863%,9.803922%,9.019608%);stroke-opacity:1;stroke-miterlimit:10;" d="M 223.728812 237.143116 C 223.728812 237.143116 221.821127 238.822907 221.821127 238.822907 C 221.989039 238.675035 221.918709 237.696735 221.922226 237.474926 C 221.930138 236.942948 221.900248 236.410067 221.847501 235.880793 C 221.777171 235.180204 221.6286 234.500353 221.518711 233.806978 C 221.346404 232.712364 221.477392 231.566355 222.083104 230.61781 C 222.527058 229.920827 223.357825 229.318519 224.11914 229.001135 C 221.483546 231.082164 222.673871 234.885362 223.728812 237.143116 Z M 223.728812 237.143116 " transform="matrix(4.443376,0,0,-4.332292,-838.705056,1133.291172)"/>
<path style=" stroke:none;fill-rule:nonzero;fill:rgb(85.098039%,14.901961%,10.980392%);fill-opacity:1;" d="M 174.074219 120.371094 C 173.585938 117.367188 172.921875 114.421875 172.613281 111.386719 C 172.378906 109.09375 172.242188 106.785156 172.28125 104.480469 C 172.296875 103.519531 171.980469 99.28125 172.726562 98.640625 C 172.726562 98.640625 164.1875 105.976562 164.1875 105.976562 C 168.882812 115.789062 174.148438 132.296875 162.324219 141.273438 C 165.761719 139.921875 169.554688 137.265625 171.566406 134.1875 C 174.257812 130.078125 174.84375 125.113281 174.074219 120.371094 "/>
<path style="fill:none;stroke-width:0.75;stroke-linecap:butt;stroke-linejoin:round;stroke:rgb(12.156863%,9.803922%,9.019608%);stroke-opacity:1;stroke-miterlimit:10;" d="M 227.930115 233.806978 C 227.820225 234.500353 227.670775 235.180204 227.601325 235.880793 C 227.548578 236.410067 227.517809 236.942948 227.5266 237.474926 C 227.530116 237.696735 227.458908 238.675035 227.626819 238.822907 C 227.626819 238.822907 225.705068 237.129591 225.705068 237.129591 C 226.761768 234.864624 227.946818 231.054213 225.285729 228.9822 C 226.059353 229.294174 226.912976 229.907302 227.365721 230.61781 C 227.971433 231.566355 228.103301 232.712364 227.930115 233.806978 Z M 227.930115 233.806978 " transform="matrix(4.443376,0,0,-4.332292,-838.705056,1133.291172)"/>
<path style=" stroke:none;fill-rule:nonzero;fill:rgb(85.098039%,14.901961%,10.980392%);fill-opacity:1;" d="M 163.535156 140.746094 C 163.535156 140.746094 163.988281 141.078125 163.988281 141.078125 C 165.976562 140.035156 170.054688 138.574219 175.152344 140.40625 C 175.152344 140.40625 175.472656 140.304688 175.472656 140.304688 C 175.472656 140.304688 177.226562 135.636719 180.226562 135.636719 C 180.226562 135.636719 176.246094 133.582031 170.996094 134.964844 C 169.160156 137.355469 166.320312 139.433594 163.535156 140.746094 "/>
<path style="fill:none;stroke-width:0.75;stroke-linecap:butt;stroke-linejoin:round;stroke:rgb(12.156863%,9.803922%,9.019608%);stroke-opacity:1;stroke-miterlimit:10;" d="M 225.558256 229.103924 C 225.558256 229.103924 225.660233 229.027283 225.660233 229.027283 C 226.107704 229.268026 227.025503 229.605247 228.172751 229.182369 C 228.172751 229.182369 228.244839 229.205812 228.244839 229.205812 C 228.244839 229.205812 228.639563 230.283294 229.314725 230.283294 C 229.314725 230.283294 228.418904 230.757567 227.23737 230.43838 C 226.824185 229.886564 226.185067 229.406882 225.558256 229.103924 Z M 225.558256 229.103924 " transform="matrix(4.443376,0,0,-4.332292,-838.705056,1133.291172)"/>
<path style=" stroke:none;fill-rule:nonzero;fill:rgb(85.098039%,14.901961%,10.980392%);fill-opacity:1;" d="M 155.695312 141.03125 C 155.695312 141.03125 155.960938 140.914062 155.960938 140.914062 C 155.960938 140.914062 155.847656 140.613281 155.847656 140.613281 C 153.15625 139.300781 150.449219 137.285156 148.671875 134.976562 C 148.671875 134.976562 148.644531 134.972656 148.644531 134.972656 C 143.375 133.570312 139.382812 135.636719 139.382812 135.636719 C 142.375 135.636719 144.128906 140.304688 144.128906 140.304688 C 144.128906 140.304688 144.503906 140.480469 144.503906 140.480469 C 149.527344 138.632812 153.601562 139.96875 155.699219 141.03125 "/>
<path style="fill:none;stroke-width:0.75;stroke-linecap:butt;stroke-linejoin:round;stroke:rgb(12.156863%,9.803922%,9.019608%);stroke-opacity:1;stroke-miterlimit:10;" d="M 223.793867 229.038103 C 223.793867 229.038103 223.853647 229.065153 223.853647 229.065153 C 223.853647 229.065153 223.828152 229.134581 223.828152 229.134581 C 223.22244 229.437538 222.613212 229.902794 222.213214 230.435675 C 222.213214 230.435675 222.20706 230.436576 222.20706 230.436576 C 221.02113 230.760272 220.122672 230.283294 220.122672 230.283294 C 220.796076 230.283294 221.1908 229.205812 221.1908 229.205812 C 221.1908 229.205812 221.275195 229.165237 221.275195 229.165237 C 222.40574 229.591722 223.32266 229.283354 223.794746 229.038103 Z M 223.793867 229.038103 " transform="matrix(4.443376,0,0,-4.332292,-838.705056,1133.291172)"/>
<path style=" stroke:none;fill-rule:nonzero;fill:rgb(85.098039%,14.901961%,10.980392%);fill-opacity:1;" d="M 155.359375 106.019531 C 156.238281 104.171875 157.097656 102.566406 157.820312 101.289062 C 157.820312 101.289062 154.335938 96.582031 154.335938 96.582031 C 154.335938 96.582031 151.609375 102.425781 151.609375 102.425781 C 151.609375 102.425781 151.609375 102.660156 151.609375 102.660156 C 151.609375 102.660156 155.40625 105.917969 155.40625 105.917969 C 155.386719 105.949219 155.375 105.984375 155.359375 106.019531 "/>
<path style="fill:none;stroke-width:0.75;stroke-linecap:butt;stroke-linejoin:miter;stroke:rgb(12.156863%,9.803922%,9.019608%);stroke-opacity:1;stroke-miterlimit:10;" d="M 223.718263 237.119673 C 223.916064 237.546158 224.10947 237.916739 224.272107 238.211582 C 224.272107 238.211582 223.487934 239.298081 223.487934 239.298081 C 223.487934 239.298081 222.87431 237.949199 222.87431 237.949199 C 222.87431 237.949199 222.87431 237.8951 222.87431 237.8951 C 222.87431 237.8951 223.728812 237.143116 223.728812 237.143116 C 223.724417 237.135903 223.721779 237.127788 223.718263 237.119673 Z M 223.718263 237.119673 " transform="matrix(4.443376,0,0,-4.332292,-838.705056,1133.291172)"/>
<path style=" stroke:none;fill-rule:nonzero;fill:rgb(85.098039%,14.901961%,10.980392%);fill-opacity:1;" d="M 164.1875 105.976562 C 164.1875 105.976562 168.355469 102.394531 168.355469 102.394531 C 168.355469 102.394531 165.644531 96.582031 165.644531 96.582031 C 165.644531 96.582031 162.101562 101.363281 162.101562 101.363281 C 162.101562 101.363281 162.101562 101.925781 162.101562 101.925781 C 162.761719 103.113281 163.503906 104.539062 164.261719 106.132812 C 164.238281 106.078125 164.210938 106.027344 164.1875 105.976562 "/>
<path style="fill:none;stroke-width:0.75;stroke-linecap:butt;stroke-linejoin:miter;stroke:rgb(12.156863%,9.803922%,9.019608%);stroke-opacity:1;stroke-miterlimit:10;" d="M 225.705068 237.129591 C 225.705068 237.129591 226.643087 237.956412 226.643087 237.956412 C 226.643087 237.956412 226.032979 239.298081 226.032979 239.298081 C 226.032979 239.298081 225.23562 238.19445 225.23562 238.19445 C 225.23562 238.19445 225.23562 238.064611 225.23562 238.064611 C 225.38419 237.790507 225.551223 237.461402 225.721772 237.093525 C 225.716497 237.106148 225.710343 237.11787 225.705068 237.129591 Z M 225.705068 237.129591 " transform="matrix(4.443376,0,0,-4.332292,-838.705056,1133.291172)"/>
</g>
</svg>
