<?xml version="1.0" encoding="UTF-8"?>
<svg xmlns="http://www.w3.org/2000/svg" xmlns:xlink="http://www.w3.org/1999/xlink" width="320px" height="312px" viewBox="0 0 320 312" version="1.1">
<g id="surface1">
<path style="fill-rule:evenodd;fill:rgb(100%,100%,100%);fill-opacity:1;stroke-width:0.8404;stroke-linecap:butt;stroke-linejoin:miter;stroke:rgb(94.117647%,50.196078%,10.196078%);stroke-opacity:1;stroke-miterlimit:22.9256;" d="M 300.419458 150.420861 C 300.419458 233.264448 233.260303 300.419646 150.419165 300.419646 C 67.574353 300.419646 0.418872 233.264448 0.418872 150.420861 C 0.418872 67.577274 67.574353 0.418307 150.419165 0.418307 C 233.260303 0.418307 300.419458 67.577274 300.419458 150.420861 Z M 300.419458 150.420861 " transform="matrix(1.063123,0,0,1.036545,0,0)"/>
<path style="fill:none;stroke-width:0.5602;stroke-linecap:butt;stroke-linejoin:miter;stroke:rgb(12.941176%,36.862745%,52.941176%);stroke-opacity:1;stroke-miterlimit:22.9256;" d="M 150.408142 39.577098 C 211.629602 39.577098 261.258594 89.208634 261.258594 150.428398 C 261.258594 211.651931 211.629602 261.283466 150.408142 261.283466 C 89.183008 261.283466 39.554016 211.651931 39.554016 150.428398 C 39.55769 89.208634 89.183008 39.577098 150.408142 39.577098 Z M 150.408142 39.577098 " transform="matrix(1.063123,0,0,1.036545,0,0)"/>
<path style=" stroke:none;fill-rule:evenodd;fill:rgb(12.941176%,36.862745%,52.941176%);fill-opacity:1;" d="M 172.949219 92.046875 C 200.128906 107.664062 216.242188 130.140625 208.929688 142.246094 C 201.621094 154.347656 173.652344 151.5 146.476562 135.886719 C 119.300781 120.273438 103.1875 97.796875 110.5 85.691406 C 117.808594 73.589844 145.773438 76.433594 172.949219 92.046875 M 173.296875 91.484375 C 202.613281 108.324219 220.3125 132.046875 212.8125 144.460938 C 205.308594 156.878906 175.449219 153.289062 146.128906 136.449219 C 116.8125 119.613281 99.113281 95.886719 106.617188 83.472656 C 114.117188 71.058594 143.976562 74.644531 173.296875 91.484375 Z M 173.296875 91.484375 "/>
<path style=" stroke:none;fill-rule:evenodd;fill:rgb(12.941176%,36.862745%,52.941176%);fill-opacity:1;" d="M 146.835938 91.847656 C 174.269531 76.671875 202.289062 74.269531 209.398438 86.484375 C 216.511719 98.699219 200.03125 120.910156 172.59375 136.089844 C 145.15625 151.261719 117.140625 153.664062 110.027344 141.449219 C 102.914062 129.234375 119.398438 107.023438 146.835938 91.847656 M 146.503906 91.273438 C 176.097656 74.898438 206.011719 71.78125 213.308594 84.316406 C 220.601562 96.84375 202.515625 120.289062 172.925781 136.660156 C 143.328125 153.035156 113.414062 156.15625 106.117188 143.621094 C 98.828125 131.089844 116.910156 107.648438 146.503906 91.273438 Z M 146.503906 91.273438 "/>
<path style=" stroke:none;fill-rule:evenodd;fill:rgb(12.941176%,36.862745%,52.941176%);fill-opacity:1;" d="M 185.800781 114.34375 C 185.320312 145.09375 173.25 169.863281 158.847656 169.65625 C 144.441406 169.445312 133.148438 144.339844 133.628906 113.589844 C 134.105469 82.835938 146.175781 58.070312 160.582031 58.277344 C 174.984375 58.488281 186.277344 83.59375 185.800781 114.34375 M 186.476562 114.359375 C 185.964844 147.53125 173.5625 174.257812 158.789062 174.046875 C 144.011719 173.828125 132.445312 146.75 132.953125 113.574219 C 133.460938 80.402344 145.859375 53.675781 160.640625 53.890625 C 175.414062 54.109375 186.984375 81.183594 186.476562 114.359375 Z M 186.476562 114.359375 "/>
<path style="fill-rule:evenodd;fill:rgb(12.941176%,36.862745%,52.941176%);fill-opacity:1;stroke-width:1.0001;stroke-linecap:butt;stroke-linejoin:miter;stroke:rgb(12.941176%,36.862745%,52.941176%);stroke-opacity:1;stroke-miterlimit:22.9256;" d="M 155.09657 54.323355 C 155.09657 56.53925 153.299829 58.336839 151.084216 58.336839 C 148.868604 58.336839 147.071863 56.53925 147.071863 54.323355 C 147.071863 52.107459 148.868604 50.313639 151.084216 50.313639 C 153.299829 50.313639 155.09657 52.107459 155.09657 54.323355 Z M 155.09657 54.323355 " transform="matrix(1.063123,0,0,1.036545,0,0)"/>
<path style="fill-rule:evenodd;fill:rgb(12.941176%,36.862745%,52.941176%);fill-opacity:1;stroke-width:1.0001;stroke-linecap:butt;stroke-linejoin:miter;stroke:rgb(12.941176%,36.862745%,52.941176%);stroke-opacity:1;stroke-miterlimit:22.9256;" d="M 149.85332 161.507875 C 152.072607 161.507875 153.869348 163.305464 153.869348 165.517591 C 153.869348 167.737255 152.072607 169.531075 149.85332 169.531075 C 147.637708 169.531075 145.844641 167.737255 145.844641 165.517591 C 145.844641 163.305464 147.637708 161.507875 149.85332 161.507875 Z M 149.85332 161.507875 " transform="matrix(1.063123,0,0,1.036545,0,0)"/>
<path style="fill-rule:evenodd;fill:rgb(12.941176%,36.862745%,52.941176%);fill-opacity:1;stroke-width:1.0001;stroke-linecap:butt;stroke-linejoin:miter;stroke:rgb(12.941176%,36.862745%,52.941176%);stroke-opacity:1;stroke-miterlimit:22.9256;" d="M 201.837549 138.704502 C 201.837549 140.920398 200.044482 142.717986 197.825195 142.717986 C 195.609583 142.717986 193.816516 140.920398 193.816516 138.704502 C 193.816516 136.488607 195.609583 134.694787 197.825195 134.694787 C 200.044482 134.694787 201.837549 136.488607 201.837549 138.704502 Z M 201.837549 138.704502 " transform="matrix(1.063123,0,0,1.036545,0,0)"/>
<path style="fill-rule:evenodd;fill:rgb(12.941176%,36.862745%,52.941176%);fill-opacity:1;stroke-width:1.0001;stroke-linecap:butt;stroke-linejoin:miter;stroke:rgb(12.941176%,36.862745%,52.941176%);stroke-opacity:1;stroke-miterlimit:22.9256;" d="M 106.88219 81.140212 C 106.88219 83.356107 105.085449 85.149927 102.869836 85.149927 C 100.654224 85.149927 98.857483 83.356107 98.857483 81.140212 C 98.857483 78.924316 100.654224 77.126728 102.869836 77.126728 C 105.085449 77.126728 106.88219 78.924316 106.88219 81.140212 Z M 106.88219 81.140212 " transform="matrix(1.063123,0,0,1.036545,0,0)"/>
<path style="fill-rule:evenodd;fill:rgb(12.941176%,36.862745%,52.941176%);fill-opacity:1;stroke-width:1.0001;stroke-linecap:butt;stroke-linejoin:miter;stroke:rgb(12.941176%,36.862745%,52.941176%);stroke-opacity:1;stroke-miterlimit:22.9256;" d="M 202.576086 82.617475 C 202.576086 84.833371 200.779346 86.627191 198.563733 86.627191 C 196.34812 86.627191 194.551379 84.833371 194.551379 82.617475 C 194.551379 80.40158 196.34812 78.603991 198.563733 78.603991 C 200.779346 78.603991 202.576086 80.40158 202.576086 82.617475 Z M 202.576086 82.617475 " transform="matrix(1.063123,0,0,1.036545,0,0)"/>
<path style="fill-rule:evenodd;fill:rgb(12.941176%,36.862745%,52.941176%);fill-opacity:1;stroke-width:1.0001;stroke-linecap:butt;stroke-linejoin:miter;stroke:rgb(12.941176%,36.862745%,52.941176%);stroke-opacity:1;stroke-miterlimit:22.9256;" d="M 106.632336 138.214593 C 106.632336 140.430489 104.83927 142.224309 102.623657 142.224309 C 100.408044 142.224309 98.611304 140.430489 98.611304 138.214593 C 98.611304 135.998698 100.408044 134.201109 102.623657 134.201109 C 104.83927 134.201109 106.632336 135.998698 106.632336 138.214593 Z M 106.632336 138.214593 " transform="matrix(1.063123,0,0,1.036545,0,0)"/>
<path style=" stroke:none;fill-rule:evenodd;fill:rgb(12.941176%,36.862745%,52.941176%);fill-opacity:1;" d="M 159.917969 96.683594 L 159.304688 107.855469 L 159.816406 114.054688 L 160.460938 107.855469 Z M 159.917969 96.683594 "/>
<path style=" stroke:none;fill-rule:evenodd;fill:rgb(12.941176%,36.862745%,52.941176%);fill-opacity:1;" d="M 155.359375 97.28125 L 157.707031 108.21875 L 159.847656 114.089844 L 158.828125 107.921875 Z M 155.359375 97.28125 "/>
<path style=" stroke:none;fill-rule:evenodd;fill:rgb(12.941176%,36.862745%,52.941176%);fill-opacity:1;" d="M 151.074219 99.003906 L 156.246094 108.984375 L 159.882812 114.121094 L 157.265625 108.421875 Z M 151.074219 99.003906 "/>
<path style=" stroke:none;fill-rule:evenodd;fill:rgb(12.941176%,36.862745%,52.941176%);fill-opacity:1;" d="M 147.402344 101.722656 L 155.054688 110.078125 L 159.917969 114.121094 L 155.871094 109.28125 Z M 147.402344 101.722656 "/>
<path style=" stroke:none;fill-rule:evenodd;fill:rgb(12.941176%,36.862745%,52.941176%);fill-opacity:1;" d="M 144.613281 105.300781 L 154.203125 111.4375 L 159.984375 114.121094 L 154.78125 110.441406 Z M 144.613281 105.300781 "/>
<path style=" stroke:none;fill-rule:evenodd;fill:rgb(12.941176%,36.862745%,52.941176%);fill-opacity:1;" d="M 142.847656 109.480469 L 153.730469 112.960938 L 160.019531 114.089844 L 154.035156 111.867188 Z M 142.847656 109.480469 "/>
<path style=" stroke:none;fill-rule:evenodd;fill:rgb(12.941176%,36.862745%,52.941176%);fill-opacity:1;" d="M 142.234375 113.921875 L 153.695312 114.550781 L 160.050781 114.054688 L 153.695312 113.425781 Z M 142.234375 113.921875 "/>
<path style=" stroke:none;fill-rule:evenodd;fill:rgb(12.941176%,36.862745%,52.941176%);fill-opacity:1;" d="M 142.847656 118.398438 L 154.070312 116.109375 L 160.085938 114.023438 L 153.761719 115.015625 Z M 142.847656 118.398438 "/>
<path style=" stroke:none;fill-rule:evenodd;fill:rgb(12.941176%,36.862745%,52.941176%);fill-opacity:1;" d="M 144.613281 122.574219 L 154.851562 117.535156 L 160.125 113.988281 L 154.273438 116.542969 Z M 144.613281 122.574219 "/>
<path style=" stroke:none;fill-rule:evenodd;fill:rgb(12.941176%,36.862745%,52.941176%);fill-opacity:1;" d="M 147.402344 126.15625 L 155.976562 118.699219 L 160.125 113.921875 L 155.15625 117.902344 Z M 147.402344 126.15625 "/>
<path style=" stroke:none;fill-rule:evenodd;fill:rgb(12.941176%,36.862745%,52.941176%);fill-opacity:1;" d="M 151.074219 128.875 L 157.367188 119.527344 L 160.125 113.890625 L 156.347656 118.964844 Z M 151.074219 128.875 "/>
<path style=" stroke:none;fill-rule:evenodd;fill:rgb(12.941176%,36.862745%,52.941176%);fill-opacity:1;" d="M 155.359375 130.597656 L 158.929688 119.992188 L 160.085938 113.855469 L 157.808594 119.691406 Z M 155.359375 130.597656 "/>
<path style=" stroke:none;fill-rule:evenodd;fill:rgb(12.941176%,36.862745%,52.941176%);fill-opacity:1;" d="M 159.917969 131.195312 L 160.566406 120.023438 L 160.050781 113.824219 L 159.40625 120.023438 Z M 159.917969 131.195312 "/>
<path style=" stroke:none;fill-rule:evenodd;fill:rgb(12.941176%,36.862745%,52.941176%);fill-opacity:1;" d="M 164.507812 130.597656 L 162.164062 119.65625 L 160.019531 113.789062 L 161.039062 119.957031 Z M 164.507812 130.597656 "/>
<path style=" stroke:none;fill-rule:evenodd;fill:rgb(12.941176%,36.862745%,52.941176%);fill-opacity:1;" d="M 168.792969 128.875 L 163.625 118.894531 L 159.984375 113.757812 L 162.601562 119.457031 Z M 168.792969 128.875 "/>
<path style=" stroke:none;fill-rule:evenodd;fill:rgb(12.941176%,36.862745%,52.941176%);fill-opacity:1;" d="M 172.464844 126.15625 L 164.816406 117.800781 L 159.917969 113.757812 L 164 118.597656 Z M 172.464844 126.15625 "/>
<path style=" stroke:none;fill-rule:evenodd;fill:rgb(12.941176%,36.862745%,52.941176%);fill-opacity:1;" d="M 175.253906 122.574219 L 165.664062 116.445312 L 159.882812 113.757812 L 165.085938 117.4375 Z M 175.253906 122.574219 "/>
<path style=" stroke:none;fill-rule:evenodd;fill:rgb(12.941176%,36.862745%,52.941176%);fill-opacity:1;" d="M 177.023438 118.398438 L 166.140625 114.917969 L 159.847656 113.789062 L 165.835938 116.011719 Z M 177.023438 118.398438 "/>
<path style=" stroke:none;fill-rule:evenodd;fill:rgb(12.941176%,36.862745%,52.941176%);fill-opacity:1;" d="M 177.636719 113.953125 L 166.171875 113.324219 L 159.816406 113.824219 L 166.171875 114.453125 Z M 177.636719 113.953125 "/>
<path style=" stroke:none;fill-rule:evenodd;fill:rgb(12.941176%,36.862745%,52.941176%);fill-opacity:1;" d="M 177.023438 109.480469 L 165.800781 111.765625 L 159.78125 113.855469 L 166.105469 112.859375 Z M 177.023438 109.480469 "/>
<path style=" stroke:none;fill-rule:evenodd;fill:rgb(12.941176%,36.862745%,52.941176%);fill-opacity:1;" d="M 175.253906 105.300781 L 165.019531 110.34375 L 159.75 113.890625 L 165.597656 111.335938 Z M 175.253906 105.300781 "/>
<path style=" stroke:none;fill-rule:evenodd;fill:rgb(12.941176%,36.862745%,52.941176%);fill-opacity:1;" d="M 172.464844 101.722656 L 163.894531 109.183594 L 159.75 113.953125 L 164.710938 109.976562 Z M 172.464844 101.722656 "/>
<path style=" stroke:none;fill-rule:evenodd;fill:rgb(12.941176%,36.862745%,52.941176%);fill-opacity:1;" d="M 168.792969 99.003906 L 162.5 108.351562 L 159.75 113.988281 L 163.523438 108.914062 Z M 168.792969 99.003906 "/>
<path style=" stroke:none;fill-rule:evenodd;fill:rgb(12.941176%,36.862745%,52.941176%);fill-opacity:1;" d="M 164.507812 97.28125 L 160.9375 107.886719 L 159.78125 114.023438 L 162.058594 108.1875 Z M 164.507812 97.28125 "/>
<path style=" stroke:none;fill-rule:evenodd;fill:rgb(12.941176%,36.862745%,52.941176%);fill-opacity:1;" d="M 300.984375 185.777344 L 283.273438 180.070312 L 283.75 175.757812 L 302.324219 173.648438 L 301.945312 177.109375 L 297.289062 177.511719 L 296.878906 181.207031 L 301.347656 182.492188 Z M 294.210938 180.429688 L 294.511719 177.695312 L 286.75 178.3125 Z M 297.519531 197.925781 L 279.746094 194.023438 L 280.535156 190.785156 L 294.03125 189.109375 L 281.578125 186.46875 L 282.304688 183.488281 L 300.078125 187.394531 L 299.300781 190.609375 L 285.769531 192.3125 L 298.238281 194.960938 Z M 294.109375 207.175781 L 279.703125 202.453125 L 278.429688 205.972656 L 275.585938 205.039062 L 279.238281 194.945312 L 282.082031 195.878906 L 280.8125 199.394531 L 295.214844 204.117188 Z M 287.941406 221.105469 L 272.949219 210.472656 L 274.804688 206.511719 L 293.15625 209.964844 L 291.667969 213.148438 L 287.113281 212.15625 L 285.523438 215.554688 L 289.351562 218.089844 Z M 283.234375 214.03125 L 284.410156 211.515625 L 276.832031 209.824219 Z M 282.5625 229.9375 L 266.765625 221.257812 L 269.71875 216.398438 C 270.617188 214.917969 271.613281 214.039062 272.707031 213.773438 C 273.796875 213.503906 275.136719 213.804688 276.726562 214.679688 C 278.285156 215.535156 279.234375 216.519531 279.578125 217.628906 C 279.917969 218.742188 279.65625 220.011719 278.792969 221.4375 L 277.558594 223.476562 L 284.253906 227.15625 Z M 275.324219 222.351562 L 276.035156 221.183594 C 276.5625 220.308594 276.753906 219.601562 276.609375 219.050781 C 276.460938 218.503906 275.957031 217.988281 275.085938 217.511719 C 274.210938 217.03125 273.507812 216.859375 272.972656 216.996094 C 272.4375 217.132812 271.898438 217.652344 271.347656 218.554688 L 270.613281 219.765625 Z M 273.46875 242.46875 L 267.375 237.941406 L 256.148438 235.371094 L 258.464844 232.550781 L 265.570312 234.496094 L 261.839844 228.433594 L 264.09375 225.691406 L 269.480469 235.371094 L 275.574219 239.902344 Z M 268.398438 248.449219 L 266.691406 247.398438 C 267.140625 248.1875 267.316406 248.914062 267.214844 249.585938 C 267.117188 250.257812 266.730469 250.984375 266.050781 251.753906 C 264.820312 253.144531 263.402344 253.683594 261.796875 253.367188 C 260.191406 253.050781 257.90625 251.714844 254.953125 249.359375 C 253.578125 248.257812 252.53125 247.308594 251.824219 246.507812 C 251.105469 245.707031 250.652344 244.984375 250.449219 244.335938 C 250.199219 243.546875 250.195312 242.757812 250.429688 241.976562 C 250.664062 241.195312 251.160156 240.378906 251.902344 239.535156 C 253.164062 238.105469 254.441406 237.339844 255.75 237.226562 C 257.050781 237.117188 258.449219 237.65625 259.949219 238.847656 L 260.300781 239.128906 L 258.257812 241.441406 L 258.113281 241.324219 C 257.28125 240.660156 256.515625 240.304688 255.824219 240.257812 C 255.140625 240.21875 254.535156 240.488281 254.023438 241.078125 C 253.382812 241.796875 253.242188 242.519531 253.589844 243.25 C 253.933594 243.980469 255.359375 245.339844 257.855469 247.332031 C 259.828125 248.90625 261.261719 249.835938 262.148438 250.113281 C 263.039062 250.390625 263.773438 250.199219 264.359375 249.535156 C 264.933594 248.882812 265.113281 248.222656 264.886719 247.570312 C 264.664062 246.914062 263.984375 246.136719 262.863281 245.238281 L 262.382812 244.855469 L 260.867188 246.570312 L 258.632812 244.789062 L 262.25 240.6875 L 269.871094 246.769531 Z M 245.679688 257.621094 C 244.414062 256.234375 243.464844 255.070312 242.839844 254.125 C 242.222656 253.179688 241.863281 252.378906 241.769531 251.714844 C 241.628906 250.789062 241.714844 249.972656 242.035156 249.261719 C 242.355469 248.546875 242.972656 247.816406 243.875 247.066406 C 244.78125 246.316406 245.625 245.84375 246.414062 245.640625 C 247.199219 245.4375 248.070312 245.464844 249.015625 245.726562 C 249.699219 245.917969 250.488281 246.367188 251.378906 247.085938 C 252.269531 247.804688 253.347656 248.851562 254.609375 250.238281 C 255.871094 251.613281 256.8125 252.773438 257.433594 253.71875 C 258.054688 254.660156 258.421875 255.464844 258.527344 256.136719 C 258.667969 257.066406 258.574219 257.886719 258.253906 258.597656 C 257.933594 259.316406 257.320312 260.042969 256.417969 260.792969 C 255.507812 261.542969 254.664062 262.019531 253.875 262.21875 C 253.089844 262.421875 252.226562 262.390625 251.28125 262.125 C 250.605469 261.949219 249.820312 261.5 248.925781 260.785156 C 248.03125 260.066406 246.949219 259.011719 245.679688 257.621094 Z M 248.296875 255.457031 C 250.269531 257.613281 251.636719 258.859375 252.410156 259.199219 C 253.1875 259.539062 253.929688 259.414062 254.648438 258.824219 C 255.34375 258.242188 255.582031 257.570312 255.335938 256.804688 C 255.097656 256.046875 253.984375 254.578125 251.992188 252.402344 C 250.003906 250.226562 248.625 248.964844 247.855469 248.628906 C 247.085938 248.289062 246.347656 248.410156 245.640625 248.996094 C 244.929688 249.582031 244.699219 250.261719 244.949219 251.035156 C 245.191406 251.804688 246.3125 253.28125 248.296875 255.457031 Z M 243.433594 270.445312 L 231.949219 256.957031 L 234.59375 254.921875 L 244.121094 266.113281 L 248.890625 262.441406 L 250.84375 264.738281 Z M 226.199219 270.636719 C 225.144531 269.09375 224.378906 267.8125 223.898438 266.796875 C 223.421875 265.78125 223.1875 264.9375 223.195312 264.269531 C 223.1875 263.335938 223.394531 262.539062 223.8125 261.871094 C 224.238281 261.207031 224.949219 260.566406 225.960938 259.941406 C 226.960938 259.320312 227.867188 258.964844 228.683594 258.863281 C 229.488281 258.769531 230.34375 258.914062 231.246094 259.292969 C 231.898438 259.578125 232.609375 260.128906 233.386719 260.957031 C 234.164062 261.785156 235.074219 262.964844 236.128906 264.503906 C 237.171875 266.035156 237.933594 267.308594 238.410156 268.324219 C 238.886719 269.34375 239.132812 270.1875 239.144531 270.863281 C 239.144531 271.804688 238.929688 272.605469 238.511719 273.265625 C 238.089844 273.933594 237.371094 274.574219 236.367188 275.195312 C 235.363281 275.820312 234.453125 276.175781 233.644531 276.273438 C 232.835938 276.367188 231.984375 276.226562 231.089844 275.839844 C 230.445312 275.570312 229.734375 275.027344 228.949219 274.195312 C 228.167969 273.367188 227.253906 272.179688 226.199219 270.636719 Z M 229.109375 268.839844 C 230.742188 271.234375 231.917969 272.652344 232.632812 273.089844 C 233.355469 273.527344 234.109375 273.5 234.90625 273.011719 C 235.679688 272.53125 236.011719 271.894531 235.882812 271.105469 C 235.757812 270.320312 234.867188 268.722656 233.214844 266.300781 C 231.5625 263.882812 230.382812 262.453125 229.667969 262.015625 C 228.957031 261.582031 228.207031 261.601562 227.421875 262.085938 C 226.632812 262.574219 226.308594 263.21875 226.433594 264.011719 C 226.566406 264.808594 227.457031 266.417969 229.109375 268.839844 Z M 218.550781 284.089844 L 210.269531 268.625 L 213.382812 267.117188 L 223.40625 275.878906 L 217.53125 265.105469 L 220.394531 263.71875 L 228.675781 279.183594 L 225.585938 280.683594 L 215.511719 271.914062 L 221.398438 282.710938 Z M 205.0625 289.054688 L 198.230469 272.960938 L 201.363281 271.757812 L 204.042969 278.070312 L 208.355469 276.414062 L 205.675781 270.101562 L 208.808594 268.894531 L 215.640625 284.988281 L 212.511719 286.191406 L 209.414062 278.898438 L 205.097656 280.554688 L 208.195312 287.851562 Z M 197.246094 284.578125 L 200.421875 283.714844 C 200.441406 283.789062 200.480469 283.890625 200.53125 284.03125 C 200.578125 284.171875 200.617188 284.277344 200.640625 284.359375 C 201.222656 286.285156 201.226562 287.835938 200.652344 289.003906 C 200.082031 290.171875 198.914062 290.996094 197.152344 291.476562 C 196.316406 291.703125 195.570312 291.796875 194.910156 291.757812 C 194.246094 291.714844 193.636719 291.535156 193.074219 291.214844 C 192.308594 290.800781 191.648438 290.121094 191.101562 289.175781 C 190.550781 288.230469 189.902344 286.503906 189.144531 283.992188 C 188.625 282.269531 188.285156 280.886719 188.125 279.828125 C 187.964844 278.777344 187.957031 277.960938 188.109375 277.378906 C 188.351562 276.484375 188.769531 275.773438 189.367188 275.238281 C 189.957031 274.703125 190.800781 274.289062 191.882812 273.992188 C 193.660156 273.511719 195.082031 273.597656 196.15625 274.257812 C 197.230469 274.917969 198.066406 276.226562 198.660156 278.171875 L 195.496094 279.035156 L 195.378906 278.632812 C 195.105469 277.730469 194.75 277.097656 194.304688 276.738281 C 193.863281 276.378906 193.328125 276.28125 192.699219 276.453125 C 191.914062 276.667969 191.476562 277.121094 191.378906 277.8125 C 191.277344 278.503906 191.644531 280.242188 192.484375 283.019531 C 193.390625 286.023438 194.082031 287.8125 194.550781 288.382812 C 195.019531 288.957031 195.652344 289.140625 196.433594 288.925781 C 197.164062 288.730469 197.59375 288.335938 197.734375 287.746094 C 197.867188 287.160156 197.726562 286.179688 197.3125 284.808594 Z M 180.332031 294.402344 L 176.851562 277.367188 L 186.050781 275.664062 L 186.628906 278.496094 L 180.746094 279.582031 L 181.546875 283.523438 L 187.027344 282.507812 L 187.578125 285.207031 L 182.101562 286.222656 L 183.058594 290.910156 L 189.082031 289.796875 L 189.671875 292.675781 Z M 171.246094 295.265625 L 169.921875 280.824219 L 166.027344 281.148438 L 165.765625 278.300781 L 176.941406 277.367188 L 177.203125 280.21875 L 173.308594 280.542969 L 174.636719 294.980469 Z M 150.742188 295.425781 L 151.382812 278.082031 L 160.90625 278.398438 L 160.800781 281.238281 L 154.671875 281.035156 L 154.523438 285.132812 L 160.308594 285.324219 L 160.203125 288.09375 L 154.421875 287.902344 L 154.140625 295.539062 Z M 137.246094 285.285156 C 137.476562 283.460938 137.753906 282.007812 138.078125 280.9375 C 138.398438 279.867188 138.785156 279.078125 139.242188 278.570312 C 139.871094 277.847656 140.566406 277.363281 141.335938 277.113281 C 142.113281 276.863281 143.09375 276.808594 144.28125 276.945312 C 145.46875 277.085938 146.410156 277.363281 147.097656 277.785156 C 147.777344 278.207031 148.339844 278.835938 148.769531 279.683594 C 149.078125 280.296875 149.25 281.15625 149.289062 282.265625 C 149.320312 283.375 149.222656 284.835938 148.988281 286.65625 C 148.753906 288.472656 148.480469 289.910156 148.160156 290.980469 C 147.835938 292.050781 147.453125 292.847656 147.003906 293.375 C 146.367188 294.09375 145.664062 294.578125 144.898438 294.828125 C 144.125 295.082031 143.140625 295.136719 141.953125 295 C 140.761719 294.859375 139.824219 294.578125 139.140625 294.15625 C 138.453125 293.734375 137.902344 293.105469 137.476562 292.261719 C 137.160156 291.660156 136.984375 290.808594 136.949219 289.695312 C 136.90625 288.582031 137.007812 287.109375 137.246094 285.285156 Z M 140.683594 285.6875 C 140.320312 288.519531 140.261719 290.324219 140.519531 291.097656 C 140.769531 291.875 141.367188 292.316406 142.304688 292.425781 C 143.230469 292.535156 143.910156 292.25 144.34375 291.566406 C 144.777344 290.890625 145.175781 289.121094 145.550781 286.253906 C 145.917969 283.390625 145.976562 281.574219 145.726562 280.804688 C 145.472656 280.035156 144.890625 279.59375 143.957031 279.484375 C 143.019531 279.375 142.339844 279.667969 141.898438 280.355469 C 141.460938 281.046875 141.054688 282.824219 140.683594 285.6875 Z M 119.097656 290.015625 L 124.128906 273.332031 L 133.136719 275.789062 L 132.300781 278.558594 L 126.535156 276.988281 L 125.371094 280.84375 L 130.738281 282.308594 L 129.941406 284.953125 L 124.578125 283.488281 L 123.195312 288.082031 L 129.09375 289.691406 L 128.242188 292.507812 Z M 109.324219 287.035156 L 114.539062 273.414062 L 110.863281 272.140625 L 111.890625 269.449219 L 122.433594 273.101562 L 121.40625 275.792969 L 117.734375 274.519531 L 112.519531 288.140625 Z M 101.273438 264.578125 L 104.351562 265.945312 L 99.15625 276.546875 C 98.5625 277.757812 98.316406 278.648438 98.414062 279.21875 C 98.511719 279.789062 98.960938 280.25 99.757812 280.601562 C 100.542969 280.949219 101.195312 280.976562 101.714844 280.675781 C 102.230469 280.375 102.792969 279.605469 103.394531 278.375 L 108.570312 267.816406 L 111.609375 269.160156 L 106.285156 280.019531 C 105.769531 281.074219 105.328125 281.816406 104.964844 282.25 C 104.601562 282.679688 104.179688 283.015625 103.707031 283.25 C 102.992188 283.609375 102.207031 283.757812 101.34375 283.710938 C 100.476562 283.664062 99.539062 283.417969 98.539062 282.972656 C 96.644531 282.132812 95.507812 281.15625 95.117188 280.03125 C 94.71875 278.90625 94.996094 277.375 95.949219 275.433594 Z M 85.714844 275.945312 L 93.5625 263.523438 L 90.210938 261.605469 L 91.761719 259.152344 L 101.378906 264.652344 L 99.828125 267.101562 L 96.476562 265.1875 L 88.628906 277.609375 Z M 78.125 271.320312 L 88.847656 257.277344 L 91.597656 259.179688 L 80.875 273.222656 Z M 70.875 266.1875 L 80.25 254.765625 L 77.171875 252.476562 L 79.023438 250.222656 L 87.863281 256.792969 L 86.011719 259.046875 L 82.929688 256.757812 L 73.550781 268.179688 Z M 63.273438 251.402344 L 65.71875 253.648438 L 64.90625 254.449219 C 64.125 255.214844 63.699219 255.832031 63.621094 256.292969 C 63.535156 256.757812 63.742188 257.214844 64.238281 257.671875 C 64.753906 258.144531 65.273438 258.382812 65.796875 258.382812 C 66.320312 258.382812 66.828125 258.140625 67.320312 257.652344 C 67.699219 257.277344 67.929688 256.875 68.011719 256.433594 C 68.097656 255.996094 68.039062 255.273438 67.84375 254.28125 L 67.449219 252.289062 C 67.09375 250.582031 67.003906 249.367188 67.183594 248.628906 C 67.359375 247.894531 67.804688 247.179688 68.519531 246.476562 C 69.582031 245.425781 70.746094 244.90625 72.003906 244.910156 C 73.257812 244.914062 74.460938 245.445312 75.605469 246.5 C 76.824219 247.617188 77.433594 248.789062 77.441406 250.019531 C 77.449219 251.246094 76.847656 252.449219 75.648438 253.632812 C 75.527344 253.753906 75.433594 253.84375 75.367188 253.902344 C 75.296875 253.96875 75.234375 254.019531 75.179688 254.0625 L 72.859375 251.933594 L 73.195312 251.601562 C 73.878906 250.929688 74.253906 250.335938 74.320312 249.832031 C 74.378906 249.328125 74.144531 248.828125 73.613281 248.339844 C 73.21875 247.980469 72.800781 247.804688 72.355469 247.816406 C 71.90625 247.832031 71.488281 248.03125 71.09375 248.421875 C 70.558594 248.941406 70.472656 249.988281 70.835938 251.546875 C 70.839844 251.5625 70.84375 251.574219 70.84375 251.585938 L 71.308594 253.691406 C 71.652344 255.179688 71.726562 256.347656 71.523438 257.195312 C 71.3125 258.050781 70.789062 258.890625 69.945312 259.722656 C 68.792969 260.859375 67.566406 261.421875 66.257812 261.40625 C 64.949219 261.398438 63.664062 260.8125 62.394531 259.644531 C 61.074219 258.4375 60.421875 257.210938 60.4375 255.972656 C 60.453125 254.726562 61.132812 253.445312 62.480469 252.113281 C 62.621094 251.976562 62.871094 251.75 63.222656 251.449219 Z M 49.335938 245.960938 L 63.3125 234.808594 L 65.558594 237.355469 L 58.839844 248.617188 L 68.554688 240.746094 L 70.617188 243.089844 L 56.640625 254.242188 L 54.410156 251.714844 L 61.125 240.410156 L 51.394531 248.292969 Z M 45.222656 241.148438 L 59.597656 230.460938 L 61.691406 233.011719 L 47.316406 243.699219 Z M 34.21875 224.648438 L 50.015625 215.96875 L 51.761719 218.847656 L 43.09375 228.828125 L 54.09375 222.683594 L 55.699219 225.328125 L 39.902344 234.007812 L 38.164062 231.148438 L 46.839844 221.125 L 35.816406 227.28125 Z M 27.785156 212.015625 L 46.121094 208.527344 L 47.976562 212.492188 L 32.996094 223.15625 L 31.511719 219.976562 L 35.332031 217.414062 L 33.742188 214.019531 L 29.195312 215.03125 Z M 36.457031 213.421875 L 37.632812 215.9375 L 44.027344 211.710938 Z M 25.875 207.4375 L 42.910156 201.21875 L 44.125 204.238281 L 27.097656 210.457031 Z M 21.648438 194.558594 L 39.269531 190.070312 L 40.683594 195.082031 C 40.972656 196.109375 41.109375 196.945312 41.101562 197.597656 C 41.085938 198.25 40.929688 198.828125 40.628906 199.324219 C 40.191406 200.070312 39.546875 200.675781 38.695312 201.15625 C 37.84375 201.628906 36.453125 202.117188 34.511719 202.613281 C 32.011719 203.25 30.21875 203.617188 29.140625 203.714844 C 28.058594 203.8125 27.097656 203.75 26.261719 203.535156 C 25.429688 203.335938 24.773438 202.929688 24.292969 202.316406 C 23.816406 201.703125 23.335938 200.550781 22.859375 198.859375 Z M 25.105469 196.957031 L 25.496094 198.339844 C 25.695312 199.046875 25.886719 199.523438 26.074219 199.78125 C 26.257812 200.035156 26.503906 200.210938 26.8125 200.3125 C 27.351562 200.488281 28.039062 200.535156 28.871094 200.453125 C 29.703125 200.375 31 200.113281 32.75 199.667969 C 34.457031 199.230469 35.683594 198.839844 36.417969 198.496094 C 37.152344 198.152344 37.675781 197.757812 37.972656 197.308594 C 38.121094 197.074219 38.195312 196.804688 38.191406 196.496094 C 38.191406 196.191406 38.105469 195.730469 37.933594 195.121094 L 37.558594 193.785156 Z M 18.457031 181.203125 L 36.421875 178.1875 L 37.023438 181.460938 L 25.289062 188.019531 L 37.835938 185.824219 L 38.394531 188.832031 L 20.429688 191.847656 L 19.828125 188.597656 L 31.582031 182 L 19.011719 184.199219 Z M 17.671875 174.984375 L 35.8125 173.171875 L 36.167969 176.386719 L 18.027344 178.203125 Z M 17.671875 174.984375 "/>
<path style=" stroke:none;fill-rule:nonzero;fill:rgb(12.941176%,36.862745%,52.941176%);fill-opacity:1;" d="M 297.886719 133.480469 L 297.179688 130.023438 L 281.1875 133 L 282.273438 130.851562 L 296.800781 128.148438 L 296.355469 125.949219 L 298.046875 124.289062 L 299.582031 131.855469 Z M 296.558594 125.761719 L 295.542969 122.375 L 279.886719 126.675781 L 280.769531 124.445312 L 294.992188 120.539062 L 294.351562 118.386719 L 295.882812 116.589844 L 298.101562 124 Z M 288.175781 121.40625 L 286.132812 115.710938 L 284.71875 116.179688 C 283.679688 116.519531 283.105469 116.398438 283.007812 115.8125 C 282.941406 115.339844 283.242188 114.621094 283.894531 113.652344 C 284.546875 112.6875 285.136719 112.117188 285.667969 111.941406 C 286.320312 111.726562 286.820312 112.09375 287.15625 113.042969 L 289.957031 120.820312 Z M 294.925781 119.644531 L 291.15625 109.160156 L 292.601562 107.324219 L 296.351562 117.738281 Z M 290.917969 106.019531 C 290.753906 106.214844 290.582031 106.238281 290.414062 106.09375 C 290.25 105.972656 290.226562 105.8125 290.332031 105.613281 C 290.382812 105.539062 290.480469 105.488281 290.621094 105.460938 C 290.757812 105.433594 290.855469 105.449219 290.90625 105.507812 C 291.101562 105.699219 291.101562 105.871094 290.917969 106.019531 Z M 290.742188 107.605469 L 288.699219 103.414062 L 284.761719 105.171875 C 284.382812 105.261719 284.082031 105.285156 283.867188 105.246094 C 283.15625 105.132812 282.519531 104.691406 281.945312 103.917969 C 280.699219 102.285156 279.546875 101.195312 278.484375 100.644531 C 277.617188 100.195312 276.84375 100.117188 276.167969 100.421875 C 275.914062 100.535156 275.695312 100.679688 275.511719 100.859375 C 275.328125 101.03125 275.144531 101.269531 274.953125 101.570312 C 274.320312 102.664062 274.378906 103.976562 275.125 105.503906 C 275.242188 105.75 275.378906 106 275.53125 106.257812 C 275.6875 106.511719 275.867188 106.765625 276.082031 107.023438 C 276.601562 107.683594 277.261719 108.332031 278.066406 108.972656 C 278.324219 109.207031 278.707031 109.484375 279.203125 109.800781 L 277.78125 111.570312 C 277.160156 111.144531 276.679688 110.78125 276.335938 110.472656 C 275.222656 109.484375 274.394531 108.4375 273.855469 107.328125 L 273.597656 106.796875 C 273.519531 106.640625 273.46875 106.527344 273.433594 106.464844 C 273.121094 105.527344 273.070312 104.4375 273.292969 103.203125 C 273.582031 101.589844 274.261719 100.273438 275.351562 99.246094 C 275.585938 99.035156 275.859375 98.855469 276.1875 98.710938 C 277.007812 98.34375 277.851562 98.253906 278.722656 98.429688 C 279.863281 98.675781 280.832031 99.308594 281.625 100.332031 C 282.417969 101.359375 283.09375 102.09375 283.652344 102.546875 C 283.980469 102.804688 284.328125 102.988281 284.691406 103.097656 L 287.859375 101.683594 L 284.148438 94.0625 L 285.390625 92.089844 L 292 105.667969 Z M 283.90625 93.628906 L 282.066406 90.574219 L 267.960938 98.378906 L 268.253906 96.007812 L 281.070312 88.921875 L 279.898438 86.980469 L 280.9375 84.882812 L 284.964844 91.558594 Z M 272.863281 92.71875 C 272.527344 92.574219 272.265625 92.4375 272.074219 92.289062 C 271.414062 91.851562 270.894531 91.359375 270.519531 90.804688 C 270.410156 90.640625 270.304688 90.488281 270.207031 90.34375 C 270.097656 90.054688 270.019531 89.847656 269.957031 89.707031 C 269.539062 88.417969 269.601562 87.15625 270.132812 85.921875 C 270.3125 85.519531 270.628906 85.015625 271.074219 84.414062 L 276.222656 81.214844 L 275.199219 79.707031 L 276.117188 77.558594 L 281.464844 85.441406 L 280.542969 87.589844 L 277.308594 82.816406 L 271.9375 86.15625 C 271.488281 86.523438 271.175781 86.832031 271.011719 87.082031 C 270.519531 87.886719 270.566406 88.71875 271.152344 89.578125 C 271.5 90.09375 272.269531 90.535156 273.460938 90.902344 C 273.84375 91.011719 274.417969 91.136719 275.179688 91.277344 Z M 266.1875 68.175781 L 263.632812 65.636719 L 251.914062 76.476562 L 251.601562 74.109375 L 262.246094 64.265625 L 260.625 62.652344 L 261.101562 60.375 L 266.691406 65.921875 Z M 257 68.355469 L 252.40625 64.25 L 251.382812 65.296875 C 250.632812 66.066406 250.070312 66.214844 249.6875 65.742188 C 249.402344 65.355469 249.3125 64.585938 249.417969 63.441406 C 249.519531 62.292969 249.765625 61.523438 250.144531 61.128906 C 250.617188 60.648438 251.234375 60.746094 252.003906 61.433594 L 258.28125 67.042969 Z M 262.097656 63.769531 L 253.628906 56.207031 L 254.003906 53.933594 L 262.417969 61.449219 Z M 253.621094 56.195312 L 250.800781 53.925781 L 240.332031 65.882812 L 239.765625 63.558594 L 249.277344 52.699219 L 247.488281 51.261719 L 247.707031 48.949219 L 253.878906 53.90625 Z M 247.851562 51.605469 L 244.953125 49.433594 L 234.921875 61.734375 L 234.273438 59.429688 L 243.378906 48.257812 L 241.539062 46.878906 L 241.675781 44.5625 L 248.023438 49.308594 Z M 236.832031 45.222656 C 237.179688 44.679688 237.351562 44.105469 237.328125 43.484375 C 237.289062 42.714844 236.925781 42.117188 236.230469 41.703125 C 236.058594 41.597656 235.816406 41.488281 235.5 41.371094 C 235.183594 41.253906 234.757812 41.316406 234.222656 41.5625 C 233.6875 41.804688 233.25 42.183594 232.914062 42.707031 C 232.519531 43.308594 232.375 43.855469 232.472656 44.347656 C 232.53125 44.8125 232.8125 45.355469 233.3125 45.972656 C 233.464844 46.152344 233.707031 46.410156 234.027344 46.75 C 234.492188 46.679688 234.847656 46.601562 235.085938 46.515625 C 235.867188 46.234375 236.449219 45.804688 236.832031 45.222656 Z M 236.632812 55.019531 C 236.027344 54.976562 235.546875 54.921875 235.199219 54.855469 C 233.988281 54.679688 233.164062 54.488281 232.726562 54.285156 C 232.289062 54.078125 231.949219 53.90625 231.710938 53.761719 C 230.949219 53.308594 230.3125 52.695312 229.792969 51.921875 C 229.273438 51.148438 228.9375 50.390625 228.785156 49.652344 C 228.636719 48.914062 228.578125 48.105469 228.605469 47.226562 C 228.609375 47.085938 228.621094 46.902344 228.640625 46.6875 L 230.703125 46.921875 C 231.339844 46.960938 231.980469 46.96875 232.628906 46.953125 C 232.71875 46.949219 232.859375 46.945312 233.042969 46.9375 C 232.816406 46.777344 232.628906 46.621094 232.484375 46.476562 C 232.089844 46.066406 231.730469 45.570312 231.402344 44.984375 C 231.078125 44.398438 230.925781 43.796875 230.953125 43.179688 C 230.980469 42.558594 231.140625 42.019531 231.441406 41.5625 C 231.792969 41.023438 232.261719 40.640625 232.847656 40.414062 C 233.433594 40.1875 234.058594 40.125 234.734375 40.222656 C 235.40625 40.324219 236.011719 40.535156 236.554688 40.859375 C 237.3125 41.3125 237.851562 41.851562 238.167969 42.472656 C 238.929688 43.941406 238.902344 45.296875 238.09375 46.542969 C 237.539062 47.394531 236.648438 48.015625 235.425781 48.410156 C 234.503906 48.667969 233.277344 48.796875 231.738281 48.800781 C 231.234375 48.785156 230.546875 48.75 229.679688 48.695312 C 229.746094 49.195312 229.828125 49.578125 229.929688 49.839844 C 230.253906 50.726562 230.785156 51.394531 231.523438 51.832031 C 231.757812 51.976562 232.027344 52.089844 232.328125 52.1875 C 233.707031 52.664062 235.082031 52.910156 236.457031 52.925781 C 236.90625 52.933594 237.445312 52.894531 238.070312 52.808594 Z M 232.160156 40.515625 L 226.347656 37.679688 L 223.769531 42.523438 C 223.882812 42.960938 224.007812 43.296875 224.144531 43.527344 C 224.582031 44.320312 225.222656 44.917969 226.066406 45.332031 C 226.773438 45.675781 227.550781 45.804688 228.394531 45.726562 C 228.671875 45.695312 229.023438 45.621094 229.460938 45.503906 L 228.277344 47.730469 C 228.128906 47.738281 228.007812 47.75 227.917969 47.757812 C 227.253906 47.765625 226.628906 47.625 226.035156 47.335938 C 225.761719 47.199219 225.480469 47.023438 225.199219 46.804688 C 224.527344 46.28125 223.925781 45.550781 223.398438 44.605469 C 223.242188 44.308594 223.054688 43.902344 222.84375 43.386719 C 222.683594 43.527344 222.554688 43.628906 222.464844 43.695312 C 222.152344 43.902344 221.839844 44.0625 221.515625 44.179688 C 221.035156 44.332031 220.546875 44.410156 220.058594 44.417969 C 219.886719 44.414062 219.664062 44.402344 219.390625 44.378906 L 221.25 52.128906 L 219.949219 52.363281 L 218.066406 44.847656 C 217.863281 44.144531 217.738281 43.601562 217.683594 43.21875 C 217.484375 42.023438 217.535156 41.15625 217.824219 40.609375 C 217.941406 40.390625 218.121094 40.210938 218.367188 40.070312 C 218.617188 39.929688 218.863281 39.921875 219.113281 40.042969 C 219.34375 40.15625 219.683594 40.613281 220.152344 41.414062 C 220.363281 41.765625 220.523438 41.953125 220.625 41.976562 C 221.046875 42.046875 221.417969 41.9375 221.742188 41.65625 C 222.0625 41.375 222.320312 41.058594 222.503906 40.707031 L 224.578125 36.816406 L 219.386719 34.28125 L 219.058594 31.980469 L 231.902344 38.246094 Z M 219.734375 27.597656 L 216.914062 28.605469 L 215.867188 25.988281 L 218.703125 24.945312 Z M 218.09375 33.78125 L 214.660156 32.519531 L 208.824219 47.089844 L 207.496094 45.066406 L 212.800781 31.835938 L 210.617188 31.03125 L 210.042969 28.777344 L 217.558594 31.539062 Z M 212.078125 31.34375 L 205.875 29.417969 L 204.125 34.585938 C 204.308594 35 204.484375 35.3125 204.65625 35.523438 C 205.21875 36.238281 205.949219 36.734375 206.847656 37.015625 C 207.597656 37.25 208.390625 37.261719 209.210938 37.054688 C 209.480469 36.984375 209.816406 36.859375 210.226562 36.679688 L 209.421875 39.050781 C 209.273438 39.085938 209.160156 39.113281 209.070312 39.136719 C 208.417969 39.242188 207.773438 39.195312 207.140625 39 C 206.851562 38.910156 206.542969 38.777344 206.230469 38.597656 C 205.484375 38.1875 204.773438 37.554688 204.09375 36.699219 C 203.890625 36.429688 203.640625 36.054688 203.347656 35.578125 C 203.207031 35.738281 203.101562 35.863281 203.019531 35.9375 C 202.746094 36.191406 202.460938 36.394531 202.164062 36.5625 C 201.714844 36.78125 201.246094 36.933594 200.761719 37.011719 C 200.59375 37.035156 200.367188 37.058594 200.09375 37.078125 L 203.195312 44.453125 L 201.949219 44.878906 L 198.863281 37.734375 C 198.554688 37.070312 198.339844 36.554688 198.222656 36.183594 C 197.832031 35.03125 197.738281 34.167969 197.933594 33.585938 C 198.011719 33.351562 198.164062 33.148438 198.382812 32.972656 C 198.605469 32.796875 198.851562 32.75 199.117188 32.832031 C 199.359375 32.910156 199.777344 33.308594 200.359375 34.03125 C 200.628906 34.347656 200.820312 34.507812 200.921875 34.515625 C 201.351562 34.519531 201.703125 34.359375 201.972656 34.03125 C 202.246094 33.707031 202.445312 33.355469 202.574219 32.984375 L 203.984375 28.828125 L 198.4375 27.101562 L 197.742188 24.878906 L 211.453125 29.140625 Z M 183.539062 22.609375 L 179.886719 22.179688 L 178.15625 38.808594 L 176.367188 37.117188 L 177.910156 21.945312 L 175.703125 21.6875 L 174.613281 19.636719 L 178.398438 20.101562 C 178.472656 19.914062 178.488281 19.667969 178.441406 19.359375 C 178.128906 17.964844 177.820312 16.742188 177.339844 15.683594 C 176.855469 14.628906 176.167969 14.050781 175.285156 13.945312 C 174.550781 13.859375 173.929688 14.15625 173.429688 14.835938 C 173.304688 15.019531 173.199219 15.234375 173.117188 15.484375 C 173.035156 15.734375 172.976562 15.96875 172.945312 16.1875 C 172.878906 16.722656 172.914062 17.265625 173.046875 17.824219 C 173.074219 18 173.160156 18.246094 173.300781 18.558594 L 172.425781 18.453125 C 172.277344 17.992188 172.171875 17.621094 172.105469 17.34375 C 171.890625 16.40625 171.828125 15.574219 171.921875 14.84375 C 172.003906 14.1875 172.210938 13.582031 172.542969 13.03125 C 173.09375 12.132812 173.992188 11.757812 175.234375 11.90625 C 176.097656 12.003906 176.808594 12.398438 177.359375 13.082031 C 177.851562 13.679688 178.277344 14.492188 178.632812 15.519531 C 178.914062 16.34375 179.144531 17.234375 179.332031 18.195312 C 179.5 18.878906 179.605469 19.539062 179.640625 20.257812 C 179.660156 20.507812 179.628906 19.816406 179.628906 20.234375 L 182.449219 20.558594 Z M 167.65625 20.964844 C 167.765625 21.195312 167.714844 21.351562 167.503906 21.433594 C 167.316406 21.519531 167.15625 21.472656 167.011719 21.292969 C 166.96875 21.214844 166.964844 21.109375 166.996094 20.976562 C 167.035156 20.84375 167.089844 20.769531 167.164062 20.75 C 167.429688 20.667969 167.59375 20.738281 167.65625 20.964844 Z M 161.929688 28.664062 C 161.539062 28.105469 161.183594 27.699219 160.871094 27.433594 C 159.914062 26.617188 158.792969 26.21875 157.515625 26.238281 C 156.570312 26.257812 155.8125 26.496094 155.246094 26.957031 C 154.679688 27.421875 154.402344 27.992188 154.414062 28.679688 C 154.417969 28.800781 154.445312 28.960938 154.5 29.15625 C 154.691406 29.765625 155.019531 30.210938 155.484375 30.5 C 155.949219 30.785156 156.476562 30.921875 157.0625 30.910156 C 157.445312 30.90625 157.734375 30.882812 157.925781 30.839844 C 158.117188 30.800781 158.402344 30.707031 158.785156 30.550781 C 159.648438 30.21875 160.417969 29.8125 161.097656 29.339844 C 161.328125 29.1875 161.605469 28.964844 161.929688 28.664062 Z M 174.339844 21.554688 L 163.796875 21.730469 L 163.890625 26.648438 C 164.394531 26.371094 164.785156 26.167969 165.066406 26.039062 C 165.953125 25.632812 166.648438 25.425781 167.164062 25.417969 C 168.308594 25.398438 169.3125 25.871094 170.160156 26.835938 C 171.007812 27.800781 171.441406 28.917969 171.464844 30.195312 L 171.472656 30.597656 C 171.414062 31.457031 171.058594 32.441406 170.414062 33.554688 C 170.21875 33.925781 169.894531 34.40625 169.449219 35.003906 L 167.808594 33.597656 C 168.109375 33.226562 168.332031 32.925781 168.484375 32.703125 C 169.03125 31.9375 169.402344 31.34375 169.601562 30.921875 C 169.898438 30.285156 170.042969 29.707031 170.03125 29.191406 C 170.019531 28.601562 169.820312 28.128906 169.429688 27.769531 C 169.039062 27.40625 168.410156 27.234375 167.542969 27.25 C 166.90625 27.257812 166.117188 27.566406 165.179688 28.171875 C 164.878906 28.371094 164.464844 28.683594 163.933594 29.109375 L 164.085938 37.371094 L 162.066406 35.96875 L 161.972656 31.015625 C 161.519531 31.367188 161.140625 31.628906 160.835938 31.804688 C 159.878906 32.363281 158.976562 32.644531 158.132812 32.660156 C 157.109375 32.675781 156.1875 32.410156 155.359375 31.859375 C 154.53125 31.3125 153.890625 30.523438 153.433594 29.503906 C 153.195312 28.945312 153.070312 28.359375 153.058594 27.75 C 153.042969 26.769531 153.320312 25.96875 153.898438 25.347656 C 154.574219 24.625 155.5625 24.253906 156.867188 24.234375 C 158.015625 24.214844 159.203125 24.695312 160.421875 25.679688 C 160.808594 25.992188 161.304688 26.5 161.90625 27.199219 L 161.804688 21.765625 L 151.574219 21.933594 L 150.160156 20.050781 L 172.960938 19.667969 Z M 151.636719 22.171875 L 147.964844 22.417969 L 149.105469 37.984375 L 147.007812 36.691406 L 145.976562 22.550781 L 143.644531 22.707031 L 142.128906 20.894531 L 150.160156 20.355469 Z M 143.90625 22.5 L 138.355469 23.433594 L 139.898438 31.824219 C 139.964844 32.160156 139.851562 32.480469 139.570312 32.773438 C 139.28125 33.070312 138.945312 33.203125 138.550781 33.167969 C 138.238281 33.148438 137.648438 32.777344 136.789062 32.050781 C 135.925781 31.324219 135.449219 30.84375 135.355469 30.617188 C 135.195312 30.167969 135.246094 29.863281 135.515625 29.691406 C 135.78125 29.523438 136.15625 29.398438 136.636719 29.316406 C 137.136719 29.230469 137.378906 29.128906 137.355469 29.007812 L 136.390625 23.765625 L 132.769531 24.375 L 131.101562 22.71875 L 142.277344 20.832031 Z M 137.511719 19.953125 C 136.976562 19.410156 136.515625 18.992188 136.132812 18.691406 C 134.929688 17.738281 133.6875 17.039062 132.417969 16.597656 C 132.019531 16.453125 131.613281 16.367188 131.1875 16.34375 C 130.761719 16.316406 130.285156 16.355469 129.761719 16.464844 C 128.710938 16.675781 127.933594 17.171875 127.429688 17.953125 C 127.113281 18.417969 126.917969 18.886719 126.839844 19.367188 C 126.765625 19.847656 126.777344 20.3125 126.878906 20.769531 C 127.019531 21.414062 127.332031 22.050781 127.808594 22.679688 C 127.957031 22.875 128.183594 23.117188 128.484375 23.40625 L 131.667969 22.757812 L 133.394531 24.355469 L 129.796875 25.089844 L 133.191406 40.390625 L 130.921875 39.347656 L 127.84375 25.488281 L 125.558594 25.953125 L 123.832031 24.351562 L 127.765625 23.550781 C 127.265625 23.175781 126.886719 22.855469 126.613281 22.585938 C 125.773438 21.753906 125.261719 20.90625 125.070312 20.046875 C 124.902344 19.28125 124.957031 18.535156 125.242188 17.816406 C 125.527344 17.09375 125.957031 16.519531 126.542969 16.085938 C 127.125 15.65625 127.828125 15.355469 128.65625 15.1875 C 129.78125 14.960938 130.839844 15.03125 131.839844 15.402344 C 133.058594 15.832031 134.332031 16.523438 135.667969 17.476562 C 136.074219 17.769531 136.597656 18.1875 137.242188 18.734375 Z M 121.527344 25.082031 L 120.679688 25.304688 C 120.417969 24.9375 120.21875 24.648438 120.078125 24.429688 C 119.59375 23.742188 119.121094 23.183594 118.65625 22.742188 C 118.011719 22.148438 117.464844 21.707031 117.011719 21.417969 C 116.464844 21.074219 115.886719 20.84375 115.269531 20.722656 C 114.929688 20.632812 114.605469 20.609375 114.296875 20.648438 C 113.988281 20.691406 113.652344 20.757812 113.28125 20.855469 L 111.621094 18.734375 C 112.03125 18.601562 112.414062 18.53125 112.765625 18.515625 C 113.121094 18.5 113.585938 18.574219 114.160156 18.730469 C 114.960938 18.957031 115.71875 19.304688 116.4375 19.78125 C 117.023438 20.1875 117.792969 20.851562 118.738281 21.773438 C 119.445312 22.402344 120.203125 23.261719 121.007812 24.34375 C 121.136719 24.539062 121.316406 24.785156 121.527344 25.082031 Z M 125.292969 25.992188 L 121.738281 26.90625 L 125.957031 41.980469 L 123.644531 41.089844 L 119.8125 27.398438 L 117.554688 27.980469 L 115.707031 26.480469 L 123.480469 24.480469 Z M 114.777344 38.699219 L 111.429688 30.335938 L 107.421875 31.808594 L 108.328125 34.070312 C 108.367188 34.160156 108.433594 34.332031 108.535156 34.585938 C 108.636719 34.835938 108.65625 35.066406 108.601562 35.269531 C 108.542969 35.472656 108.355469 35.675781 108.023438 35.875 C 107.976562 35.890625 107.90625 35.929688 107.820312 35.984375 L 103.492188 37.578125 C 103.257812 37.742188 103.089844 37.871094 102.988281 37.960938 C 102.679688 38.285156 102.640625 38.601562 102.875 38.910156 C 103.3125 39.457031 103.90625 39.707031 104.65625 39.667969 C 104.902344 39.660156 105.242188 39.585938 105.679688 39.449219 C 105.898438 39.316406 106.160156 39.179688 106.460938 39.042969 C 106.761719 38.90625 107.148438 38.75 107.628906 38.574219 C 108.394531 38.296875 109.0625 38.128906 109.640625 38.070312 C 110.222656 38.011719 110.617188 38.144531 110.828125 38.460938 C 111.035156 38.777344 111.144531 38.945312 111.152344 38.96875 C 111.320312 39.378906 111.054688 39.714844 110.363281 39.96875 C 110.101562 40.0625 109.769531 40.152344 109.363281 40.238281 C 108.957031 40.320312 108.695312 40.382812 108.578125 40.429688 C 107.859375 40.691406 107.363281 41.121094 107.085938 41.722656 C 106.808594 42.328125 106.765625 42.875 106.96875 43.378906 C 107.300781 44.203125 107.6875 44.726562 108.136719 44.957031 C 108.582031 45.183594 109.082031 45.199219 109.628906 44.996094 C 110.152344 44.804688 110.6875 44.464844 111.234375 43.976562 C 111.496094 43.75 111.902344 43.324219 112.449219 42.703125 C 113.25 41.832031 113.867188 40.921875 114.308594 39.972656 C 114.453125 39.660156 114.609375 39.230469 114.777344 38.699219 Z M 116.832031 28.347656 L 113.289062 29.652344 L 119.140625 44.253906 L 116.726562 43.566406 L 115.78125 41.203125 C 115.542969 41.761719 115.316406 42.199219 115.113281 42.507812 C 114.457031 43.535156 113.683594 44.371094 112.792969 45.015625 C 112.410156 45.285156 112 45.5 111.574219 45.660156 C 110.714844 45.972656 109.792969 46.101562 108.8125 46.042969 C 107.832031 45.984375 106.976562 45.71875 106.25 45.238281 C 105.523438 44.757812 105.046875 44.230469 104.820312 43.660156 C 104.589844 43.089844 104.59375 42.484375 104.832031 41.84375 C 104.90625 41.632812 105.0625 41.367188 105.289062 41.046875 C 104.90625 40.980469 104.605469 40.90625 104.378906 40.832031 C 103.667969 40.621094 103.066406 40.386719 102.574219 40.117188 C 101.578125 39.539062 100.96875 38.976562 100.75 38.429688 C 100.511719 37.835938 100.683594 37.265625 101.25 36.710938 C 101.429688 36.542969 101.753906 36.320312 102.214844 36.042969 L 106.152344 34.59375 L 105.34375 32.574219 L 98.503906 35.082031 L 96.5 33.773438 L 114.828125 27.039062 Z M 91.78125 36.964844 L 91.164062 37.265625 C 91.035156 37.1875 90.9375 37.113281 90.871094 37.035156 C 90.582031 36.816406 90.28125 36.636719 89.976562 36.484375 C 89.535156 36.3125 89.113281 36.203125 88.703125 36.15625 C 88.292969 36.109375 87.867188 36.109375 87.4375 36.15625 C 87 36.207031 86.660156 36.289062 86.410156 36.410156 C 86.15625 36.53125 85.972656 36.625 85.859375 36.679688 L 84.441406 35.144531 C 84.601562 35.066406 84.796875 34.980469 85.015625 34.886719 C 85.238281 34.789062 85.597656 34.730469 86.105469 34.707031 C 86.605469 34.679688 87.136719 34.734375 87.699219 34.875 C 88.066406 34.972656 88.574219 35.15625 89.234375 35.421875 C 89.894531 35.6875 90.59375 36.085938 91.328125 36.605469 C 91.433594 36.691406 91.582031 36.8125 91.78125 36.964844 Z M 93.859375 35.949219 L 93.210938 36.265625 C 92.855469 35.96875 92.589844 35.742188 92.417969 35.578125 C 91.84375 35.089844 91.421875 34.761719 91.160156 34.585938 C 90.101562 33.894531 89.378906 33.449219 88.988281 33.257812 C 88.011719 32.769531 87.085938 32.535156 86.207031 32.554688 C 85.738281 32.589844 85.246094 32.664062 84.734375 32.777344 C 84.585938 32.820312 84.386719 32.878906 84.136719 32.945312 L 82.542969 31.167969 C 82.703125 31.089844 82.980469 30.964844 83.382812 30.800781 C 83.78125 30.632812 84.386719 30.605469 85.207031 30.714844 C 86.027344 30.824219 86.988281 31.167969 88.105469 31.753906 C 89.101562 32.28125 90.175781 32.980469 91.324219 33.847656 C 92.058594 34.367188 92.761719 34.929688 93.429688 35.539062 C 93.546875 35.648438 93.6875 35.78125 93.859375 35.949219 Z M 97.015625 35.972656 L 93.796875 37.683594 L 101.695312 51.332031 L 99.230469 51.003906 L 92.054688 38.609375 L 90.007812 39.695312 L 87.839844 38.664062 L 94.878906 34.929688 Z M 89.796875 39.714844 L 86.675781 41.582031 L 95.3125 54.816406 L 92.828125 54.617188 L 84.984375 42.597656 L 83.007812 43.78125 L 80.777344 42.863281 L 87.605469 38.777344 Z M 84.140625 42.910156 L 78.898438 46.429688 L 81.9375 50.582031 C 82.183594 50.921875 82.453125 51.203125 82.738281 51.429688 C 83.59375 52.082031 84.519531 52.238281 85.519531 51.898438 C 85.847656 51.792969 86.171875 51.636719 86.484375 51.425781 C 87.132812 50.992188 87.613281 50.371094 87.929688 49.5625 C 88.027344 49.316406 88.113281 48.960938 88.179688 48.5 L 89.496094 50.304688 L 86.425781 58.90625 L 84.4375 58.433594 L 86.71875 52.839844 C 86.230469 52.898438 85.847656 52.945312 85.5625 52.984375 C 84.625 53.074219 83.859375 53.070312 83.253906 52.964844 C 82.863281 52.898438 82.3125 52.722656 81.601562 52.4375 C 80.894531 52.148438 80.4375 51.867188 80.230469 51.585938 L 77.269531 47.527344 L 75.636719 48.621094 L 73.394531 47.792969 L 81.90625 42.085938 Z M 64.796875 57.632812 L 62.101562 60.035156 L 73.21875 71.449219 L 70.738281 71.703125 L 60.648438 61.339844 L 58.9375 62.867188 L 56.570312 62.371094 L 62.457031 57.113281 Z M 66.757812 68.757812 C 66.632812 69.269531 66.527344 69.664062 66.441406 69.949219 C 66.144531 70.871094 65.8125 71.535156 65.441406 71.941406 C 64.621094 72.847656 63.835938 73.507812 63.085938 73.921875 C 62.339844 74.335938 61.394531 74.554688 60.253906 74.582031 C 59.582031 74.574219 58.726562 74.378906 57.6875 73.996094 C 57.371094 73.859375 56.910156 73.65625 56.3125 73.386719 C 56.441406 73.203125 56.570312 73.003906 56.703125 72.789062 C 56.832031 72.570312 56.941406 72.339844 57.027344 72.089844 C 57.453125 70.949219 57.65625 70.121094 57.636719 69.601562 C 57.617188 69.082031 57.417969 68.664062 57.027344 68.339844 C 56.605469 67.988281 56.046875 67.800781 55.355469 67.777344 C 55.140625 67.753906 54.835938 67.796875 54.441406 67.890625 L 51.625 70.992188 L 49.21875 70.738281 L 56.683594 62.507812 L 59.042969 62.816406 L 55.398438 66.835938 C 55.742188 66.867188 56.007812 66.890625 56.195312 66.914062 C 56.867188 66.988281 57.429688 67.09375 57.871094 67.21875 C 58.316406 67.34375 58.660156 67.511719 58.910156 67.71875 C 59.28125 68.023438 59.519531 68.410156 59.636719 68.882812 C 59.75 69.351562 59.75 69.875 59.628906 70.457031 C 59.507812 71.039062 59.257812 71.800781 58.871094 72.746094 C 58.808594 72.890625 58.730469 73.066406 58.636719 73.28125 C 59.007812 73.398438 59.3125 73.472656 59.554688 73.507812 C 60.285156 73.597656 60.949219 73.5 61.539062 73.21875 C 62.136719 72.933594 62.628906 72.582031 63.015625 72.15625 C 63.449219 71.675781 63.792969 71.089844 64.054688 70.394531 C 64.160156 70.09375 64.28125 69.6875 64.425781 69.171875 C 64.574219 68.660156 64.675781 68.121094 64.746094 67.5625 C 64.757812 67.476562 64.765625 67.320312 64.765625 67.09375 Z M 51.925781 70.613281 L 49.605469 73.355469 L 62.300781 83.199219 L 59.855469 83.757812 L 48.351562 74.839844 L 46.953125 76.492188 L 44.5625 76.289062 L 47.070312 73.324219 C 46.347656 73.011719 45.746094 72.769531 45.269531 72.589844 C 43.875 72.105469 42.582031 71.777344 41.390625 71.613281 C 40.199219 71.445312 39.324219 71.691406 38.757812 72.359375 C 38.292969 72.910156 38.230469 73.566406 38.566406 74.335938 C 38.664062 74.535156 38.796875 74.734375 38.976562 74.933594 C 39.148438 75.132812 39.328125 75.304688 39.511719 75.441406 C 39.945312 75.78125 40.449219 76.046875 41.011719 76.230469 C 41.183594 76.300781 41.445312 76.359375 41.792969 76.410156 L 41.238281 77.070312 C 40.753906 76.945312 40.367188 76.832031 40.085938 76.742188 C 39.140625 76.417969 38.375 76.027344 37.777344 75.5625 C 37.238281 75.148438 36.8125 74.660156 36.5 74.101562 C 36 73.175781 36.140625 72.25 36.929688 71.316406 C 37.476562 70.667969 38.195312 70.300781 39.097656 70.210938 C 39.886719 70.128906 40.832031 70.214844 41.933594 70.472656 C 42.808594 70.679688 43.722656 70.964844 44.671875 71.320312 C 45.367188 71.542969 46.042969 71.832031 46.699219 72.183594 C 46.929688 72.300781 47.230469 72.472656 47.597656 72.695312 L 49.53125 70.414062 Z M 47.105469 76.527344 L 44.941406 79.378906 L 58.121094 88.550781 L 55.738281 89.253906 L 43.769531 80.921875 L 42.394531 82.734375 L 39.972656 82.683594 L 44.703125 76.441406 Z M 47.265625 85.015625 L 44.503906 89.59375 C 44.21875 90.171875 44.046875 90.628906 43.992188 90.964844 C 43.867188 92 44.328125 92.804688 45.367188 93.378906 C 46.121094 93.792969 47 94.0625 48.003906 94.179688 C 49.011719 94.296875 50.078125 94.304688 51.207031 94.191406 C 51.886719 94.144531 52.375 94.089844 52.679688 94.027344 C 52.804688 94.011719 52.972656 93.980469 53.1875 93.925781 L 53.410156 94.941406 L 49.230469 95.34375 C 48.070312 95.410156 47.007812 95.371094 46.042969 95.234375 C 45.078125 95.097656 44.25 94.835938 43.570312 94.460938 C 42.152344 93.675781 41.53125 92.570312 41.714844 91.144531 C 41.789062 90.679688 42.023438 90.042969 42.417969 89.242188 L 45.539062 84.0625 Z M 42.828125 82.390625 L 36.945312 92.152344 L 34.527344 92.34375 L 40.390625 82.613281 Z M 34.359375 94.5625 C 34.621094 94.558594 34.753906 94.664062 34.746094 94.882812 C 34.753906 95.082031 34.640625 95.203125 34.410156 95.253906 C 34.320312 95.261719 34.214844 95.222656 34.105469 95.140625 C 33.992188 95.054688 33.945312 94.972656 33.957031 94.898438 C 33.988281 94.636719 34.121094 94.523438 34.359375 94.5625 Z M 35.773438 93.664062 L 33.683594 97.957031 L 38.582031 100.140625 C 38.875 100.355469 39.105469 100.523438 39.265625 100.652344 C 39.769531 101.0625 40.125 101.464844 40.332031 101.855469 C 40.640625 102.425781 40.832031 103.089844 40.882812 103.84375 C 40.886719 103.953125 40.890625 104.117188 40.898438 104.335938 L 49.03125 102.136719 L 49.34375 103.335938 L 41.382812 105.605469 C 40.679688 105.832031 40.128906 105.976562 39.726562 106.042969 C 38.511719 106.28125 37.617188 106.273438 37.035156 106.015625 C 36.78125 105.902344 36.589844 105.726562 36.464844 105.496094 C 36.335938 105.261719 36.328125 105.035156 36.433594 104.816406 C 36.554688 104.570312 36.902344 104.285156 37.464844 103.957031 C 38.03125 103.632812 38.328125 103.417969 38.347656 103.320312 C 38.429688 103.03125 38.304688 102.679688 37.976562 102.261719 C 37.867188 102.132812 37.699219 101.960938 37.460938 101.75 L 32.84375 99.683594 L 30.367188 104.773438 L 27.992188 105.132812 L 33.402344 94.019531 Z M 30.589844 104.65625 L 29.210938 107.921875 L 44.316406 113.769531 L 42.183594 115 L 28.464844 109.691406 L 27.589844 111.769531 L 25.222656 112.277344 L 28.238281 105.128906 Z M 27.191406 112.550781 L 26.179688 115.9375 L 41.839844 120.238281 L 39.855469 121.679688 L 25.628906 117.769531 L 24.984375 119.925781 L 22.6875 120.667969 L 24.910156 113.257812 Z M 26.972656 126.851562 L 24.292969 126.210938 C 23.648438 126.054688 23.148438 126.0625 22.789062 126.230469 C 22.429688 126.394531 22.199219 126.667969 22.097656 127.046875 C 21.992188 127.453125 22.085938 127.808594 22.375 128.117188 C 22.664062 128.425781 23.066406 128.640625 23.589844 128.765625 C 24.0625 128.878906 24.511719 128.875 24.941406 128.75 C 25.539062 128.5625 26.058594 128.195312 26.488281 127.640625 C 26.617188 127.472656 26.773438 127.207031 26.972656 126.851562 Z M 34.128906 120.308594 L 32.597656 126.1875 L 33.640625 126.4375 C 33.878906 126.519531 34.050781 126.582031 34.140625 126.632812 C 34.460938 126.835938 34.574219 127.089844 34.496094 127.398438 C 34.394531 127.777344 33.867188 128.257812 32.921875 128.839844 C 32.101562 129.324219 31.429688 129.667969 30.902344 129.871094 C 30.675781 129.941406 30.480469 129.957031 30.328125 129.921875 C 30.105469 129.871094 29.960938 129.683594 29.914062 129.367188 C 29.914062 129.269531 29.902344 129.113281 29.875 128.90625 L 30.210938 127.625 L 27.84375 127.058594 C 27.652344 127.492188 27.480469 127.832031 27.339844 128.074219 C 26.429688 129.546875 25.289062 130.371094 23.90625 130.546875 C 23.609375 130.578125 23.296875 130.550781 22.972656 130.476562 C 22.234375 130.300781 21.65625 129.902344 21.238281 129.285156 C 20.824219 128.667969 20.726562 127.929688 20.949219 127.078125 C 20.992188 126.910156 21.03125 126.761719 21.066406 126.632812 C 21.097656 126.503906 21.207031 126.292969 21.382812 126.007812 C 21.886719 125.195312 22.714844 124.699219 23.867188 124.519531 C 24.25 124.460938 24.792969 124.453125 25.496094 124.496094 L 30.699219 125.734375 L 32.230469 119.859375 Z M 25.507812 118.210938 L 24.449219 122.273438 L 22.183594 123.09375 L 23.238281 119.03125 Z M 25.507812 118.210938 "/>
<path style=" stroke:none;fill-rule:evenodd;fill:rgb(94.117647%,50.196078%,10.196078%);fill-opacity:1;" d="M 294.277344 154.972656 L 291.226562 158.253906 L 294.519531 161.464844 L 297.707031 158.238281 Z M 295.601562 158.164062 L 294.550781 159.28125 L 293.449219 158.207031 L 294.507812 157.082031 Z M 295.601562 158.164062 "/>
<path style=" stroke:none;fill-rule:evenodd;fill:rgb(94.117647%,50.196078%,10.196078%);fill-opacity:1;" d="M 298.796875 150.566406 L 296.667969 152.777344 L 295.574219 151.773438 L 294.519531 152.957031 L 299.144531 157.175781 L 302.351562 153.804688 Z M 300.125 153.945312 L 299.171875 154.992188 L 297.945312 153.796875 L 298.910156 152.742188 Z M 300.125 153.945312 "/>
<path style=" stroke:none;fill-rule:evenodd;fill:rgb(94.117647%,50.196078%,10.196078%);fill-opacity:1;" d="M 292.308594 155.167969 L 289.996094 157.515625 L 286.628906 154.378906 L 290.929688 149.851562 L 292.160156 150.878906 L 288.941406 154.355469 L 289.902344 155.3125 L 291.101562 154.117188 Z M 292.308594 155.167969 "/>
<path style=" stroke:none;fill-rule:evenodd;fill:rgb(94.117647%,50.196078%,10.196078%);fill-opacity:1;" d="M 293.191406 156.25 L 286.433594 149.996094 L 289.554688 146.6875 L 294.347656 150.832031 L 293.214844 151.984375 L 289.582031 148.796875 L 288.546875 149.949219 L 294.324219 154.976562 Z M 293.191406 156.25 "/>
<path style=" stroke:none;fill-rule:evenodd;fill:rgb(94.117647%,50.196078%,10.196078%);fill-opacity:1;" d="M 292.085938 153.132812 L 298.75 146.160156 L 302.3125 149.296875 L 295.402344 156.34375 L 294.125 155.121094 L 299.828125 149.324219 L 298.769531 148.390625 L 293.289062 154.304688 Z M 292.085938 153.132812 "/>
<path style=" stroke:none;fill-rule:evenodd;fill:rgb(94.117647%,50.196078%,10.196078%);fill-opacity:1;" d="M 297.835938 151.886719 L 290.855469 145.371094 L 294.175781 142.160156 L 297.710938 145.464844 L 293.144531 150.113281 L 291.792969 148.890625 L 295.332031 145.511719 L 294.175781 144.484375 L 293.117188 145.496094 L 298.96875 150.59375 Z M 297.835938 151.886719 "/>
<path style=" stroke:none;fill-rule:evenodd;fill:rgb(94.117647%,50.196078%,10.196078%);fill-opacity:1;" d="M 293.183594 147.558594 L 294.457031 148.773438 L 295.601562 147.65625 L 294.25 146.476562 Z M 293.183594 147.558594 "/>
<path style=" stroke:none;fill-rule:evenodd;fill:rgb(94.117647%,50.196078%,10.196078%);fill-opacity:1;" d="M 27.09375 153.71875 L 24.046875 156.996094 L 27.34375 160.210938 L 30.527344 156.976562 Z M 28.421875 156.90625 L 27.371094 158.027344 L 26.269531 156.949219 L 27.328125 155.824219 Z M 28.421875 156.90625 "/>
<path style=" stroke:none;fill-rule:evenodd;fill:rgb(94.117647%,50.196078%,10.196078%);fill-opacity:1;" d="M 31.617188 149.308594 L 29.488281 151.519531 L 28.398438 150.515625 L 27.34375 151.699219 L 31.964844 155.917969 L 35.171875 152.546875 Z M 32.945312 152.691406 L 31.992188 153.734375 L 30.761719 152.539062 L 31.730469 151.488281 Z M 32.945312 152.691406 "/>
<path style=" stroke:none;fill-rule:evenodd;fill:rgb(94.117647%,50.196078%,10.196078%);fill-opacity:1;" d="M 25.128906 153.914062 L 22.820312 156.261719 L 19.453125 153.121094 L 23.753906 148.59375 L 24.980469 149.625 L 21.761719 153.097656 L 22.722656 154.054688 L 23.925781 152.859375 Z M 25.128906 153.914062 "/>
<path style=" stroke:none;fill-rule:evenodd;fill:rgb(94.117647%,50.196078%,10.196078%);fill-opacity:1;" d="M 26.015625 154.992188 L 19.257812 148.738281 L 22.375 145.429688 L 27.171875 149.578125 L 26.035156 150.726562 L 22.398438 147.539062 L 21.367188 148.6875 L 27.144531 153.722656 Z M 26.015625 154.992188 "/>
<path style=" stroke:none;fill-rule:evenodd;fill:rgb(94.117647%,50.196078%,10.196078%);fill-opacity:1;" d="M 24.910156 151.875 L 31.566406 144.902344 L 35.128906 148.042969 L 28.226562 155.085938 L 26.945312 153.867188 L 32.644531 148.066406 L 31.59375 147.132812 L 26.113281 153.050781 Z M 24.910156 151.875 "/>
<path style=" stroke:none;fill-rule:evenodd;fill:rgb(94.117647%,50.196078%,10.196078%);fill-opacity:1;" d="M 30.660156 150.628906 L 23.679688 144.113281 L 26.996094 140.902344 L 30.535156 144.210938 L 25.960938 148.859375 L 24.609375 147.636719 L 28.148438 144.257812 L 26.996094 143.226562 L 25.9375 144.242188 L 31.789062 149.335938 Z M 30.660156 150.628906 "/>
<path style=" stroke:none;fill-rule:evenodd;fill:rgb(94.117647%,50.196078%,10.196078%);fill-opacity:1;" d="M 26.007812 146.300781 L 27.277344 147.519531 L 28.421875 146.398438 L 27.070312 145.21875 Z M 26.007812 146.300781 "/>
<path style="fill:none;stroke-width:0.8406;stroke-linecap:butt;stroke-linejoin:miter;stroke:rgb(9.019608%,50.196078%,27.058824%);stroke-opacity:1;stroke-miterlimit:22.9256;" d="M 294.38623 150.402018 C 294.38623 229.895383 229.942395 294.341008 150.44856 294.341008 C 70.95105 294.341008 6.507214 229.895383 6.507214 150.402018 C 6.507214 70.908654 70.95105 6.463028 150.44856 6.463028 C 229.942395 6.463028 294.38623 70.908654 294.38623 150.402018 Z M 294.38623 150.402018 " transform="matrix(1.063123,0,0,1.036545,0,0)"/>
<path style=" stroke:none;fill-rule:nonzero;fill:rgb(12.941176%,36.862745%,52.941176%);fill-opacity:1;" d="M 205.4375 245.945312 L 203.835938 246.621094 L 206.898438 253.535156 L 205.75 253.265625 L 202.972656 246.984375 L 201.949219 247.414062 L 200.976562 246.820312 L 204.484375 245.347656 Z M 204.9375 250.769531 L 201.886719 251.871094 L 202.109375 252.453125 C 202.140625 252.539062 202.160156 252.628906 202.171875 252.722656 C 202.179688 252.8125 202.140625 252.894531 202.050781 252.964844 C 201.875 253.105469 201.464844 253.027344 200.828125 252.726562 C 200.1875 252.425781 199.839844 252.195312 199.777344 252.03125 C 199.742188 251.929688 199.757812 251.828125 199.835938 251.726562 C 199.863281 251.703125 199.910156 251.660156 199.964844 251.605469 L 200.679688 251.34375 L 199.535156 248.335938 L 197.953125 248.910156 L 197.007812 248.269531 L 202.511719 246.277344 L 203.457031 246.917969 L 200.425781 248.015625 L 201.566406 251.023438 L 204.617188 249.921875 Z M 198.515625 248.605469 L 196.878906 249.199219 L 199.570312 256.261719 L 198.4375 255.9375 L 195.996094 249.523438 L 194.957031 249.898438 L 194.015625 249.257812 L 197.59375 247.960938 Z M 194.617188 254.410156 L 193.289062 250.28125 L 191.347656 250.871094 L 191.703125 251.992188 C 191.71875 252.035156 191.746094 252.121094 191.789062 252.242188 C 191.828125 252.371094 191.832031 252.480469 191.800781 252.574219 C 191.765625 252.671875 191.667969 252.765625 191.507812 252.847656 C 191.480469 252.855469 191.449219 252.871094 191.40625 252.898438 L 189.304688 253.539062 C 189.191406 253.609375 189.105469 253.667969 189.058594 253.707031 C 188.898438 253.855469 188.875 254.003906 188.972656 254.160156 C 189.164062 254.4375 189.4375 254.578125 189.792969 254.578125 C 189.910156 254.582031 190.074219 254.558594 190.285156 254.503906 C 190.394531 254.445312 190.519531 254.390625 190.664062 254.332031 C 190.8125 254.273438 191 254.210938 191.234375 254.140625 C 191.605469 254.027344 191.925781 253.964844 192.203125 253.957031 C 192.476562 253.945312 192.660156 254.019531 192.75 254.179688 C 192.835938 254.339844 192.886719 254.421875 192.890625 254.433594 C 192.953125 254.636719 192.820312 254.789062 192.484375 254.894531 C 192.359375 254.929688 192.195312 254.964844 192.003906 254.992188 C 191.804688 255.019531 191.683594 255.046875 191.625 255.058594 C 191.277344 255.167969 191.027344 255.359375 190.878906 255.640625 C 190.726562 255.921875 190.6875 256.1875 190.769531 256.4375 C 190.898438 256.84375 191.066406 257.105469 191.269531 257.230469 C 191.476562 257.351562 191.714844 257.375 191.976562 257.292969 C 192.230469 257.21875 192.496094 257.066406 192.765625 256.847656 C 192.898438 256.746094 193.105469 256.554688 193.382812 256.273438 C 193.792969 255.875 194.113281 255.453125 194.347656 255.011719 C 194.425781 254.859375 194.515625 254.660156 194.617188 254.410156 Z M 195.914062 249.484375 L 194.195312 250.003906 L 196.5 257.214844 L 195.382812 256.8125 L 195.007812 255.644531 C 194.875 255.90625 194.757812 256.113281 194.652344 256.253906 C 194.308594 256.726562 193.917969 257.109375 193.472656 257.394531 C 193.285156 257.511719 193.085938 257.601562 192.878906 257.667969 C 192.460938 257.792969 192.019531 257.832031 191.558594 257.773438 C 191.09375 257.71875 190.699219 257.5625 190.371094 257.308594 C 190.042969 257.054688 189.832031 256.785156 189.742188 256.507812 C 189.652344 256.222656 189.675781 255.933594 189.804688 255.632812 C 189.851562 255.53125 189.929688 255.410156 190.050781 255.261719 C 189.871094 255.21875 189.730469 255.171875 189.625 255.132812 C 189.296875 255.011719 189.019531 254.878906 188.792969 254.734375 C 188.339844 254.425781 188.070312 254.136719 187.984375 253.867188 C 187.890625 253.574219 187.988281 253.304688 188.273438 253.054688 C 188.363281 252.976562 188.523438 252.878906 188.75 252.757812 L 190.660156 252.179688 L 190.339844 251.179688 L 187.027344 252.191406 L 186.117188 251.5 L 195.003906 248.796875 Z M 188.113281 251.792969 L 186.421875 252.214844 L 188.335938 259.511719 L 187.246094 259.070312 L 185.507812 252.441406 L 184.433594 252.710938 L 183.566406 251.976562 L 187.265625 251.054688 Z M 186.550781 255.792969 C 186.277344 255.546875 186.042969 255.367188 185.851562 255.261719 C 185.246094 254.921875 184.652344 254.808594 184.074219 254.921875 C 183.960938 254.941406 183.878906 254.957031 183.820312 254.972656 C 183.371094 255.109375 183.023438 255.335938 182.785156 255.65625 C 182.550781 255.976562 182.472656 256.34375 182.558594 256.761719 C 182.648438 257.183594 182.8125 257.472656 183.054688 257.632812 C 183.296875 257.789062 183.601562 257.832031 183.96875 257.761719 C 184.253906 257.707031 184.566406 257.574219 184.90625 257.359375 C 185.246094 257.148438 185.5625 256.894531 185.84375 256.597656 C 186.03125 256.40625 186.203125 256.210938 186.371094 256.007812 C 186.421875 255.949219 186.480469 255.878906 186.550781 255.792969 Z M 186.914062 256.664062 C 186.785156 256.976562 186.652344 257.214844 186.523438 257.371094 C 186.128906 257.871094 185.601562 258.183594 184.9375 258.316406 C 184.246094 258.449219 183.550781 258.324219 182.847656 257.9375 C 182.144531 257.550781 181.722656 257.03125 181.59375 256.386719 C 181.523438 255.828125 181.667969 255.351562 182.019531 254.945312 C 182.367188 254.539062 182.863281 254.273438 183.503906 254.148438 C 184.214844 254.007812 184.957031 254.199219 185.734375 254.722656 C 185.996094 254.890625 186.308594 255.167969 186.683594 255.550781 Z M 185.957031 252.472656 L 180.398438 253.5625 L 179.589844 252.777344 L 185.113281 251.699219 Z M 182.953125 251.351562 C 182.703125 251.085938 182.484375 250.878906 182.308594 250.734375 C 181.742188 250.265625 181.15625 249.921875 180.558594 249.703125 C 180.371094 249.632812 180.175781 249.589844 179.976562 249.574219 C 179.773438 249.5625 179.550781 249.574219 179.300781 249.625 C 178.800781 249.722656 178.425781 249.957031 178.183594 250.332031 C 178.03125 250.550781 177.9375 250.78125 177.898438 251.007812 C 177.855469 251.242188 177.859375 251.46875 177.90625 251.6875 C 177.96875 252 178.117188 252.308594 178.339844 252.613281 C 178.40625 252.710938 178.511719 252.828125 178.652344 252.96875 L 180.167969 252.671875 L 180.976562 253.453125 L 179.269531 253.789062 L 180.789062 261.191406 L 179.722656 260.679688 L 178.339844 253.96875 L 177.253906 254.183594 L 176.441406 253.402344 L 178.316406 253.035156 C 178.078125 252.851562 177.898438 252.695312 177.777344 252.566406 C 177.382812 252.160156 177.140625 251.746094 177.054688 251.328125 C 176.980469 250.960938 177.011719 250.601562 177.148438 250.253906 C 177.289062 249.910156 177.496094 249.632812 177.777344 249.429688 C 178.058594 249.222656 178.390625 249.082031 178.785156 249.003906 C 179.316406 248.898438 179.824219 248.9375 180.292969 249.125 C 180.867188 249.339844 181.46875 249.675781 182.097656 250.144531 C 182.289062 250.289062 182.53125 250.492188 182.832031 250.757812 Z M 171.425781 254.125 L 171.011719 254.167969 C 170.917969 253.976562 170.84375 253.824219 170.792969 253.710938 C 170.617188 253.347656 170.4375 253.046875 170.253906 252.804688 C 169.996094 252.480469 169.773438 252.230469 169.582031 252.058594 C 169.347656 251.859375 169.097656 251.707031 168.816406 251.605469 C 168.664062 251.542969 168.511719 251.507812 168.367188 251.503906 C 168.21875 251.503906 168.054688 251.511719 167.875 251.53125 L 167.25 250.402344 C 167.453125 250.367188 167.636719 250.359375 167.804688 250.378906 C 167.972656 250.398438 168.183594 250.460938 168.441406 250.578125 C 168.800781 250.738281 169.128906 250.960938 169.429688 251.238281 C 169.679688 251.472656 169.988281 251.84375 170.359375 252.347656 C 170.648438 252.699219 170.941406 253.160156 171.234375 253.734375 C 171.285156 253.835938 171.351562 253.964844 171.425781 254.125 Z M 173.425781 254.679688 L 171.691406 254.867188 L 172.546875 262.355469 L 171.523438 261.769531 L 170.753906 254.96875 L 169.648438 255.089844 L 168.894531 254.246094 L 172.6875 253.832031 Z M 171.09375 257.300781 L 168.492188 257.582031 C 168.179688 257.636719 167.949219 257.703125 167.800781 257.78125 C 167.355469 258.03125 167.160156 258.429688 167.226562 258.984375 C 167.273438 259.382812 167.410156 259.785156 167.648438 260.195312 C 167.882812 260.605469 168.179688 261.003906 168.542969 261.390625 C 168.753906 261.628906 168.914062 261.796875 169.019531 261.890625 C 169.0625 261.933594 169.121094 261.988281 169.203125 262.050781 L 168.863281 262.425781 L 167.527344 260.984375 C 167.175781 260.570312 166.890625 260.164062 166.671875 259.765625 C 166.460938 259.367188 166.328125 258.984375 166.285156 258.621094 C 166.199219 257.871094 166.472656 257.324219 167.089844 256.984375 C 167.296875 256.878906 167.613281 256.78125 168.046875 256.703125 L 170.992188 256.382812 Z M 170.890625 254.894531 L 165.34375 255.496094 L 164.589844 254.652344 L 170.117188 254.050781 Z M 166.390625 255.335938 L 164.648438 255.4375 L 165.101562 262.957031 L 164.117188 262.320312 L 163.703125 255.492188 L 162.597656 255.554688 L 161.890625 254.667969 L 165.699219 254.453125 Z M 160.320312 257.214844 L 160.3125 255.9375 C 160.3125 255.628906 160.246094 255.40625 160.125 255.265625 C 160.003906 255.125 159.847656 255.054688 159.65625 255.054688 C 159.445312 255.054688 159.285156 255.140625 159.175781 255.308594 C 159.058594 255.472656 159.003906 255.679688 159.007812 255.929688 C 159.007812 256.152344 159.0625 256.351562 159.171875 256.53125 C 159.328125 256.777344 159.570312 256.964844 159.882812 257.09375 C 159.980469 257.128906 160.125 257.167969 160.320312 257.214844 Z M 164.296875 259.636719 L 161.300781 259.65625 L 161.300781 260.148438 C 161.289062 260.269531 161.277344 260.351562 161.269531 260.398438 C 161.207031 260.566406 161.097656 260.648438 160.941406 260.648438 C 160.746094 260.648438 160.453125 260.46875 160.0625 260.117188 C 159.738281 259.808594 159.492188 259.546875 159.335938 259.335938 C 159.273438 259.242188 159.242188 259.15625 159.242188 259.085938 C 159.238281 258.980469 159.3125 258.894531 159.457031 258.832031 C 159.503906 258.820312 159.578125 258.796875 159.675781 258.757812 L 160.328125 258.753906 L 160.320312 257.628906 C 160.09375 257.59375 159.910156 257.5625 159.777344 257.527344 C 158.964844 257.292969 158.433594 256.878906 158.1875 256.28125 C 158.136719 256.152344 158.113281 256.007812 158.113281 255.855469 C 158.109375 255.503906 158.230469 255.199219 158.480469 254.933594 C 158.726562 254.675781 159.066406 254.546875 159.503906 254.542969 C 159.585938 254.542969 159.660156 254.539062 159.734375 254.539062 C 159.796875 254.539062 159.910156 254.5625 160.066406 254.609375 C 160.515625 254.734375 160.851562 255.046875 161.070312 255.542969 C 161.144531 255.710938 161.214844 255.949219 161.277344 256.269531 L 161.292969 258.75 L 164.292969 258.734375 Z M 164.289062 255.523438 L 162.21875 255.535156 L 161.554688 254.617188 L 163.628906 254.605469 Z M 158.203125 255.453125 L 156.457031 255.460938 L 156.503906 262.996094 L 155.554688 262.3125 L 155.511719 255.46875 L 154.402344 255.476562 L 153.742188 254.558594 L 157.5625 254.535156 Z M 155.980469 258.542969 C 155.890625 258.417969 155.808594 258.324219 155.742188 258.257812 C 155.523438 258.054688 155.296875 257.945312 155.054688 257.933594 C 154.910156 257.925781 154.75 257.953125 154.574219 258.019531 C 154.402344 258.085938 154.226562 258.195312 154.058594 258.351562 C 153.84375 258.550781 153.5625 258.871094 153.214844 259.308594 C 153.109375 259.445312 152.96875 259.632812 152.796875 259.871094 L 152.066406 259.308594 L 152.726562 258.425781 C 152.570312 258.226562 152.445312 258.085938 152.351562 257.996094 C 152.054688 257.691406 151.800781 257.535156 151.582031 257.519531 C 150.554688 257.457031 150.007812 257.910156 149.941406 258.875 C 149.914062 259.359375 150.046875 259.875 150.351562 260.429688 C 150.386719 260.503906 150.621094 260.851562 151.070312 261.484375 C 151.191406 261.648438 151.414062 261.921875 151.742188 262.308594 C 151.789062 262.359375 151.855469 262.433594 151.945312 262.535156 L 151.578125 262.867188 C 151.257812 262.503906 151.019531 262.21875 150.851562 262.003906 C 150.34375 261.382812 149.988281 260.902344 149.777344 260.570312 C 149.503906 260.128906 149.304688 259.703125 149.1875 259.300781 C 149.066406 258.894531 149.019531 258.546875 149.039062 258.253906 C 149.070312 257.757812 149.242188 257.367188 149.558594 257.085938 C 149.875 256.804688 150.152344 256.65625 150.390625 256.640625 C 150.628906 256.625 150.800781 256.621094 150.90625 256.625 C 151.417969 256.660156 151.929688 256.914062 152.441406 257.398438 C 152.613281 257.550781 152.816406 257.789062 153.054688 258.109375 C 153.238281 257.863281 153.394531 257.683594 153.527344 257.570312 C 153.921875 257.21875 154.316406 257.054688 154.703125 257.078125 C 155.066406 257.101562 155.429688 257.289062 155.796875 257.640625 C 155.855469 257.691406 155.925781 257.773438 156.015625 257.886719 Z M 155.863281 255.585938 L 148.621094 255.132812 L 148.011719 254.171875 L 155.25 254.625 Z M 144.800781 254.746094 L 142.902344 254.433594 L 141.601562 261.878906 L 140.792969 261.023438 L 141.96875 254.277344 L 140.929688 254.105469 L 140.460938 253.09375 L 142.410156 253.417969 C 142.398438 253.03125 142.371094 252.71875 142.335938 252.484375 C 142.238281 251.789062 142.074219 251.1875 141.847656 250.6875 C 141.621094 250.191406 141.285156 249.902344 140.828125 249.828125 C 140.445312 249.761719 140.140625 249.890625 139.910156 250.214844 C 139.773438 250.417969 139.6875 250.644531 139.644531 250.890625 C 139.589844 251.203125 139.605469 251.511719 139.6875 251.8125 C 139.703125 251.863281 139.730469 251.929688 139.765625 252.007812 L 139.351562 251.9375 C 139.289062 251.710938 139.25 251.53125 139.222656 251.394531 C 139.144531 250.9375 139.136719 250.535156 139.199219 250.1875 C 139.253906 249.871094 139.363281 249.585938 139.53125 249.324219 C 139.832031 248.882812 140.253906 248.707031 140.800781 248.800781 C 141.125 248.851562 141.414062 249 141.664062 249.25 C 141.78125 249.363281 141.871094 249.472656 141.941406 249.585938 C 141.953125 249.625 141.984375 249.679688 142.019531 249.753906 C 142.089844 249.628906 142.15625 249.539062 142.21875 249.480469 C 142.398438 249.289062 142.582031 249.191406 142.773438 249.183594 C 142.96875 249.179688 143.089844 249.179688 143.152344 249.1875 C 143.4375 249.234375 143.714844 249.40625 143.984375 249.703125 C 144.066406 249.800781 144.167969 249.945312 144.292969 250.132812 L 144.085938 250.277344 C 144.042969 250.234375 144.003906 250.207031 143.972656 250.1875 C 143.765625 250.046875 143.570312 249.960938 143.390625 249.929688 C 143.34375 249.921875 143.253906 249.921875 143.132812 249.925781 C 142.894531 249.957031 142.699219 250.089844 142.546875 250.332031 C 142.496094 250.40625 142.4375 250.527344 142.371094 250.695312 C 142.429688 250.863281 142.46875 250.996094 142.484375 251.09375 C 142.582031 251.445312 142.644531 251.734375 142.667969 251.96875 C 142.703125 252.164062 142.746094 252.496094 142.789062 252.960938 C 142.800781 253.09375 142.820312 253.269531 142.84375 253.488281 L 144.3125 253.734375 Z M 141.507812 254.273438 L 139.789062 253.988281 L 138.488281 261.417969 L 137.679688 260.582031 L 138.851562 253.835938 L 137.761719 253.65625 L 137.273438 252.640625 L 141.039062 253.265625 Z M 136.914062 254.035156 C 136.984375 253.738281 136.964844 253.445312 136.855469 253.167969 C 136.707031 252.824219 136.449219 252.605469 136.070312 252.523438 C 135.976562 252.503906 135.847656 252.492188 135.6875 252.488281 C 135.527344 252.484375 135.347656 252.574219 135.148438 252.769531 C 134.949219 252.960938 134.816406 253.199219 134.75 253.488281 C 134.671875 253.824219 134.699219 254.09375 134.820312 254.304688 C 134.925781 254.507812 135.140625 254.714844 135.464844 254.917969 C 135.5625 254.976562 135.710938 255.054688 135.914062 255.160156 C 136.109375 255.054688 136.253906 254.96875 136.34375 254.894531 C 136.652344 254.644531 136.839844 254.359375 136.914062 254.035156 Z M 138.433594 258.527344 C 138.15625 258.601562 137.933594 258.648438 137.765625 258.671875 C 137.195312 258.777344 136.792969 258.820312 136.566406 258.792969 C 136.335938 258.765625 136.15625 258.738281 136.027344 258.710938 C 135.613281 258.617188 135.226562 258.4375 134.867188 258.164062 C 134.507812 257.890625 134.230469 257.597656 134.042969 257.285156 C 133.855469 256.972656 133.695312 256.613281 133.566406 256.210938 C 133.542969 256.144531 133.515625 256.058594 133.492188 255.957031 L 134.453125 255.75 C 134.746094 255.667969 135.03125 255.574219 135.320312 255.46875 C 135.359375 255.453125 135.421875 255.429688 135.503906 255.398438 C 135.378906 255.359375 135.265625 255.316406 135.175781 255.273438 C 134.933594 255.148438 134.691406 254.976562 134.449219 254.761719 C 134.207031 254.542969 134.039062 254.292969 133.949219 254.007812 C 133.859375 253.71875 133.84375 253.449219 133.902344 253.195312 C 133.972656 252.894531 134.117188 252.652344 134.34375 252.457031 C 134.570312 252.261719 134.839844 252.136719 135.15625 252.082031 C 135.472656 252.023438 135.78125 252.027344 136.078125 252.089844 C 136.488281 252.183594 136.820312 252.34375 137.0625 252.582031 C 137.644531 253.132812 137.855469 253.753906 137.699219 254.445312 C 137.589844 254.917969 137.292969 255.335938 136.808594 255.703125 C 136.441406 255.960938 135.910156 256.210938 135.226562 256.445312 C 134.996094 256.519531 134.6875 256.605469 134.289062 256.714844 C 134.398438 256.929688 134.496094 257.09375 134.582031 257.199219 C 134.875 257.550781 135.222656 257.773438 135.625 257.859375 C 135.753906 257.890625 135.894531 257.902344 136.042969 257.898438 C 136.738281 257.902344 137.394531 257.804688 138.011719 257.601562 C 138.214844 257.539062 138.449219 257.433594 138.714844 257.300781 Z M 134.449219 253.09375 L 132.761719 252.664062 L 130.808594 259.949219 L 130.074219 259.050781 L 131.847656 252.429688 L 130.773438 252.15625 L 130.382812 251.101562 L 134.074219 252.046875 Z M 127.722656 255.96875 L 129.070312 251.847656 L 127.125 251.246094 L 126.765625 252.363281 C 126.75 252.40625 126.722656 252.492188 126.683594 252.617188 C 126.640625 252.742188 126.578125 252.832031 126.496094 252.894531 C 126.414062 252.953125 126.277344 252.976562 126.09375 252.957031 C 126.074219 252.949219 126.035156 252.941406 125.984375 252.9375 L 123.886719 252.289062 C 123.75 252.28125 123.648438 252.28125 123.585938 252.285156 C 123.367188 252.320312 123.257812 252.429688 123.246094 252.613281 C 123.238281 252.945312 123.382812 253.210938 123.675781 253.414062 C 123.765625 253.476562 123.914062 253.550781 124.117188 253.628906 C 124.242188 253.640625 124.378906 253.664062 124.535156 253.699219 C 124.6875 253.734375 124.878906 253.789062 125.113281 253.859375 C 125.484375 253.972656 125.785156 254.105469 126.015625 254.25 C 126.246094 254.394531 126.351562 254.5625 126.332031 254.738281 C 126.3125 254.917969 126.300781 255.015625 126.292969 255.023438 C 126.230469 255.226562 126.027344 255.277344 125.695312 255.175781 C 125.566406 255.136719 125.417969 255.074219 125.238281 254.988281 C 125.0625 254.902344 124.949219 254.851562 124.890625 254.832031 C 124.542969 254.726562 124.226562 254.746094 123.9375 254.890625 C 123.648438 255.035156 123.460938 255.234375 123.386719 255.480469 C 123.25 255.886719 123.230469 256.195312 123.324219 256.414062 C 123.421875 256.628906 123.601562 256.777344 123.867188 256.859375 C 124.121094 256.9375 124.425781 256.960938 124.777344 256.9375 C 124.945312 256.925781 125.226562 256.882812 125.621094 256.808594 C 126.1875 256.710938 126.699219 256.546875 127.152344 256.316406 C 127.304688 256.238281 127.492188 256.125 127.722656 255.96875 Z M 131.679688 252.660156 L 129.96875 252.128906 L 127.621094 259.324219 L 126.9375 258.371094 L 127.320312 257.203125 C 127.058594 257.34375 126.839844 257.445312 126.667969 257.503906 C 126.109375 257.699219 125.558594 257.792969 125.03125 257.777344 C 124.804688 257.769531 124.589844 257.734375 124.382812 257.667969 C 123.964844 257.539062 123.585938 257.324219 123.238281 257.015625 C 122.894531 256.710938 122.660156 256.363281 122.542969 255.972656 C 122.421875 255.582031 122.40625 255.242188 122.5 254.964844 C 122.589844 254.683594 122.785156 254.457031 123.0625 254.28125 C 123.160156 254.226562 123.300781 254.171875 123.484375 254.113281 C 123.359375 253.976562 123.269531 253.863281 123.214844 253.769531 C 123.015625 253.484375 122.863281 253.21875 122.765625 252.980469 C 122.570312 252.472656 122.523438 252.085938 122.609375 251.816406 C 122.707031 251.523438 122.945312 251.355469 123.328125 251.3125 C 123.445312 251.300781 123.632812 251.308594 123.890625 251.339844 L 125.796875 251.929688 L 126.121094 250.933594 L 122.8125 249.90625 L 122.476562 248.835938 L 131.34375 251.585938 Z M 123.816406 250.367188 L 122.183594 249.769531 L 119.457031 256.816406 L 118.824219 255.847656 L 121.300781 249.445312 L 120.261719 249.0625 L 119.980469 247.976562 L 123.554688 249.289062 Z M 120.089844 252.597656 C 119.996094 252.246094 119.890625 251.976562 119.785156 251.785156 C 119.457031 251.183594 119.015625 250.78125 118.464844 250.578125 C 118.359375 250.539062 118.28125 250.511719 118.222656 250.492188 C 117.761719 250.371094 117.347656 250.386719 116.976562 250.535156 C 116.597656 250.683594 116.332031 250.957031 116.179688 251.355469 C 116.023438 251.757812 116.007812 252.089844 116.128906 252.347656 C 116.242188 252.609375 116.480469 252.804688 116.832031 252.933594 C 117.105469 253.03125 117.445312 253.082031 117.84375 253.078125 C 118.246094 253.074219 118.652344 253.019531 119.054688 252.917969 C 119.316406 252.847656 119.570312 252.773438 119.824219 252.6875 C 119.898438 252.667969 119.988281 252.636719 120.089844 252.597656 Z M 119.925781 253.523438 C 119.644531 253.722656 119.40625 253.855469 119.210938 253.921875 C 118.609375 254.140625 117.988281 254.136719 117.351562 253.902344 C 116.695312 253.660156 116.171875 253.195312 115.785156 252.503906 C 115.402344 251.808594 115.324219 251.15625 115.566406 250.535156 C 115.808594 250.035156 116.191406 249.699219 116.710938 249.535156 C 117.226562 249.371094 117.789062 249.402344 118.402344 249.628906 C 119.085938 249.878906 119.609375 250.425781 119.984375 251.269531 C 120.109375 251.542969 120.226562 251.941406 120.335938 252.460938 Z M 121.394531 249.476562 L 116.085938 247.527344 L 115.824219 246.445312 L 121.097656 248.386719 Z M 205.820312 253.433594 L 208.925781 254.1875 L 207.925781 254.617188 L 206.191406 254.257812 Z M 119.894531 247.222656 C 119.839844 246.863281 119.785156 246.574219 119.726562 246.355469 C 119.539062 245.65625 119.257812 245.050781 118.894531 244.53125 C 118.785156 244.371094 118.652344 244.226562 118.5 244.101562 C 118.339844 243.976562 118.144531 243.863281 117.914062 243.761719 C 117.449219 243.5625 117.003906 243.550781 116.585938 243.71875 C 116.332031 243.8125 116.117188 243.949219 115.949219 244.117188 C 115.78125 244.28125 115.652344 244.46875 115.558594 244.671875 C 115.425781 244.964844 115.363281 245.300781 115.367188 245.675781 C 115.367188 245.789062 115.386719 245.945312 115.414062 246.140625 L 116.832031 246.746094 L 117.035156 247.835938 L 115.4375 247.152344 L 112.328125 254.070312 L 111.753906 253.050781 L 114.570312 246.785156 L 113.554688 246.351562 L 113.351562 245.261719 L 115.101562 246.007812 C 115.015625 245.726562 114.957031 245.496094 114.933594 245.316406 C 114.847656 244.761719 114.898438 244.292969 115.070312 243.902344 C 115.226562 243.558594 115.464844 243.28125 115.78125 243.074219 C 116.097656 242.867188 116.429688 242.757812 116.78125 242.746094 C 117.128906 242.734375 117.488281 242.804688 117.855469 242.964844 C 118.355469 243.175781 118.742188 243.492188 119.019531 243.902344 C 119.363281 244.402344 119.65625 245.015625 119.898438 245.75 C 119.96875 245.972656 120.050781 246.28125 120.140625 246.667969 Z M 119.894531 247.222656 "/>
<path style=" stroke:none;fill-rule:evenodd;fill:rgb(5.882353%,40%,61.176471%);fill-opacity:1;" d="M 154.617188 243.503906 C 155.246094 240.386719 154.789062 237.902344 153.359375 234.667969 C 164.039062 230.398438 183.417969 234.367188 198.664062 232.757812 C 199.753906 232.757812 201.523438 232.394531 201.777344 231.71875 L 206.578125 196.28125 C 206.292969 195.417969 205.894531 194.644531 205.375 193.953125 L 200.761719 194.316406 C 200.847656 205.46875 197.4375 216.882812 195.109375 228.039062 C 181.59375 228.566406 167.09375 225.644531 154.554688 229.625 C 154.203125 228.039062 154.714844 226.320312 155.820312 224.503906 C 171.535156 219.375 178.582031 226.492188 190.882812 222.105469 C 193.550781 211.714844 195.769531 201.441406 197.542969 191.292969 C 188.789062 194.542969 177.945312 189.160156 169.746094 195.621094 L 152.820312 224.789062 C 151.671875 226.746094 151.101562 229.027344 151.261719 231.574219 C 152.015625 236.628906 154.484375 238.554688 154.617188 243.503906 "/>
<path style=" stroke:none;fill-rule:evenodd;fill:rgb(5.882353%,40%,61.176471%);fill-opacity:1;" d="M 152.019531 243.042969 C 152.097656 238.261719 150.394531 236.8125 150.132812 234.261719 C 137.964844 229.75 125.300781 234.367188 114.253906 232.730469 C 113.53125 231.773438 113.300781 230.867188 113.289062 229.988281 L 141.28125 197.089844 C 147.902344 198.253906 158.929688 190.507812 167.429688 196.242188 L 150.746094 225.167969 C 140.746094 219.230469 127.0625 226.792969 119.722656 224.53125 C 119.15625 225.785156 118.585938 226.835938 118.898438 228.648438 C 128.4375 229.300781 139.605469 225.5 149.960938 229.429688 C 150.597656 234.28125 153.113281 238.523438 152.019531 243.042969 "/>
<path style=" stroke:none;fill-rule:nonzero;fill:rgb(100%,100%,100%);fill-opacity:1;" d="M 141.890625 216.996094 C 142.921875 217.433594 143.96875 217.15625 145.007812 216.167969 C 146.050781 215.167969 147.125 213.425781 148.226562 210.945312 C 149.316406 208.515625 149.875 206.605469 149.902344 205.210938 C 149.929688 203.816406 149.417969 202.898438 148.382812 202.457031 C 147.355469 202.019531 146.320312 202.300781 145.277344 203.300781 C 144.238281 204.300781 143.160156 206.042969 142.039062 208.527344 C 140.964844 210.957031 140.414062 212.863281 140.382812 214.257812 C 140.355469 215.644531 140.859375 216.558594 141.890625 216.996094 M 141.625 217.585938 C 140.046875 216.914062 139.09375 215.648438 138.765625 213.789062 C 138.4375 211.929688 138.792969 209.832031 139.839844 207.484375 C 140.890625 205.140625 142.226562 203.445312 143.847656 202.414062 C 145.46875 201.375 147.074219 201.199219 148.652344 201.867188 C 150.234375 202.539062 151.1875 203.804688 151.511719 205.667969 C 151.835938 207.527344 151.476562 209.636719 150.425781 211.980469 C 149.378906 214.324219 148.046875 216.007812 146.429688 217.042969 C 144.808594 218.078125 143.210938 218.257812 141.625 217.585938 Z M 141.625 217.585938 "/>
<path style=" stroke:none;fill-rule:nonzero;fill:rgb(100%,100%,100%);fill-opacity:1;" d="M 186.0625 201.554688 L 185.867188 203.664062 L 182.261719 203.347656 C 181.710938 205.535156 181.347656 207.648438 181.160156 209.683594 C 181.070312 210.683594 181.183594 211.414062 181.5 211.871094 C 181.824219 212.335938 182.242188 212.59375 182.785156 212.640625 C 183.210938 212.675781 183.59375 212.5625 183.945312 212.300781 C 184.285156 212.035156 184.527344 211.632812 184.671875 211.085938 L 185.1875 211.132812 C 184.882812 212.652344 184.40625 213.695312 183.769531 214.277344 C 183.128906 214.855469 182.445312 215.113281 181.722656 215.054688 C 180.945312 214.984375 180.335938 214.582031 179.882812 213.851562 C 179.425781 213.117188 179.285156 211.8125 179.457031 209.929688 C 179.566406 208.75 179.957031 206.507812 180.640625 203.207031 L 176.761719 202.875 C 175.992188 207.925781 175.324219 211.101562 174.765625 212.414062 C 174.207031 213.722656 173.542969 214.34375 172.777344 214.277344 C 172.421875 214.246094 172.136719 214.101562 171.921875 213.855469 C 171.714844 213.601562 171.625 213.296875 171.652344 212.949219 C 171.675781 212.695312 171.734375 212.480469 171.828125 212.304688 C 171.964844 212.058594 172.230469 211.730469 172.628906 211.304688 C 173.308594 210.570312 173.800781 209.785156 174.121094 208.945312 C 174.683594 207.507812 175.152344 205.449219 175.527344 202.765625 L 174.839844 202.707031 C 174.117188 202.644531 173.5625 202.714844 173.183594 202.917969 C 172.574219 203.214844 171.992188 203.75 171.441406 204.523438 L 170.859375 204.472656 C 171.570312 202.84375 172.324219 201.742188 173.132812 201.167969 C 173.738281 200.730469 174.5625 200.558594 175.585938 200.648438 Z M 186.0625 201.554688 "/>
<path style="fill:none;stroke-width:0.3136;stroke-linecap:butt;stroke-linejoin:miter;stroke:rgb(12.941176%,36.862745%,52.941176%);stroke-opacity:1;stroke-miterlimit:22.9256;" d="M 151.675781 87.957482 L 147.950024 87.957482 L 147.950024 92.747283 C 146.395789 92.965858 144.926062 93.354016 143.504102 93.915527 L 140.998218 89.683469 L 137.110791 92.016188 L 139.616675 96.157802 C 138.363733 97.11124 137.287158 98.230494 136.33551 99.485414 L 132.194556 97.024564 L 129.905457 100.90615 L 134.090503 103.408454 C 133.532007 104.75005 133.142529 106.219777 132.925745 107.772411 L 128.090344 107.772411 L 128.090344 112.302183 L 132.925745 112.302183 C 133.142529 113.817132 133.532007 115.241637 134.090503 116.620918 L 129.861365 119.123222 L 132.150464 123.008576 L 136.33551 120.551495 C 137.290833 121.757424 138.411499 122.838992 139.616675 123.788662 L 137.114465 128.016952 L 141.001892 130.349672 L 143.548193 126.030937 C 144.929736 126.63767 146.399463 127.025829 147.909607 127.195413 L 147.909607 132.075659 L 152.686218 132.075659 L 152.686218 127.195413 C 154.200037 127.025829 155.666089 126.63767 157.043958 126.030937 L 159.590259 130.349672 L 163.48136 128.016952 L 160.975476 123.788662 C 162.184326 122.838992 163.308667 121.757424 164.256641 120.551495 L 168.445361 123.008576 L 170.73446 119.123222 L 166.501648 116.620918 C 167.063818 115.241637 167.453296 113.813364 167.666406 112.302183 L 172.501807 112.302183 L 172.501807 107.772411 L 167.666406 107.772411 C 167.453296 106.219777 167.063818 104.75005 166.501648 103.408454 L 170.686694 100.90615 L 168.40127 97.024564 L 164.256641 99.485414 C 163.308667 98.230494 162.228418 97.107472 160.975476 96.157802 L 163.48136 92.016188 L 159.590259 89.683469 L 157.091724 93.915527 C 155.666089 93.354016 154.196362 92.965858 152.642126 92.747283 L 152.642126 87.957482 Z M 151.675781 87.957482 " transform="matrix(1.063123,0,0,1.036545,0,0)"/>
</g>
</svg>
